<svg width="175" height="122" viewBox="0 0 175 122" fill="none" xmlns="http://www.w3.org/2000/svg">
<mask id="mask0_2_24" style="mask-type:luminance" maskUnits="userSpaceOnUse" x="47" y="87" width="84" height="33">
<path d="M47.6638 119.999L130.339 119.999V87.3098H47.6638V119.999Z" fill="white"/>
</mask>
<g mask="url(#mask0_2_24)">
<path d="M117.779 122.61C115.602 123.849 113.373 124.742 111.287 125.329C111.028 125.4 110.768 125.472 110.514 125.54C110.257 125.603 110.001 125.658 109.749 125.712C109.244 125.815 108.756 125.918 108.277 125.989C107.316 126.121 106.42 126.218 105.581 126.215C102.237 126.256 100.102 125.32 99.8284 123.947C99.5459 122.536 101.072 120.957 103.464 119.257C104.068 118.845 104.716 118.384 105.424 117.952C105.775 117.732 106.134 117.495 106.508 117.271C106.696 117.16 106.885 117.048 107.076 116.934C107.267 116.816 107.461 116.699 107.655 116.579C109.224 115.646 110.945 114.673 112.743 113.649C114.546 112.628 116.107 111.758 117.511 111.083C118.897 110.387 120.127 109.898 121.203 109.592C121.739 109.437 122.247 109.34 122.718 109.291C123.183 109.234 123.614 109.234 124.013 109.283C124.809 109.386 125.468 109.698 125.956 110.21C126.444 110.725 126.718 111.392 126.727 112.221C126.73 112.636 126.67 113.091 126.536 113.586C126.396 114.073 126.176 114.593 125.882 115.154C125.292 116.27 124.35 117.495 123.026 118.785C121.688 120.05 119.959 121.377 117.779 122.61Z" fill="#547374"/>
<path d="M125.714 110.433C122.532 113.011 118.184 116.098 113.47 118.533C111.119 119.758 108.697 120.839 106.363 121.741C104.031 122.645 101.791 123.363 99.8312 123.947C101.86 123.689 104.191 123.206 106.611 122.45C109.03 121.698 111.538 120.67 113.932 119.423C118.737 116.942 122.995 113.497 125.714 110.433Z" fill="#6D9B7C"/>
<path d="M104.907 115.635C105.909 115.947 107.159 116.113 108.523 116.004C109.193 115.941 109.895 115.812 110.608 115.62C111.327 115.432 112.015 115.143 112.717 114.811C113.425 114.482 114.072 114.055 114.709 113.598C115.351 113.146 115.924 112.619 116.452 112.07C116.714 111.795 116.974 111.518 117.205 111.229C117.431 110.937 117.645 110.642 117.842 110.347C118.241 109.761 118.581 109.171 118.82 108.591C118.592 108.791 118.355 108.997 118.115 109.209C117.867 109.412 117.613 109.618 117.354 109.827C116.829 110.239 116.318 110.676 115.733 111.068C115.159 111.466 114.583 111.867 113.981 112.236C113.367 112.596 112.748 112.94 112.129 113.26C110.857 113.872 109.598 114.393 108.354 114.765C107.139 115.166 105.932 115.397 104.907 115.635Z" fill="#D8E29F"/>
<path d="M102.608 117.615C103.412 118.075 104.465 118.467 105.629 118.599C106.214 118.671 106.836 118.691 107.478 118.653C108.12 118.616 108.756 118.493 109.41 118.327C109.735 118.241 110.06 118.141 110.383 118.03C110.7 117.909 111.008 117.775 111.313 117.629C111.918 117.331 112.531 117.005 113.056 116.608C113.59 116.216 114.087 115.792 114.529 115.357C114.954 114.908 115.325 114.445 115.639 113.992C115.179 114.256 114.697 114.533 114.192 114.822C113.687 115.1 113.145 115.357 112.603 115.615C112.329 115.744 112.055 115.867 111.778 115.987C111.499 116.107 111.205 116.21 110.919 116.319C110.34 116.527 109.761 116.719 109.182 116.888C108.585 117.04 107.997 117.168 107.418 117.277C107.13 117.331 106.845 117.38 106.562 117.42C106.274 117.455 105.989 117.486 105.709 117.512C105.15 117.563 104.611 117.595 104.097 117.618C103.581 117.632 103.073 117.618 102.608 117.615Z" fill="#D8E29F"/>
<path d="M100.465 119.426C100.987 119.849 101.672 120.236 102.482 120.496C102.887 120.628 103.321 120.728 103.775 120.791C104.22 120.842 104.685 120.859 105.156 120.834C105.626 120.808 106.106 120.745 106.577 120.642C107.036 120.527 107.487 120.376 107.915 120.196C108.788 119.846 109.524 119.337 110.098 118.816C108.674 119.251 106.916 119.672 105.193 119.769C104.32 119.812 103.481 119.801 102.679 119.729C101.871 119.655 101.124 119.537 100.465 119.426Z" fill="#D8E29F"/>
<path d="M107.358 113.143C108.36 113.234 109.473 113.1 110.691 112.771C111.299 112.605 111.889 112.362 112.5 112.081C112.802 111.938 113.111 111.786 113.41 111.615C113.701 111.44 113.992 111.254 114.278 111.057C114.848 110.662 115.419 110.227 115.913 109.738C116.412 109.249 116.911 108.748 117.316 108.201C117.727 107.658 118.101 107.106 118.421 106.553C118.717 105.993 118.971 105.437 119.168 104.908C117.556 106.413 115.562 108.193 113.453 109.655C111.362 111.146 109.11 112.25 107.358 113.143Z" fill="#D8E29F"/>
<path d="M109.969 110.098C111.635 109.892 113.698 108.871 115.353 107.217C117.025 105.586 118.124 103.349 118.458 101.546C117.268 102.934 115.924 104.662 114.383 106.164L113.821 106.731C113.63 106.917 113.43 107.091 113.236 107.269C112.851 107.618 112.469 107.964 112.098 108.302C111.715 108.625 111.342 108.937 110.985 109.24C110.811 109.392 110.637 109.54 110.471 109.686C110.3 109.827 110.132 109.967 109.969 110.098Z" fill="#D8E29F"/>
<path d="M111.818 106.702C112.178 106.588 112.56 106.433 112.937 106.23C113.308 106.021 113.684 105.772 114.058 105.483C114.826 104.917 115.496 104.156 116.101 103.312C116.395 102.885 116.64 102.43 116.869 101.97C116.98 101.738 117.085 101.506 117.182 101.274C117.271 101.04 117.345 100.802 117.416 100.565C117.556 100.093 117.662 99.6292 117.733 99.1857C117.79 98.7365 117.802 98.3045 117.787 97.9068C117.588 98.253 117.388 98.6192 117.182 98.9969C116.963 99.3717 116.737 99.758 116.503 100.153C116.067 100.951 115.522 101.741 115.017 102.528C113.935 104.087 112.768 105.52 111.818 106.702Z" fill="#D8E29F"/>
<path d="M104.876 115.603C104.548 114.573 104.328 113.369 104.225 112.11C104.163 111.472 104.131 110.822 104.137 110.184C104.146 109.546 104.143 108.882 104.205 108.261C104.274 107.643 104.328 107.008 104.439 106.422C104.556 105.841 104.671 105.263 104.825 104.731C104.899 104.465 104.993 104.21 105.079 103.964C105.161 103.712 105.25 103.469 105.35 103.24C105.549 102.782 105.778 102.367 105.994 101.987C106.006 102.216 106.02 102.456 106.026 102.699C106.023 102.942 106.02 103.189 106.017 103.443C106.003 103.95 106.017 104.502 105.977 105.045C105.949 105.603 105.92 106.176 105.889 106.762C105.84 107.34 105.798 107.938 105.758 108.55C105.646 109.746 105.558 111.002 105.401 112.19C105.273 113.403 105.076 114.536 104.876 115.603Z" fill="#D8E29F"/>
<path d="M102.705 117.729C102.371 116.851 102.151 115.812 102.011 114.676C101.946 114.113 101.911 113.538 101.911 112.968C101.909 112.396 101.914 111.804 101.968 111.246C101.994 110.965 102.028 110.688 102.071 110.419C102.108 110.144 102.145 109.869 102.197 109.606C102.291 109.071 102.442 108.593 102.579 108.11C102.722 107.635 102.899 107.2 103.098 106.811C103.281 106.407 103.486 106.044 103.715 105.735C103.7 106.147 103.683 106.579 103.666 107.028C103.64 107.48 103.592 107.941 103.561 108.433C103.543 108.679 103.526 108.928 103.509 109.183C103.486 109.432 103.464 109.686 103.441 109.941C103.395 110.453 103.352 110.982 103.318 111.523C103.267 112.047 103.221 112.585 103.181 113.123C103.161 113.394 103.141 113.663 103.121 113.935C103.095 114.198 103.07 114.465 103.044 114.725C102.996 115.254 102.944 115.778 102.899 116.281C102.844 116.788 102.77 117.263 102.705 117.729Z" fill="#D8E29F"/>
<path d="M100.462 119.423C100.208 118.794 100.025 118.021 99.9397 117.206C99.8969 116.796 99.8798 116.379 99.8855 115.958C99.8826 115.529 99.9054 115.097 99.9511 114.679C99.9996 114.261 100.074 113.855 100.168 113.472C100.254 113.074 100.359 112.696 100.488 112.35C100.753 111.666 101.064 111.054 101.421 110.602C101.312 111.824 101.081 113.314 100.918 114.888C100.821 115.661 100.761 116.47 100.69 117.24C100.61 118.01 100.533 118.753 100.462 119.423Z" fill="#D8E29F"/>
<path d="M107.133 112.951C106.91 112.01 106.719 110.874 106.668 109.732C106.639 109.16 106.605 108.553 106.619 107.967C106.622 107.672 106.636 107.38 106.654 107.088C106.662 106.791 106.676 106.496 106.699 106.204C106.745 105.621 106.83 105.063 106.902 104.502C106.976 103.944 107.113 103.426 107.221 102.911C107.335 102.399 107.487 101.924 107.655 101.48C107.803 101.028 107.977 100.613 108.177 100.244C108.451 101.978 108.423 104.17 108.254 106.45C108.089 108.731 107.698 111.057 107.133 112.951Z" fill="#D8E29F"/>
<path d="M109.35 109.669C108.976 108.053 108.893 105.927 109.153 103.961C109.416 101.984 109.946 100.124 110.737 98.8367C110.862 100.347 110.797 102.27 110.531 104.196L110.44 104.925C110.406 105.169 110.36 105.406 110.32 105.646C110.235 106.13 110.146 106.608 110.063 107.074C109.955 107.535 109.844 107.987 109.729 108.425C109.67 108.645 109.61 108.859 109.553 109.068C109.484 109.274 109.416 109.475 109.35 109.669Z" fill="#D8E29F"/>
<path d="M111.55 106.553C111.459 106.187 111.399 105.798 111.347 105.383C111.29 104.965 111.259 104.53 111.25 104.087C111.253 103.209 111.273 102.264 111.447 101.369C111.519 100.917 111.598 100.465 111.718 100.036C111.775 99.8209 111.841 99.6092 111.912 99.4003C111.975 99.1915 112.038 98.9855 112.112 98.7852C112.255 98.3846 112.423 98.0069 112.608 97.655C112.78 97.3002 112.962 96.9712 113.165 96.6765C113.176 97.0312 113.179 97.4089 113.173 97.8038C113.151 98.1929 113.119 98.5992 113.085 99.0169C113.036 99.861 112.871 100.719 112.76 101.609C112.452 103.357 112.095 105.148 111.55 106.553Z" fill="#D8E29F"/>
<path d="M116.101 94.4047C115.442 95.7494 114.868 97.5205 114.261 99.283C113.995 100.176 113.676 101.051 113.456 101.912C113.196 102.757 112.999 103.575 112.857 104.304C113.339 103.738 113.798 103.02 114.238 102.233C114.637 101.426 115.057 100.556 115.331 99.6378C115.955 97.8209 116.181 95.8839 116.101 94.4047Z" fill="#D8E29F"/>
<path d="M114.024 101.712C112.474 104.808 110.18 108.668 107.361 112.13C105.952 113.858 104.431 115.492 102.916 116.957C101.401 118.424 99.8655 119.672 98.5273 120.771C100.045 119.949 101.754 118.885 103.409 117.517C105.061 116.153 106.688 114.53 108.132 112.759C111.025 109.211 113.096 105.048 114.024 101.712Z" fill="#B0C98F"/>
<path d="M64.5641 110.253C68.6957 112.301 71.977 115 73.9116 117.414C75.8604 119.835 76.4996 121.927 75.6749 122.974C74.8389 124.041 72.7446 123.912 70.0139 123.1C67.2776 122.278 63.8821 120.799 60.2413 118.994C56.6004 117.194 54.0324 115.649 52.4488 114.153C52.0522 113.784 51.7212 113.412 51.4502 113.045C51.1762 112.685 50.9679 112.327 50.8196 111.972C50.5228 111.266 50.4772 110.576 50.674 109.932C50.8709 109.289 51.2961 108.751 51.9666 108.353C52.3033 108.156 52.6999 107.99 53.1622 107.867C53.6215 107.749 54.1408 107.675 54.7286 107.643C57.0598 107.529 60.4296 108.207 64.5641 110.253Z" fill="#547374"/>
<path d="M50.9765 110.027C54.5803 111.469 59.2255 113.452 63.6852 115.809C68.1593 118.141 72.4307 120.836 75.6749 122.974C74.2426 121.66 72.4963 120.241 70.5304 118.865C68.5673 117.486 66.3845 116.153 64.1247 114.968C59.6107 112.582 54.7657 110.862 50.9765 110.027Z" fill="#6D9B7C"/>
<path d="M104.99 102.027C102.425 103.286 100.214 104.794 98.3276 106.485C96.4415 108.178 94.8836 110.055 93.6396 112.124C92.3898 114.19 91.4482 116.442 90.8233 118.902C90.2013 121.36 89.8903 124.024 89.9645 126.888C92.8121 126.816 95.577 125.961 97.9994 124.476C100.422 122.994 102.496 120.882 103.989 118.416C105.481 115.947 106.385 113.128 106.577 110.287C106.765 107.443 106.243 104.591 104.99 102.027Z" fill="#6D9B7C"/>
<path d="M102.727 118.43C102.787 118.39 102.807 118.31 102.773 118.25C102.739 118.19 102.662 118.176 102.602 118.216C102.128 118.53 101.632 118.796 101.121 119.002C100.602 119.203 100.071 119.349 99.5374 119.44C98.4759 119.623 97.3717 119.557 96.3388 119.277L96.9437 118.413L97.5258 117.535C97.9195 116.954 98.2848 116.353 98.6585 115.758C99.817 115.826 100.967 115.626 102.077 115.211C103.167 114.785 104.214 114.133 105.073 113.269C105.124 113.217 105.127 113.137 105.081 113.085C105.036 113.034 104.956 113.034 104.904 113.085C104.086 113.907 103.095 114.53 102.06 114.948C101.004 115.354 99.9054 115.555 98.8069 115.517C99.991 113.566 101.081 111.558 102.068 109.5C102.071 109.5 102.074 109.503 102.077 109.5C102.776 109.392 103.455 109.154 104.071 108.799C104.693 108.45 105.267 107.99 105.735 107.432C105.78 107.377 105.778 107.297 105.726 107.251C105.675 107.206 105.598 107.211 105.552 107.266C105.332 107.52 105.099 107.758 104.845 107.97C104.585 108.181 104.314 108.37 104.029 108.536C103.458 108.865 102.85 109.103 102.205 109.223C102.941 107.649 103.643 106.055 104.257 104.425C104.282 104.362 104.251 104.29 104.185 104.264C104.123 104.241 104.051 104.273 104.026 104.336C103.318 106.196 102.525 108.024 101.649 109.809C101.344 109.231 101.132 108.622 100.998 107.993C100.861 107.363 100.819 106.725 100.87 106.098C100.876 106.033 100.824 105.972 100.756 105.967C100.687 105.961 100.63 106.01 100.627 106.075C100.567 106.751 100.622 107.443 100.776 108.124C100.918 108.796 101.164 109.46 101.509 110.078C101.509 110.081 101.512 110.081 101.515 110.084C100.713 111.686 99.8741 113.274 98.9467 114.808C97.8596 112.894 97.4002 110.671 97.6285 108.611C97.637 108.548 97.5885 108.487 97.5201 108.476C97.4544 108.465 97.3917 108.508 97.386 108.573C97.1548 110.728 97.6342 113.051 98.8041 115.051C97.8881 116.55 96.9408 118.03 95.9193 119.454C94.701 117.675 94.1474 115.532 94.2929 113.503C94.2986 113.44 94.2473 113.38 94.1817 113.372C94.116 113.363 94.059 113.406 94.0533 113.472C93.9848 114.533 94.0761 115.603 94.3757 116.668C94.6553 117.718 95.1233 118.745 95.7681 119.669L94.5412 121.329C94.1132 121.866 93.6994 122.419 93.2629 122.948C92.4782 121.878 92.0074 120.567 91.9561 119.283C91.9532 119.217 91.8961 119.163 91.8305 119.163C91.7649 119.163 91.7107 119.214 91.7135 119.28C91.7763 120.639 92.2642 122.018 93.1031 123.145C92.3641 124.052 91.5965 124.937 90.809 125.801C90.7634 125.849 90.7662 125.929 90.8176 125.975C90.8689 126.021 90.946 126.018 90.9916 125.967C91.4881 125.437 91.9504 124.882 92.4297 124.339C92.8948 123.783 93.3599 123.228 93.8136 122.665C95.0805 123.254 96.567 123.406 97.9623 123.002C98.0308 122.982 98.0708 122.914 98.0565 122.845C98.0422 122.776 97.9737 122.739 97.9053 122.756C96.5899 123.143 95.1803 123.005 93.9734 122.462C94.7438 121.492 95.4856 120.502 96.2018 119.492C98.3333 120.115 100.756 119.772 102.727 118.43Z" fill="#B0C98F"/>
<path d="M76.782 109.045C78.494 110.865 79.8922 112.814 80.9593 114.699C82.0322 116.585 82.7797 118.407 83.202 120.021C84.058 123.257 83.69 125.56 82.4316 126.17C81.1419 126.796 79.2302 125.709 76.9932 123.792C75.8775 122.828 74.6563 121.658 73.3637 120.353C72.074 119.045 70.7158 117.6 69.2892 116.084C67.8654 114.565 66.647 113.24 65.6626 112.024C64.6611 110.828 63.8964 109.741 63.3457 108.756C63.0689 108.267 62.8578 107.792 62.7008 107.346C62.5382 106.905 62.4383 106.482 62.3955 106.081C62.3128 105.28 62.464 104.565 62.8521 103.97C63.2401 103.375 63.8279 102.957 64.6297 102.756C65.032 102.656 65.4857 102.613 65.9964 102.631C66.5015 102.656 67.055 102.748 67.6656 102.905C68.884 103.223 70.285 103.855 71.8429 104.842C73.3866 105.852 75.0757 107.22 76.782 109.045Z" fill="#6D9B7C"/>
<path d="M63.1288 104.161C66.3617 106.679 70.3678 110.204 73.8574 114.216C75.6065 116.213 77.2414 118.313 78.6824 120.361C80.1262 122.41 81.3759 124.407 82.4317 126.17C81.6755 124.261 80.6341 122.118 79.3101 119.949C77.989 117.781 76.3911 115.589 74.6078 113.555C71.0583 109.466 66.7269 106.118 63.1288 104.161Z" fill="#B0C98F"/>
<path d="M74.5707 109.915C74.9987 108.92 75.3325 107.732 75.538 106.465C75.6521 105.827 75.7291 105.168 75.7691 104.516C75.8062 103.864 75.8404 103.189 75.8147 102.542C75.7834 101.898 75.7491 101.246 75.6635 100.628C75.5694 100.015 75.4695 99.4117 75.3297 98.8481C75.2612 98.5648 75.1756 98.2959 75.09 98.0298C75.0101 97.7637 74.9216 97.5062 74.8275 97.2601C74.6335 96.7709 74.408 96.3245 74.1855 95.9182C74.1712 96.1586 74.157 96.4075 74.1512 96.6621C74.1484 96.9139 74.1484 97.1743 74.1455 97.4375C74.1484 97.9668 74.1313 98.5334 74.1512 99.0999C74.1627 99.675 74.1712 100.267 74.1826 100.871C74.2055 101.469 74.2226 102.084 74.2311 102.711C74.2768 103.944 74.2911 105.22 74.351 106.436C74.3852 107.669 74.4737 108.831 74.5707 109.915Z" fill="#D8E29F"/>
<path d="M76.511 112.281C76.9476 111.443 77.2928 110.427 77.5411 109.3C77.6638 108.739 77.7522 108.161 77.8064 107.583C77.8606 107.003 77.9006 106.402 77.892 105.827C77.8892 105.538 77.8749 105.251 77.8521 104.968C77.835 104.682 77.8121 104.399 77.7779 104.121C77.7151 103.563 77.5953 103.048 77.4783 102.542C77.3556 102.038 77.1987 101.572 77.0132 101.146C76.842 100.711 76.6451 100.319 76.4254 99.9754C76.4254 100.402 76.4254 100.851 76.4254 101.317C76.4368 101.787 76.4482 102.273 76.4625 102.777C76.4682 103.798 76.5224 104.848 76.5082 105.955C76.5167 106.496 76.5196 107.045 76.5139 107.595C76.511 107.869 76.5053 108.147 76.5025 108.419C76.5025 108.688 76.5025 108.957 76.5025 109.226C76.4968 109.764 76.4939 110.293 76.4882 110.805C76.4825 111.32 76.4968 111.806 76.511 112.281Z" fill="#D8E29F"/>
<path d="M78.5283 114.256C78.865 113.663 79.1532 112.919 79.3386 112.113C79.4328 111.709 79.5013 111.289 79.5469 110.865C79.5983 110.433 79.624 109.998 79.6211 109.569C79.6182 109.14 79.584 108.719 79.5269 108.313C79.4784 107.898 79.4042 107.5 79.3044 107.131C79.0961 106.396 78.825 105.735 78.4969 105.229C78.5169 106.49 78.6224 108.041 78.6224 109.649C78.6367 110.445 78.6053 111.263 78.5853 112.044C78.5654 112.825 78.5454 113.578 78.5283 114.256Z" fill="#D8E29F"/>
<path d="M72.5477 107.057C72.8502 106.13 73.1155 105.003 73.2382 103.847C73.301 103.266 73.3638 102.656 73.3809 102.058C73.3923 101.758 73.3923 101.458 73.3895 101.157C73.3923 100.854 73.3895 100.551 73.3752 100.25C73.3124 99.057 73.1726 97.8839 72.9244 96.8281C72.8131 96.293 72.6647 95.7952 72.4964 95.326C72.3451 94.8539 72.1654 94.4161 71.9628 94.0241C71.7003 95.8238 71.7031 98.0813 71.7916 100.41C71.8858 102.739 72.1283 105.111 72.5477 107.057Z" fill="#D8E29F"/>
<path d="M70.5447 103.606C71.0155 102.004 71.1838 99.8524 70.9584 97.8266C70.7359 95.7952 70.1795 93.861 69.3663 92.5334C69.2578 94.0928 69.3377 96.0556 69.5603 98.0212C69.6487 99.0169 69.8085 99.9926 69.9484 100.954C70.0368 101.423 70.1281 101.887 70.2223 102.333C70.2736 102.556 70.3221 102.777 70.3678 102.991C70.4306 103.2 70.4876 103.406 70.5447 103.606Z" fill="#D8E29F"/>
<path d="M68.4703 100.37C68.5759 100.007 68.6501 99.6149 68.71 99.1972C68.7756 98.7794 68.8184 98.3388 68.8355 97.8896C68.8526 96.9969 68.8355 96.0412 68.6643 95.1228C68.399 93.2659 67.6856 91.532 66.861 90.3417C66.861 90.7051 66.8696 91.0914 66.8867 91.4891C66.9181 91.8868 66.9552 92.2988 66.998 92.7223C67.0665 93.5778 67.2263 94.4533 67.3432 95.3517C67.6485 97.1285 67.9767 98.9368 68.4703 100.37Z" fill="#D8E29F"/>
<path d="M74.5393 109.944C73.5007 110.158 72.2424 110.207 70.8985 109.987C70.2365 109.872 69.5488 109.695 68.8583 109.455C68.165 109.217 67.5001 108.894 66.8296 108.528C66.1562 108.164 65.5399 107.718 64.9436 107.237C64.3386 106.762 63.8022 106.227 63.3114 105.675C63.0661 105.397 62.8264 105.117 62.6124 104.831C62.4012 104.542 62.2044 104.247 62.0217 103.955C61.6537 103.372 61.3455 102.794 61.1258 102.224C61.3484 102.422 61.5738 102.628 61.8049 102.837C62.0446 103.04 62.2871 103.246 62.5353 103.457C63.0375 103.875 63.5312 104.31 64.0876 104.716C64.6354 105.128 65.1889 105.538 65.7653 105.927C66.3502 106.31 66.9466 106.679 67.5401 107.028C68.7585 107.706 69.9768 108.301 71.1838 108.768C72.3565 109.26 73.5321 109.609 74.5393 109.944Z" fill="#D8E29F"/>
<path d="M76.6194 112.178C75.7605 112.545 74.6706 112.808 73.4978 112.825C72.9101 112.839 72.2909 112.796 71.6603 112.702C71.0297 112.605 70.4105 112.436 69.7828 112.218C69.4718 112.11 69.1608 111.987 68.8555 111.849C68.5559 111.709 68.262 111.555 67.9738 111.389C67.4031 111.057 66.8325 110.693 66.3417 110.276C65.8452 109.864 65.3915 109.42 64.9892 108.971C64.6012 108.51 64.2673 108.041 63.9905 107.586C64.4271 107.864 64.8865 108.156 65.3658 108.462C65.8452 108.756 66.3617 109.043 66.8781 109.323C67.9025 109.895 69.0495 110.382 70.1623 110.808C70.7358 111.005 71.3093 111.183 71.8714 111.34C72.1539 111.417 72.4336 111.492 72.7103 111.56C72.9928 111.623 73.2724 111.681 73.5464 111.735C74.097 111.841 74.6306 111.93 75.1414 112.007C75.6493 112.078 76.1543 112.124 76.6194 112.178Z" fill="#D8E29F"/>
<path d="M78.5283 114.259C77.9491 114.61 77.2129 114.902 76.3769 115.06C75.9603 115.14 75.5152 115.186 75.0615 115.194C74.6135 115.197 74.1513 115.16 73.6919 115.085C73.2297 115.011 72.7674 114.897 72.3166 114.748C71.8772 114.59 71.4492 114.402 71.0469 114.184C70.2308 113.761 69.5574 113.203 69.0467 112.645C70.4106 113.18 72.0941 113.752 73.7889 114.03C74.6449 114.167 75.481 114.247 76.2827 114.276C77.0931 114.299 77.8521 114.281 78.5283 114.259Z" fill="#D8E29F"/>
<path d="M72.308 107.229C71.3037 107.237 70.1909 107.028 69.0039 106.628C68.4104 106.427 67.834 106.156 67.2434 105.847C66.9495 105.689 66.6556 105.523 66.3674 105.343C66.0849 105.16 65.8081 104.962 65.5314 104.756C64.4214 103.941 63.437 102.931 62.6352 101.864C62.2443 101.326 61.8905 100.779 61.5909 100.236C61.3056 99.6864 61.0688 99.1428 60.8804 98.6249C62.4669 100.09 64.3986 101.872 66.433 103.4C68.4532 104.951 70.6189 106.196 72.308 107.229Z" fill="#D8E29F"/>
<path d="M69.897 104.004C68.2392 103.701 66.2304 102.599 64.6354 100.931C63.0233 99.2802 61.9533 97.0913 61.6223 95.3203C62.8093 96.6736 64.1447 98.376 65.6398 99.9068C66.356 100.691 67.1464 101.409 67.854 102.104C68.2221 102.445 68.5816 102.774 68.924 103.091C69.0923 103.252 69.2578 103.409 69.4176 103.561C69.5803 103.712 69.7429 103.858 69.897 104.004Z" fill="#D8E29F"/>
<path d="M68.1964 100.513C67.8397 100.387 67.4631 100.219 67.0893 100.004C66.7212 99.7866 66.3503 99.5291 65.9822 99.2344C65.2318 98.6507 64.5669 97.8925 63.9734 97.0513C62.8321 95.3517 62.1844 93.2974 62.25 91.7123C62.4583 92.0499 62.6666 92.4075 62.8835 92.7795C63.1089 93.1486 63.34 93.5291 63.5768 93.9183C64.0277 94.7022 64.5641 95.4919 65.0748 96.2788C66.142 97.8295 67.2862 99.2887 68.1964 100.513Z" fill="#D8E29F"/>
<path d="M63.7566 88.1644C63.7395 89.6579 64.0362 91.5835 64.6811 93.4004C64.975 94.316 65.3859 95.1915 65.791 96.0012C66.2276 96.7995 66.6813 97.5205 67.1549 98.1042C67.0237 97.366 66.8354 96.5391 66.5786 95.6836C66.356 94.8167 66.0393 93.9297 65.754 93.0313C65.1205 91.2573 64.4757 89.4891 63.7566 88.1644Z" fill="#D8E29F"/>
<path d="M66.0735 95.4547C67.0065 98.8109 68.9382 103.023 71.5604 106.788C72.8701 108.668 74.3367 110.439 75.829 111.987C77.3213 113.538 78.8707 114.836 80.2603 115.878C79.0932 114.585 77.7379 113.123 76.3883 111.483C75.0387 109.844 73.6691 108.058 72.3822 106.213C69.8114 102.522 67.6286 98.5677 66.0735 95.4547Z" fill="#B0C98F"/>
<path d="M80.4942 90.7595C78.7994 94.3675 77.7379 97.9697 77.2215 101.495C76.705 105.023 76.7364 108.476 77.2928 111.844C77.8435 115.211 78.9163 118.493 80.5342 121.669C82.152 124.842 84.3091 127.912 87.0655 130.785C89.9245 128.027 91.9846 124.587 93.1431 120.831C94.3044 117.077 94.5612 113.017 93.9192 109.1C93.2743 105.183 91.7364 101.42 89.4366 98.2358C87.1339 95.0484 84.0837 92.4533 80.4942 90.7595Z" fill="#B0C98F"/>
<path d="M92.6009 110.25C92.6295 110.156 92.5752 110.053 92.4868 110.021C92.3955 109.99 92.3013 110.044 92.2728 110.141C92.0559 110.899 91.7735 111.623 91.4196 112.301C91.0544 112.982 90.6293 113.618 90.1471 114.196C89.194 115.354 87.9785 116.296 86.6403 116.951L86.4862 115.492L86.2979 114.035C86.1809 113.063 86.0268 112.095 85.8785 111.128C87.1625 110.147 88.2039 108.9 89.0086 107.46C89.7847 106.027 90.3125 104.405 90.4638 102.728C90.4723 102.628 90.4039 102.539 90.3097 102.525C90.2155 102.513 90.1299 102.582 90.1214 102.682C89.9759 104.279 89.4794 105.824 88.7546 107.194C88.0014 108.573 87.0141 109.778 85.8185 110.736C85.3107 107.598 84.6687 104.482 83.8983 101.397C83.9011 101.395 83.904 101.395 83.9068 101.392C84.2292 101.023 84.5231 100.622 84.7799 100.199C85.031 99.778 85.245 99.3316 85.4248 98.871C85.7843 97.944 85.9926 96.9483 86.0097 95.9383C86.0126 95.841 85.9384 95.758 85.8414 95.7551C85.7472 95.7523 85.6673 95.8267 85.6645 95.924C85.6531 96.3903 85.6045 96.851 85.5218 97.303C85.4305 97.758 85.3021 98.2015 85.1423 98.6307C84.8199 99.489 84.3776 100.284 83.7927 100.985C83.1878 98.6421 82.5372 96.3074 81.7754 94.0069C81.7468 93.9154 81.6498 93.8667 81.5614 93.8954C81.4701 93.924 81.4216 94.0213 81.4501 94.1128C81.8867 95.429 82.2719 96.7594 82.6656 98.087C83.0308 99.4232 83.3989 100.759 83.7185 102.11C82.8796 101.764 82.1092 101.297 81.4101 100.742C80.7054 100.187 80.0976 99.5377 79.5983 98.8109C79.5441 98.7365 79.4385 98.7165 79.3615 98.7708C79.2844 98.8223 79.2644 98.9282 79.3158 99.0026C79.8522 99.7866 80.5199 100.488 81.2875 101.083C82.0379 101.681 82.891 102.17 83.8098 102.525C83.8127 102.525 83.8184 102.525 83.8212 102.525C84.3919 104.957 84.9169 107.4 85.3221 109.867C82.4459 108.825 79.955 106.865 78.3571 104.433C78.3086 104.356 78.203 104.336 78.1231 104.385C78.0432 104.433 78.0175 104.536 78.066 104.611C79.7467 107.148 82.3489 109.2 85.3905 110.256C85.7786 112.671 86.121 115.094 86.355 117.532C84.8998 117.163 83.5444 116.533 82.3346 115.715C81.1134 114.897 80.0776 113.884 79.2245 112.731C79.1731 112.656 79.0647 112.642 78.9877 112.691C78.9106 112.742 78.8878 112.842 78.942 112.917C79.8294 114.118 80.9051 115.171 82.1891 116.021C83.4417 116.874 84.8712 117.523 86.3921 117.898L86.6318 120.765C86.686 121.723 86.7601 122.679 86.7944 123.638C84.9882 123.257 83.2905 122.327 82.0493 121.025C81.9865 120.959 81.8781 120.957 81.8068 121.017C81.7354 121.08 81.7326 121.183 81.7953 121.248C83.1136 122.622 84.8969 123.603 86.8087 123.992C86.88 125.623 86.9085 127.254 86.9057 128.885C86.9057 128.979 86.9799 129.057 87.0769 129.057C87.171 129.057 87.2481 128.979 87.2481 128.885C87.2623 127.875 87.2252 126.868 87.2167 125.858C87.1824 124.851 87.1511 123.841 87.0997 122.834C88.9658 122.27 90.6435 121.054 91.7335 119.357C91.7849 119.274 91.7649 119.163 91.6879 119.108C91.608 119.054 91.5024 119.074 91.451 119.154C90.4267 120.759 88.8374 121.921 87.0797 122.476C86.9856 120.753 86.8514 119.034 86.6774 117.32C89.4993 115.992 91.7221 113.426 92.6009 110.25Z" fill="#D8E29F"/>
</g>
<path d="M173.487 76.8712C171.584 73.6409 167.101 72.6767 163.555 73.8755C160.008 75.0715 157.283 77.9442 155.092 80.9827C147.057 92.1386 144.58 107.103 148.481 120.284H153.948C153.762 114.522 156.344 108.857 159.663 104.067C163.332 98.768 167.935 94.1586 171.473 88.7709C172.637 86.997 173.695 85.1115 174.189 83.0457C174.686 80.9799 174.566 78.6995 173.487 76.8712Z" fill="#B0C98F"/>
<path d="M153.813 94.6107C157.046 87.5435 162.633 81.9355 167.138 77.8383C167.255 77.7324 167.264 77.5522 167.158 77.4349C167.053 77.3176 166.873 77.309 166.756 77.4148C162.211 81.5493 156.573 87.2116 153.297 94.3732C150.078 101.412 149.068 110.121 150.287 120.287H150.863C149.642 110.198 150.632 101.566 153.813 94.6107Z" fill="#D8E29F"/>
<path d="M158.339 120.084C158.285 117.572 160.162 115.206 162.159 113.686C164.157 112.167 166.485 111.131 168.471 109.598C170.457 108.064 172.143 105.798 172.032 103.289C171.915 100.685 169.741 98.4361 167.21 97.8409C164.679 97.2458 161.948 98.1271 159.931 99.7694C157.914 101.412 156.541 103.738 155.622 106.176C154.027 110.402 153.736 115.675 154.715 120.084H158.339Z" fill="#6D9B7C"/>
<path d="M156.073 113.532C156.099 113.389 156.133 113.251 156.162 113.111C156.162 113.08 156.167 113.051 156.182 113.022C156.276 112.57 156.381 112.13 156.498 111.698C156.159 110.419 156.159 107.646 156.159 107.526C156.159 107.415 156.247 107.326 156.359 107.326C156.467 107.326 156.558 107.415 156.558 107.526C156.558 107.549 156.558 109.515 156.747 110.877C157.255 109.309 157.936 107.889 158.79 106.642C158.79 106.639 158.792 106.639 158.792 106.636C158.952 106.405 159.115 106.173 159.286 105.952C159.377 105.835 159.472 105.721 159.563 105.609C159.557 104.456 160.076 101.95 160.099 101.841C160.122 101.732 160.228 101.664 160.333 101.686C160.442 101.709 160.51 101.815 160.487 101.921C160.482 101.944 160.076 103.892 159.979 105.123C161.697 103.24 163.851 101.97 166.14 101.512C166.248 101.489 166.351 101.561 166.374 101.669C166.397 101.778 166.325 101.881 166.217 101.904C163.7 102.407 161.349 103.932 159.597 106.196C159.56 106.244 159.526 106.296 159.489 106.344C162.482 105.397 164.568 105.366 166.585 105.337L166.773 105.334H166.776C166.885 105.334 166.973 105.42 166.976 105.532C166.979 105.643 166.89 105.732 166.779 105.735L166.591 105.738C164.488 105.769 162.311 105.801 159.092 106.897C157.991 108.519 157.177 110.43 156.672 112.602C158.647 111.206 162.439 110.582 162.61 110.553C162.719 110.536 162.821 110.61 162.838 110.719C162.856 110.828 162.781 110.931 162.673 110.948C162.63 110.954 158.267 111.672 156.544 113.208C156.518 113.34 156.487 113.472 156.461 113.606C156.113 115.509 155.979 117.626 156.053 120.081C156.056 120.193 155.971 120.284 155.859 120.287C155.856 120.287 155.856 120.287 155.854 120.287C155.748 120.287 155.659 120.201 155.654 120.095C155.582 117.609 155.719 115.463 156.073 113.532Z" fill="#B0C98F"/>
<path d="M22.0522 120.061C22.7313 116.267 22.1578 112.084 20.1519 108.797C18.1574 105.529 15.0701 103.1 11.9857 100.84C8.90121 98.5791 5.70548 96.3617 3.34292 93.3489C0.983214 90.336 -0.449161 86.3189 0.575186 82.628C1.70796 78.5422 5.78252 75.6609 9.99975 75.3004C14.2141 74.9428 18.4171 76.8168 21.5158 79.7095C26.5377 84.399 28.8004 91.4719 29.06 98.3503C29.3197 105.226 27.5164 113.352 25.9984 120.061H22.0522Z" fill="#B0C98F"/>
<path d="M22.5402 98.067C22.5373 98.0556 22.5316 98.0413 22.5259 98.0298C22.4317 97.758 22.3376 97.4862 22.2377 97.2201C22.1293 96.934 22.0209 96.6507 21.9067 96.3675C22.6714 93.2545 23.4219 87.3232 23.4304 87.2631C23.4504 87.1057 23.3391 86.9627 23.1822 86.9427C23.0281 86.9255 22.8826 87.0342 22.8626 87.1916C22.8569 87.2459 22.2206 92.2731 21.5272 95.469C20.2889 92.6307 18.7053 90.0242 16.8592 87.7323C17.1388 84.3533 16.4455 80.2102 16.4369 80.1702C16.4112 80.0157 16.2628 79.9098 16.1088 79.9356C15.9547 79.9613 15.8491 80.1101 15.8748 80.2646C15.8805 80.3047 16.4854 83.9126 16.3285 87.0914C15.7635 86.4276 15.1757 85.7896 14.5651 85.1859C14.5423 85.1515 14.5137 85.1229 14.4767 85.1C11.6376 82.3018 8.35055 80.1702 4.82383 78.9313C4.67545 78.8769 4.51281 78.957 4.46145 79.1058C4.41009 79.2546 4.48713 79.4177 4.63551 79.4692C7.77417 80.5736 10.7188 82.4019 13.3211 84.7882C9.94271 84.0843 5.1434 84.2617 4.92084 84.2703C4.76391 84.276 4.64122 84.4105 4.64692 84.5679C4.65263 84.7252 4.78674 84.854 4.94367 84.8425C5.00359 84.8397 10.9157 84.6222 14.1628 85.5864C17.3214 88.7252 19.9123 92.7137 21.6328 97.2373C18.7567 95.0055 14.2512 93.6121 11.358 93.5692C11.1982 93.5778 11.0698 93.6922 11.0698 93.8525C11.0669 94.0098 11.1925 94.1414 11.3523 94.1414C14.4281 94.1844 19.43 95.8696 22.0237 98.3131C24.178 104.525 24.9141 111.643 24.2693 120.038C24.2579 120.196 24.3749 120.333 24.5318 120.344C24.5404 120.344 24.5461 120.344 24.5546 120.344C24.703 120.344 24.8285 120.23 24.84 120.081C25.4905 111.58 24.7372 104.37 22.5402 98.067Z" fill="#D8E29F"/>
<path d="M19.8523 120.035C19.8979 117.881 18.2887 115.852 16.5767 114.548C14.8647 113.246 12.8673 112.356 11.1639 111.04C9.46044 109.724 8.0138 107.781 8.11081 105.629C8.21068 103.397 10.0739 101.469 12.2453 100.957C14.4167 100.445 16.7564 101.203 18.4884 102.611C20.2204 104.018 21.3959 106.015 22.1835 108.104C23.5502 111.726 23.8013 116.25 22.9596 120.032H19.8523V120.035Z" fill="#547374"/>
<path d="M21.7954 114.416C21.7726 114.293 21.7441 114.176 21.7212 114.055C21.7212 114.03 21.7155 114.004 21.7041 113.978C21.6242 113.592 21.5329 113.211 21.4302 112.842C21.7212 111.746 21.7212 109.366 21.7212 109.266C21.7212 109.171 21.6442 109.094 21.55 109.094C21.4559 109.094 21.3788 109.171 21.3788 109.266C21.3788 109.286 21.3788 110.971 21.2162 112.138C20.7796 110.794 20.1975 109.578 19.4642 108.505C19.4642 108.502 19.4614 108.502 19.4614 108.502C19.3244 108.302 19.1846 108.104 19.0391 107.915C18.9621 107.815 18.8822 107.718 18.7994 107.621C18.8051 106.631 18.3571 104.482 18.34 104.39C18.3201 104.299 18.2287 104.239 18.1374 104.259C18.0461 104.279 17.9862 104.367 18.0062 104.462C18.009 104.482 18.3571 106.153 18.4427 107.209C16.9704 105.592 15.1215 104.505 13.1584 104.113C13.0671 104.093 12.9758 104.153 12.9586 104.247C12.9415 104.339 13.0014 104.43 13.0927 104.447C15.2499 104.88 17.2672 106.187 18.7709 108.127C18.8023 108.167 18.8308 108.213 18.8622 108.256C16.2942 107.443 14.508 107.417 12.776 107.392L12.6134 107.389H12.6105C12.5164 107.389 12.4422 107.463 12.4393 107.558C12.4393 107.652 12.5135 107.729 12.6077 107.732L12.7703 107.735C14.5736 107.761 16.4397 107.789 19.2017 108.731C20.1462 110.121 20.8424 111.761 21.2761 113.623C19.5812 112.427 16.3313 111.889 16.1829 111.867C16.0887 111.852 16.0031 111.915 15.9889 112.01C15.9746 112.104 16.0374 112.19 16.1315 112.204C16.1686 112.21 19.9094 112.825 21.3874 114.144C21.4102 114.259 21.4387 114.37 21.4587 114.485C21.7583 116.115 21.8725 117.932 21.8097 120.035C21.8068 120.13 21.881 120.21 21.9752 120.213C21.978 120.213 21.978 120.213 21.9809 120.213C22.0722 120.213 22.1492 120.138 22.1521 120.047C22.2177 117.912 22.1007 116.073 21.7954 114.416Z" fill="#6D9B7C"/>
<path d="M167.658 121.334H10.3421C9.97405 121.334 9.67731 121.037 9.67731 120.668C9.67731 120.299 9.97405 120.001 10.3421 120.001H167.655C168.023 120.001 168.32 120.299 168.32 120.668C168.323 121.037 168.026 121.334 167.658 121.334Z" fill="#454F6B"/>
<path d="M112.295 27.6299C108.905 34.3537 103.232 32.7715 101.269 27.6299V35.069H112.295V27.6299Z" fill="#85BA09"/>
<path d="M114.977 31.0863L114.874 29.0691L112.337 32.4425L106.782 36.0361L101.227 32.4425L98.6899 29.0691L98.5872 31.0863C98.3218 36.2536 96.7268 41.2607 93.9534 45.624L93.8878 45.7299H106.782H119.676L119.611 45.624C116.837 41.2607 115.242 36.2507 114.977 31.0863Z" fill="#85BA09"/>
<path d="M96.4529 31.9103C96.6241 32.5884 97.2062 33.0433 97.9024 33.0433H115.659C116.355 33.0433 116.937 32.5884 117.108 31.9103C117.279 31.2322 116.983 30.5541 116.369 30.2222L107.079 25.175V23.3667C107.079 22.8717 106.676 22.4712 106.186 22.4712C105.39 22.4712 104.736 21.8474 104.688 21.0606C104.685 21.0291 104.685 20.0535 104.685 20.022C104.685 19.1922 105.358 18.517 106.186 18.517H106.602H108.066C107.686 18.145 107.17 17.9161 106.602 17.9161H106.186C105.027 17.9161 104.088 18.8603 104.088 20.022C104.088 20.0535 104.088 21.032 104.091 21.0635C104.14 22.1793 105.061 23.0749 106.188 23.0749C106.351 23.0749 106.485 23.2065 106.485 23.3725V25.1807L97.1948 30.2279C96.5784 30.5541 96.2817 31.2322 96.4529 31.9103ZM97.4744 30.7515L106.779 25.6957L116.084 30.7515C116.538 30.9976 116.606 31.4496 116.526 31.7644C116.446 32.0762 116.172 32.4425 115.656 32.4425H97.9024C97.3859 32.4425 97.112 32.0762 97.0321 31.7644C96.9551 31.4496 97.0236 30.9976 97.4744 30.7515Z" fill="#8D415F"/>
<path d="M119.676 45.727C112.686 41.006 112.78 36.8001 114.874 29.0662L112.295 27.6299L111.504 30.7257C111.005 32.6857 109.242 34.059 107.224 34.059H106.782H106.34C104.322 34.059 102.559 32.6885 102.06 30.7257L101.269 27.6299L98.6899 29.0662C100.781 36.7972 100.878 41.006 93.8877 45.727L94.5754 61.5952C94.7352 65.269 94.6125 68.9514 94.2102 72.608L93.8849 75.5551H106.779H119.673L119.348 72.608C118.946 68.9514 118.826 65.269 118.983 61.5952L119.676 45.727Z" fill="#D8E29F"/>
<path d="M110.856 42.9459C110.702 44.3365 110.072 45.6669 109.107 46.6769C108.945 46.8486 108.771 47.0117 108.591 47.1605C107.629 47.9588 106.462 48.4509 105.324 48.9573C104.185 49.4638 103.03 50.0074 102.134 50.8743C101.238 51.7441 100.63 53.0059 100.847 54.2362C101.05 55.375 102.122 56.3621 103.25 56.2963C104.659 51.8271 108.848 52.5195 109.775 47.7184C109.47 52.2935 105.706 52.2992 103.635 57.0374C103.121 58.2133 102.713 59.6754 102.485 61.5752C103.244 62.2219 104.117 62.3334 104.117 62.3334C103.872 61.1575 103.883 59.4866 104.248 58.0474C104.805 58.6511 105.612 59.0745 106.408 59.1661C107.863 59.3349 109.316 58.5567 110.254 57.4293C111.193 56.2992 111.684 54.8628 111.984 53.4237C112.705 49.9816 112.098 46.2392 110.856 42.9459Z" fill="#85BA09"/>
<path d="M109.222 38.7657L108.6 37.0318C108.548 36.8916 108.428 36.7829 108.283 36.7514L106.163 36.265C106.017 36.2307 105.863 36.2736 105.758 36.3795L104.445 37.6699C104.385 37.73 104.342 37.8044 104.325 37.8873L103.241 42.6369C103.187 42.8744 103.335 43.1119 103.572 43.1662L107.624 44.0961C107.861 44.1505 108.097 44.0017 108.152 43.7642L109.236 39.0146C109.256 38.9317 109.25 38.8458 109.222 38.7657ZM106.933 37.7843C106.691 37.73 106.539 37.4868 106.594 37.2436C106.648 37.0004 106.89 36.8487 107.133 36.9031C107.375 36.9574 107.527 37.2006 107.472 37.4438C107.418 37.6899 107.176 37.8415 106.933 37.7843Z" fill="white"/>
<path d="M107.104 39.0232L106.28 38.8344L106.571 39.7786L107.393 39.9674L107.104 39.0232Z" fill="#547374"/>
<path d="M106.2 39.9503L107.067 39.0146L106.245 38.8258L105.575 39.5497L105.324 39.3895L105.447 40.2392L106.448 40.1105L106.2 39.9503Z" fill="#6D9B7C"/>
<path d="M104.225 41.006L104.474 41.8129L105.144 41.089L104.896 40.2822L104.225 41.006Z" fill="#547374"/>
<path d="M105.478 41.3265L104.237 41.0404L104.485 41.8501L105.444 42.0704L105.432 42.368L106.103 41.8358L105.492 41.0318L105.478 41.3265Z" fill="#6D9B7C"/>
<path d="M107.375 42.5139L107.952 41.893L106.99 41.6727L106.417 42.2936L107.375 42.5139Z" fill="#547374"/>
<path d="M107.027 41.2636L107.401 42.4853L107.975 41.8673L107.686 40.9231L107.949 40.7857L107.156 40.4681L106.765 41.4009L107.027 41.2636Z" fill="#6D9B7C"/>
<path d="M107.027 37.2664C107.002 37.2808 106.973 37.2893 106.942 37.2922C106.585 37.3008 106.314 36.986 106.257 36.677C106.211 36.4281 106.268 36.1563 106.428 35.8444C106.474 35.7586 106.522 35.6756 106.568 35.5955C106.645 35.4639 106.719 35.338 106.771 35.2064C106.925 34.823 106.893 34.3595 106.688 34.0018C106.636 33.9131 106.668 33.8015 106.756 33.75C106.845 33.6985 106.956 33.73 107.007 33.8187C107.27 34.2793 107.31 34.8516 107.11 35.3437C107.047 35.5011 106.965 35.6441 106.882 35.7815C106.836 35.8616 106.79 35.936 106.751 36.0132C106.628 36.2479 106.585 36.4424 106.614 36.6084C106.642 36.7629 106.773 36.926 106.927 36.9231C107.027 36.9202 107.113 37.0004 107.116 37.1034C107.119 37.172 107.082 37.235 107.027 37.2664Z" fill="#85BA09"/>
<path d="M80.2288 27.6299C83.0593 28.4396 90.4666 28.3452 91.8276 27.6299L87.3336 44.4395V71.4549H84.7228V44.4395L80.2288 27.6299Z" fill="#495375"/>
<path d="M75.7006 31.9103C75.8718 32.5884 76.4539 33.0433 77.1501 33.0433H94.9064C95.6026 33.0433 96.1847 32.5884 96.3559 31.9103C96.5271 31.2322 96.2303 30.5541 95.6169 30.2222L86.3264 25.175V23.3667C86.3264 22.8717 85.9241 22.4712 85.4333 22.4712C84.6372 22.4712 83.9838 21.8474 83.9353 21.0606C83.9325 21.0291 83.9325 20.0535 83.9325 20.022C83.9325 19.1922 84.6058 18.517 85.4333 18.517H85.8499H87.3137C86.9342 18.145 86.4177 17.9161 85.8499 17.9161H85.4333C84.2749 17.9161 83.3333 18.8603 83.3333 20.022C83.3333 20.0535 83.3333 21.032 83.3361 21.0635C83.3846 22.1793 84.3062 23.0749 85.4333 23.0749C85.5959 23.0749 85.7301 23.2065 85.7301 23.3725V25.1807L76.4396 30.2279C75.8261 30.5541 75.5294 31.2322 75.7006 31.9103ZM76.7221 30.7515L86.0268 25.6957L95.3315 30.7515C95.7852 30.9976 95.8537 31.4496 95.7738 31.7644C95.6939 32.0762 95.42 32.4425 94.9035 32.4425H77.1472C76.6308 32.4425 76.3569 32.0762 76.277 31.7644C76.1999 31.4496 76.2684 30.9976 76.7221 30.7515Z" fill="#8D415F"/>
<path d="M84.7228 44.4395L80.2288 27.6299L72.9956 31.7987C72.2937 32.2021 71.8229 32.9146 71.7259 33.7186L67.3175 69.9757L73.3095 70.9142L76.0202 45.584L74.3082 73.0114L84.7228 73.3777V44.4395Z" fill="#797C99"/>
<path d="M80.2288 27.6299L77.7208 33.4925C77.4583 34.1077 77.775 34.8173 78.4056 35.029L80.2288 35.6413L78.5825 39.1176C78.3399 39.6298 78.5083 40.2421 78.9762 40.5568L84.7228 44.4366L80.2288 27.6299Z" fill="#99A3B0"/>
<path d="M72.7388 33.0433L76.0202 44.7513C75.0215 36.3566 74.117 33.7815 72.7388 33.0433Z" fill="#495375"/>
<path d="M67.3175 69.9757L71.8029 70.259C72.2509 70.2876 72.6447 69.9643 72.7046 69.5179L73.0641 66.8713C73.124 66.4393 72.8501 66.033 72.4278 65.9242L69.2663 65.1117L73.8688 65.6782L73.3095 70.9142L67.3175 69.9757Z" fill="#495375"/>
<path d="M69.2064 68.0415C69.55 68.0415 69.8285 67.7623 69.8285 67.4178C69.8285 67.0733 69.55 66.7941 69.2064 66.7941C68.8629 66.7941 68.5844 67.0733 68.5844 67.4178C68.5844 67.7623 68.8629 68.0415 69.2064 68.0415Z" fill="#99A3B0"/>
<path d="M87.3336 44.4395L91.8276 27.6299L99.0608 31.7987C99.7627 32.2021 100.234 32.9146 100.331 33.7186L104.739 69.9757L98.747 70.9142L96.0363 45.584L97.7483 73.0114L87.3336 73.3777V44.4395Z" fill="#797C99"/>
<path d="M91.8276 27.6299L94.3357 33.4925C94.5982 34.1077 94.2815 34.8173 93.6509 35.029L91.8276 35.6413L93.474 39.1176C93.7165 39.6298 93.5482 40.2421 93.0802 40.5568L87.3336 44.4366L91.8276 27.6299Z" fill="#99A3B0"/>
<path d="M99.3176 33.0433L96.0363 44.7513C97.0349 36.3566 97.9394 33.7815 99.3176 33.0433Z" fill="#495375"/>
<path d="M104.739 69.9757L100.253 70.259C99.8055 70.2876 99.4118 69.9643 99.3518 69.5179L98.9923 66.8713C98.9324 66.4393 99.2063 66.033 99.6286 65.9242L102.79 65.1117L98.1877 65.6782L98.7469 70.9142L104.739 69.9757Z" fill="#495375"/>
<path d="M102.228 67.4178C102.228 67.7611 102.508 68.0415 102.85 68.0415C103.192 68.0415 103.472 67.7611 103.472 67.4178C103.472 67.0744 103.192 66.7941 102.85 66.7941C102.508 66.7941 102.228 67.0716 102.228 67.4178Z" fill="#99A3B0"/>
<path d="M61.2884 27.8445C65.2745 30.5855 70.2907 29.0605 71.7772 27.8445L66.5328 47.3465L61.2884 27.8445Z" fill="#A08B7C"/>
<path d="M56.1752 31.9103C56.3464 32.5884 56.9285 33.0433 57.6247 33.0433H75.381C76.0772 33.0433 76.6593 32.5884 76.8305 31.9103C77.0017 31.2322 76.705 30.5541 76.0915 30.2222L66.8011 25.175V23.3667C66.8011 22.8717 66.3987 22.4712 65.908 22.4712C65.1119 22.4712 64.4585 21.8474 64.41 21.0606C64.4071 21.0291 64.4071 20.0535 64.4071 20.022C64.4071 19.1922 65.0805 18.517 65.908 18.517H66.3246H67.7883C67.4088 18.145 66.8924 17.9161 66.3246 17.9161H65.908C64.7495 17.9161 63.8108 18.8603 63.8108 20.022C63.8108 20.0535 63.8108 21.032 63.8136 21.0635C63.8621 22.1793 64.7838 23.0749 65.9108 23.0749C66.0735 23.0749 66.2076 23.2065 66.2076 23.3725V25.1807L56.9171 30.2279C56.3008 30.5541 56.004 31.2322 56.1752 31.9103ZM57.1967 30.7515L66.5015 25.6957L75.8062 30.7515C76.2599 30.9976 76.3283 31.4496 76.2484 31.7644C76.1686 32.0762 75.8946 32.4425 75.3782 32.4425H57.6219C57.1054 32.4425 56.8315 32.0762 56.7516 31.7644C56.6746 31.4496 56.7431 30.9976 57.1967 30.7515Z" fill="#8D415F"/>
<path d="M61.2884 27.8445L66.5328 47.3465V99.16C60.2812 99.16 55.285 100.304 52.3147 98.3016L54.0523 49.4809L52.3147 69.1832L46.3398 66.7397L51.9979 35.833C52.4745 33.235 54.1922 31.0405 56.5947 29.9589L61.2884 27.8445Z" fill="#BBA389"/>
<path d="M61.2884 27.8445L66.5328 47.3465L60.5751 42.0246C60.227 41.7128 60.1014 41.2178 60.2612 40.7772L61.802 36.5426L58.9144 34.6628C58.4208 34.3423 58.2524 33.6985 58.5235 33.1749L61.2884 27.8445Z" fill="#CABFAB"/>
<path d="M71.7773 27.8445L66.5328 47.3465V102.093C72.7845 102.093 77.7807 100.304 80.751 98.3016L79.0133 49.4838L80.751 69.186L86.7259 66.7426L81.0677 35.833C80.5912 33.235 78.8735 31.0405 76.471 29.9589L71.7773 27.8445Z" fill="#BBA389"/>
<path d="M71.7773 27.8445L66.5328 47.3465L72.4906 42.0246C72.8387 41.7128 72.9642 41.2178 72.8045 40.7772L71.2637 36.5426L74.1512 34.6628C74.6449 34.3423 74.8132 33.6985 74.5421 33.1749L71.7773 27.8445Z" fill="#CABFAB"/>
<path d="M64.7637 99.1886C65.3401 99.1714 65.9307 99.16 66.5299 99.16V47.3465L64.7637 99.1886Z" fill="#A08B7C"/>
<path d="M140.508 114.708H130.73V30.5884C130.73 24.1993 125.545 19.0005 119.174 19.0005H55.6987C49.3272 19.0005 44.1427 24.1993 44.1427 30.5884V114.708H34.3644C31.454 114.708 29.0857 117.083 29.0857 120.001H31.6537C31.6537 118.502 32.8692 117.283 34.3644 117.283H45.4267H56.4891C57.9843 117.283 59.1998 118.502 59.1998 120.001H61.7678C61.7678 117.083 59.3995 114.708 56.4891 114.708H46.7107V30.5884C46.7107 25.6185 50.7425 21.5756 55.6987 21.5756H119.174C124.13 21.5756 128.162 25.6185 128.162 30.5884V114.708H118.384C115.473 114.708 113.105 117.083 113.105 120.001H115.673C115.673 118.502 116.888 117.283 118.384 117.283H129.446H140.508C142.004 117.283 143.219 118.502 143.219 120.001H145.787C145.787 117.083 143.419 114.708 140.508 114.708Z" fill="#99A3B0"/>
<path d="M87.95 20.0191V20.4226C87.95 20.5885 87.8159 20.723 87.6504 20.723C87.4849 20.723 87.3508 20.5885 87.3508 20.4226V20.0191C87.3508 19.1894 86.6774 18.5141 85.8499 18.5141H87.3137C87.7046 18.8975 87.95 19.4297 87.95 20.0191Z" fill="#8D415F"/>
<path d="M108.702 20.0191V20.4226C108.702 20.5885 108.568 20.723 108.403 20.723C108.237 20.723 108.103 20.5885 108.103 20.4226V20.0191C108.103 19.1894 107.43 18.5141 106.602 18.5141H108.066C108.457 18.8975 108.702 19.4297 108.702 20.0191Z" fill="#8D415F"/>
<path d="M68.4246 20.0191V20.4226C68.4246 20.5885 68.2905 20.723 68.125 20.723C67.9595 20.723 67.8254 20.5885 67.8254 20.4226V20.0191C67.8254 19.1894 67.152 18.5141 66.3245 18.5141H67.7883C68.1792 18.8975 68.4246 19.4297 68.4246 20.0191Z" fill="#8D415F"/>
<path d="M72.1397 43.6183H71.569H70.9983C69.526 43.6183 68.0651 43.378 66.6727 42.903C67.5287 44.5511 69.2264 45.5868 71.0782 45.5868H71.569H72.0598C73.9116 45.5868 75.6122 44.5539 76.4653 42.903C75.0729 43.3751 73.612 43.6183 72.1397 43.6183Z" fill="#547374"/>
<path d="M61.2399 47.4952C61.4111 48.1733 61.9932 48.6283 62.6894 48.6283H80.4457C81.1419 48.6283 81.724 48.1733 81.8952 47.4952C82.0664 46.8171 81.7696 46.139 81.1562 45.8071L71.8657 40.76V38.9517C71.8657 38.4567 71.4634 38.0561 70.9726 38.0561C70.1765 38.0561 69.5231 37.4324 69.4746 36.6456C69.4718 36.6141 69.4718 35.6384 69.4718 35.6069C69.4718 34.7772 70.1452 34.102 70.9726 34.102H71.3892H72.853C72.4735 33.73 71.957 33.5011 71.3892 33.5011H70.9726C69.8142 33.5011 68.8726 34.4453 68.8726 35.6069C68.8726 35.6384 68.8726 36.6169 68.8754 36.6484C68.9239 37.7643 69.8456 38.6598 70.9726 38.6598C71.1353 38.6598 71.2694 38.7915 71.2694 38.9574V40.7657L61.9789 45.8129C61.3654 46.139 61.0687 46.8171 61.2399 47.4952ZM62.2642 46.3336L71.569 41.2778L80.8737 46.3336C81.3274 46.5797 81.3959 47.0317 81.316 47.3465C81.2361 47.6583 80.9621 48.0246 80.4457 48.0246H62.6922C62.1758 48.0246 61.9019 47.6583 61.822 47.3465C61.7421 47.0346 61.8106 46.5797 62.2642 46.3336Z" fill="#8D415F"/>
<path d="M73.4893 35.6041V36.0075C73.4893 36.1735 73.3552 36.3079 73.1897 36.3079C73.0242 36.3079 72.8901 36.1735 72.8901 36.0075V35.6041C72.8901 34.7743 72.2167 34.0991 71.3892 34.0991H72.853C73.2467 34.4825 73.4893 35.0147 73.4893 35.6041Z" fill="#8D415F"/>
<path d="M85.0852 50.6254C84.5517 48.2334 82.9766 46.2077 80.7967 45.1004L76.4653 42.903C75.6093 44.5511 73.9116 45.5868 72.0598 45.5868H71.569H71.0782C69.2264 45.5868 67.5258 44.5539 66.6727 42.903L62.3413 45.1004C60.1614 46.2077 58.5863 48.2334 58.0527 50.6254L54.9512 64.4936L57.853 66.1159L58.5663 88.0528C60.247 89.738 65.6997 90.15 71.5718 90.15C77.444 90.15 82.8967 89.738 84.5773 88.0528L85.2907 66.1159L88.1925 64.4936L85.0852 50.6254Z" fill="#85BA09"/>
<path d="M85.2878 66.1131L82.112 67.8899L81.9465 52.488L81.1505 69.7239L83.2191 68.4507L84.9397 76.7968L85.2878 66.1131Z" fill="#547374"/>
<path d="M73.6405 56.9057H69.6686L71.9884 60.9343H75.9602L73.6405 56.9057Z" fill="#B0C98F"/>
<path d="M70.4704 62.1131L73.4693 56.9057H69.4975L67.1777 60.9343L65.8652 60.4622L67.3204 64.2276L71.7716 62.5824L70.4704 62.1131Z" fill="#D8E29F"/>
<path d="M62.5125 69.0344L64.4984 72.485L66.8182 68.4564L64.8323 65.0058L62.5125 69.0344Z" fill="#B0C98F"/>
<path d="M68.5986 69.186H62.5981L64.584 72.6337H69.2235L69.4746 74.01L71.997 70.8655L68.3504 67.8212L68.5986 69.186Z" fill="#D8E29F"/>
<path d="M78.554 72.6337L80.5399 69.186H75.9003L73.9144 72.6337H78.554Z" fill="#B0C98F"/>
<path d="M75.6407 67.2747L78.6395 72.485L80.6255 69.0344L78.3057 65.0058L79.37 64.1017L75.3896 63.4836L74.585 68.1731L75.6407 67.2747Z" fill="#D8E29F"/>
<path d="M57.8502 66.1131L61.0259 67.8899L61.1914 52.488L61.9875 69.7239L59.9188 68.4507L58.1983 76.7968L57.8502 66.1131Z" fill="#547374"/>
<path d="M74.2568 48.4366L72.6247 47.5897C72.4906 47.521 72.3337 47.5239 72.2024 47.5982L70.3192 48.6884C70.188 48.7628 70.1053 48.9001 70.0995 49.0489L70.0139 50.8886C70.0111 50.9716 70.0311 51.0574 70.0739 51.129L72.502 55.3492C72.6247 55.561 72.893 55.6325 73.1041 55.5095L76.705 53.4265C76.9162 53.3035 76.9875 53.0345 76.8648 52.8228L74.4366 48.6025C74.3938 48.5339 74.331 48.4766 74.2568 48.4366ZM71.9143 49.2778C71.6974 49.4037 71.4235 49.3293 71.2979 49.1118C71.1724 48.8944 71.2466 48.6197 71.4634 48.4938C71.6803 48.3679 71.9542 48.4423 72.0798 48.6598C72.2025 48.8772 72.1283 49.1547 71.9143 49.2778Z" fill="white"/>
<path d="M72.8758 50.0703L72.1454 50.4938L72.9985 50.9859L73.729 50.5653L72.8758 50.0703Z" fill="#547374"/>
<path d="M72.8444 51.3665V50.0875L72.114 50.511V51.5009L71.8229 51.5524L72.4878 52.0903L73.1326 51.3121L72.8444 51.3665Z" fill="#85BA09"/>
<path d="M72.114 53.4866L72.8444 53.9101V52.9229L72.114 52.4995V53.4866Z" fill="#547374"/>
<path d="M73.2496 52.8657L72.1453 53.5066L72.8758 53.9272L73.7289 53.4351L73.923 53.6611L74.0513 52.8142L73.0584 52.6425L73.2496 52.8657Z" fill="#85BA09"/>
<path d="M75.4467 52.4394V51.5954L74.5936 52.0875V52.9344L75.4467 52.4394Z" fill="#547374"/>
<path d="M74.3424 51.7642L75.4467 52.4051V51.5581L74.5935 51.0632L74.6934 50.7828L73.8945 51.0946L74.2426 52.0417L74.3424 51.7642Z" fill="#85BA09"/>
<path d="M71.7915 48.7742C71.7659 48.7885 71.7373 48.7971 71.7059 48.7999C71.3493 48.8085 71.0782 48.4938 71.0211 48.1848C70.9755 47.9359 71.0326 47.6641 71.1923 47.3522C71.238 47.2663 71.2865 47.1834 71.3322 47.1033C71.4092 46.9716 71.4834 46.8457 71.5347 46.7141C71.6888 46.3307 71.6574 45.8672 71.452 45.5096C71.4006 45.4209 71.432 45.3093 71.5205 45.2578C71.6089 45.2063 71.7202 45.2378 71.7716 45.3264C72.0341 45.7871 72.074 46.3593 71.8743 46.8515C71.8115 47.0088 71.7288 47.1519 71.646 47.2892C71.6004 47.3693 71.5547 47.4437 71.5148 47.521C71.3921 47.7556 71.3493 47.9502 71.3778 48.1161C71.4063 48.2706 71.5376 48.4337 71.6917 48.4309C71.7915 48.428 71.8771 48.5081 71.88 48.6111C71.8857 48.6798 71.8486 48.7427 71.7915 48.7742Z" fill="#B0C98F"/>
<path d="M45.0872 60.4622L52.2918 84.9627C52.717 86.4076 52.9338 87.9069 52.9338 89.4147V112.465H43.6605C42.7104 101.878 44.137 88.811 44.137 88.811L34.6269 70.691V112.465H24.5432C23.1165 99.6836 25.5904 88.1444 25.5904 88.1444C22.3575 70.5966 23.4018 63.9672 24.4718 60.4622H45.0872Z" fill="#454F6B"/>
<path d="M34.624 70.691C38.0594 70.8341 40.1281 70.0844 40.1281 70.0844C38.2849 71.7897 35.3773 72.1273 35.3773 72.1273L34.624 70.691Z" fill="#422C4F"/>
<path d="M51.6013 111.034H51.316V88.9598C51.316 87.8639 51.1562 86.7738 50.8452 85.7238L43.612 61.4608L43.8859 61.3778L51.1191 85.6408C51.4415 86.7195 51.6042 87.8353 51.6042 88.9598V111.034H51.6013Z" fill="#797C99"/>
<path d="M34.624 70.691C34.1076 70.6596 33.5854 70.5136 33.0775 70.299V71.907C33.4285 72.0587 33.6567 72.1245 33.6567 72.1245L33.0775 73.8784V80.2989L34.624 84.6022V70.691Z" fill="#422C4F"/>
<path d="M29.3225 67.0802C29.4994 69.804 31.5795 71.1946 32.795 71.7783V70.1731C31.0944 69.3548 29.6392 67.7955 29.3225 67.0802Z" fill="#422C4F"/>
<path d="M32.7208 74.9656C32.2358 76.4306 32.2557 78.0157 32.7779 79.4663L32.7922 79.5092V74.7453L32.7208 74.9656Z" fill="#422C4F"/>
<path d="M33.0775 71.907C32.9891 71.8698 32.8949 71.8269 32.7922 71.7754V74.7425L33.0775 73.8784V71.907Z" fill="#797C99"/>
<path d="M32.7922 111.034H33.0775V80.3018L32.7922 79.5092V111.034Z" fill="#797C99"/>
<path d="M33.0775 70.2991C32.9805 70.259 32.8863 70.2189 32.7922 70.1732V71.7783C32.8949 71.8269 32.9891 71.8698 33.0775 71.9099V70.2991Z" fill="#454F6B"/>
<path d="M32.7922 74.7453V79.5092L33.0775 80.3018V73.8813L32.7922 74.7453Z" fill="#454F6B"/>
<path d="M39.7343 62.7083C39.7343 62.7083 39.7771 63.1145 39.8171 63.7555C41.8058 63.5123 43.7746 63.106 45.6921 62.5223L45.0872 60.4622H24.4718C24.3263 60.94 24.1808 61.4751 24.0467 62.0874C24.1922 62.1389 24.3406 62.1818 24.489 62.2304C24.5061 62.136 24.5232 62.0387 24.5432 61.9443C25.8357 62.2018 27.1112 62.3563 28.378 62.3907C28.378 62.3907 28.3581 62.7283 28.3153 63.2633C29.9388 63.6038 31.5881 63.8299 33.2458 63.9386C33.2858 63.4722 33.3371 63.0115 33.4028 62.5538C35.5057 62.7683 37.6229 62.8198 39.7343 62.7083Z" fill="#422C4F"/>
<path d="M33.243 63.9414C33.1232 65.312 33.1118 66.7054 33.2088 68.0616C34.1989 68.7111 35.2917 69.3577 36.4159 69.7239C37.4859 69.3291 38.6472 68.9314 39.7172 68.5365C39.9455 66.8484 39.8856 64.9171 39.8142 63.7555C37.6372 64.0216 35.4344 64.0845 33.243 63.9414Z" fill="#797C99"/>
<path d="M39.8171 63.7555C39.7771 63.1145 39.7343 62.7083 39.7343 62.7083C37.6228 62.8198 35.5057 62.7712 33.3999 62.5595C33.3343 63.0173 33.2829 63.4808 33.243 63.9443C35.4343 64.0845 37.6371 64.0216 39.8171 63.7555Z" fill="#454F6B"/>
<path d="M23.9126 67.0001C24.4405 67.641 25.0254 68.2876 25.6617 68.6853C26.3351 68.4021 27.0627 68.1217 27.7361 67.8384C28.0442 66.2876 28.2268 64.3649 28.3153 63.2719C27.0199 63.0001 25.7444 62.6539 24.489 62.2362C24.1951 63.7555 24.0011 65.4665 23.9126 67.0001Z" fill="#797C99"/>
<path d="M24.5432 61.9472C24.5232 62.0416 24.5061 62.136 24.489 62.2333C25.7444 62.651 27.0227 62.9972 28.3153 63.2691C28.3581 62.734 28.378 62.3964 28.378 62.3964C27.1112 62.3592 25.8357 62.2047 24.5432 61.9472Z" fill="#454F6B"/>
<path d="M55.1709 115.646L54.994 115.58C53.9554 115.183 53.0708 114.465 52.4688 113.526L51.7897 112.467H46.5481C46.5481 112.467 45.4524 115.143 45.7149 118.047H57.8958C57.3137 116.962 56.3579 116.101 55.1709 115.646Z" fill="#422C4F"/>
<path d="M45.715 118.044C45.772 118.693 45.8976 119.354 46.1201 119.998H58.495C58.4266 119.3 58.2154 118.639 57.8958 118.044H45.715Z" fill="white"/>
<path d="M34.8494 115.646L34.6725 115.58C33.6339 115.183 32.7494 114.465 32.1473 113.526L31.4682 112.467H26.2266C26.2266 112.467 25.131 115.143 25.3935 118.047H37.5743C36.9923 116.962 36.0364 116.101 34.8494 115.646Z" fill="#422C4F"/>
<path d="M25.3906 118.044C25.4477 118.693 25.5732 119.354 25.7958 119.998H38.1736C38.1051 119.3 37.8939 118.639 37.5744 118.044H25.3906Z" fill="white"/>
<path d="M66.7582 36.4424C66.7582 36.3108 66.8039 36.182 66.8895 36.0819L67.015 35.9331C66.5585 36.0333 66.1105 36.0705 65.771 36.0876C65.7339 36.1706 65.7111 36.2622 65.7111 36.3537C65.7111 36.7114 65.9992 37.0003 66.3559 37.0003H67.3146C67.0093 37.0003 66.7582 36.7514 66.7582 36.4424Z" fill="#EBA58E"/>
<path d="M65.7111 36.3537C65.7111 36.2593 65.7339 36.1706 65.771 36.0876C65.6711 36.0934 65.5798 36.0962 65.5028 36.0991L65.0577 37.0032H66.356C66.0021 37.0004 65.7111 36.7114 65.7111 36.3537Z" fill="#EBA58E"/>
<path d="M70.1452 34.4396L69.1408 32.5569C68.8526 32.019 68.2933 31.6842 67.6856 31.6842H65.868C64.4699 31.6842 63.1944 32.4797 62.5753 33.7357L61.8248 35.2607L55.6902 42.3193L52.503 38.7915L47.5582 43.275L52.055 48.1276C54.429 50.6883 58.6262 50.0732 60.1699 46.9373L65.0577 37.0032L65.5028 36.0991C65.5798 36.0962 65.6711 36.0934 65.771 36.0876C66.1105 36.0705 66.5585 36.0333 67.0151 35.9331C67.6571 35.7929 68.3048 35.5326 68.6671 35.0376L67.8825 36.0848C67.8083 36.1849 67.7683 36.3051 67.7683 36.4281C67.7683 36.7428 68.0251 37.0003 68.339 37.0003H68.3704C68.6814 37.0003 68.9781 36.863 69.1779 36.6227L70.0196 35.6155C70.2992 35.2865 70.3477 34.8201 70.1452 34.4396Z" fill="#F2C9AD"/>
<path d="M67.7712 36.4281C67.7712 36.3051 67.8111 36.1849 67.8853 36.0848L68.67 35.0376C68.3076 35.5326 67.6599 35.7929 67.0179 35.9331L66.8924 36.0819C66.8068 36.1821 66.7611 36.3108 66.7611 36.4424C66.7611 36.7514 67.0094 37.0004 67.3175 37.0004H68.3419C68.0251 37.0004 67.7712 36.7457 67.7712 36.4281Z" fill="#EBA58E"/>
<path d="M53.2934 39.6641C53.2534 43.0117 49.3786 45.2349 49.3786 45.2349L47.561 43.2721L52.5059 38.7886L53.2934 39.6641Z" fill="#422C4F"/>
<path d="M57.8958 44.7599L55.6902 42.3165L56.0212 41.9359C58.4123 42.3909 57.8958 44.7599 57.8958 44.7599Z" fill="#EBA58E"/>
<path d="M31.7678 28.3939H40.9042C43.7889 28.3939 46.5139 29.71 48.3143 31.9675L53.5987 38.5969C52.6 41.8873 47.5125 44.7485 47.5125 44.7485L45.0872 42.1248V50.8743C45.0872 53.4008 45.2498 55.9215 45.5751 58.425L45.9432 61.2462C36.5272 63.3921 23.6872 61.2462 23.6872 61.2462L24.0467 57.6039C24.235 55.6955 24.3292 53.7756 24.3292 51.8586V45.2549C24.3292 41.2407 24.7686 37.2407 25.636 33.3237C26.2752 30.4453 28.8232 28.3939 31.7678 28.3939Z" fill="#367743"/>
<path d="M43.7461 60.3106C42.4222 60.4737 40.8956 60.6339 39.2664 60.7226C37.6371 60.8142 35.9052 60.8342 34.176 60.7655C32.4469 60.694 30.7235 60.528 29.1057 60.302C27.4878 60.0788 25.9813 59.7927 24.6744 59.5209C25.9242 59.993 27.4079 60.4365 29.0258 60.7655C30.6436 61.0974 32.3927 61.3177 34.1504 61.3921C35.908 61.4636 37.6685 61.3893 39.3092 61.1918C40.947 60.9973 42.465 60.6768 43.7461 60.3106Z" fill="#1D3C32"/>
<path d="M26.3978 57.6439C27.736 57.8728 29.3196 57.9758 31.006 57.8499C32.6894 57.7298 34.4671 57.3836 36.1762 56.8142C37.8825 56.2419 39.5117 55.4494 40.9327 54.5338C42.3537 53.6211 43.5606 52.5853 44.4965 51.5982C43.418 52.428 42.134 53.3178 40.6873 54.1218C39.2435 54.9286 37.6371 55.6497 35.9765 56.2076C34.313 56.7598 32.5981 57.1489 30.9603 57.375C29.3168 57.601 27.7589 57.6611 26.3978 57.6439Z" fill="#1D3C32"/>
<path d="M25.228 52.4881C25.9641 52.9659 26.8658 53.4466 27.8759 53.8528C28.8859 54.2591 30.0016 54.5882 31.1401 54.797C32.2786 55.0059 33.4399 55.0975 34.527 55.0774C35.6141 55.0603 36.627 54.9315 37.4859 54.7484C35.7368 54.8543 33.4513 54.8113 31.2171 54.3908C28.9744 53.9873 26.8258 53.2119 25.228 52.4881Z" fill="#1D3C32"/>
<path d="M42.5906 29.627C42.0427 29.8388 41.4521 30.2279 40.9584 30.7858C40.462 31.3409 40.0682 32.0648 39.8856 32.8516C39.703 33.6356 39.7315 34.4596 39.9284 35.1806C40.1224 35.9017 40.4791 36.5168 40.8757 36.9489C40.636 36.411 40.4306 35.7815 40.3393 35.0977C40.2451 34.4138 40.2651 33.6814 40.4306 32.9832C40.5961 32.2822 40.9042 31.6184 41.2894 31.0491C41.6718 30.474 42.1369 30.0019 42.5906 29.627Z" fill="#1D3C32"/>
<path d="M45.0872 42.1276L41.3123 38.0447C41.9457 45.1348 45.0872 49.4838 45.0872 49.4838V42.1276Z" fill="#1D3C32"/>
<path d="M32.2928 24.9118L30.421 19.1207C29.1627 15.2238 32.0589 11.2267 36.1448 11.2267C39.8741 11.2267 42.7046 14.5914 42.0769 18.2767L41.2894 22.9004C41.0925 24.062 40.0881 24.9118 38.9097 24.9118H37.5686V28.3939H32.1958L32.2928 24.9118Z" fill="#F2C9AD"/>
<path d="M37.2975 22.0992L38.1421 22.2909C38.7014 22.8632 39.4746 22.3739 39.4746 22.3739C38.9981 23.1121 38.1421 23.0549 38.1421 23.0549C37.5372 24.5942 35.5713 25.4812 35.5713 25.4812L35.6198 24.6171C34.4442 25.6414 32.6723 25.3839 32.6723 25.3839L32.8635 24.9633L32.2842 25.2866L32.2957 24.9175V21.8904L37.2975 22.0992Z" fill="#EBA58E"/>
<path d="M40.3221 20.806C40.3478 20.1278 40.3706 19.4211 40.0054 18.8231C39.8884 18.6314 39.7258 18.4655 39.5317 18.351C38.827 17.9304 38.2249 18.3282 37.8597 18.8289C37.4887 19.3382 37.309 19.9819 37.3603 20.6114C37.4117 21.2409 37.6942 21.8474 38.1422 22.2881C37.7199 23.5985 36.7897 24.8431 35.5713 25.4754C35.577 24.9976 35.6455 24.5055 35.6512 24.0277C34.8409 24.7315 33.7423 25.3267 32.6723 25.3782C32.8093 25.0434 33.0062 24.6772 33.1431 24.3453C32.4526 24.8288 31.6137 25.1092 30.772 25.1407C31.1115 24.8059 31.3826 24.4082 31.5224 23.9533C29.3254 21.7559 28.0499 18.6629 27.8045 15.5614C27.7218 14.5113 27.7817 13.3954 28.3467 12.5113C28.9145 11.6272 30.1214 11.0865 31.0573 11.5643C31.1401 10.5972 32.1901 9.67588 33.1117 9.37545C34.0334 9.07502 35.0292 9.14942 35.9936 9.24956C36.958 9.3497 37.9424 9.46701 38.8869 9.24097C39.5346 9.08647 40.1566 8.77174 40.8243 8.76602C41.7545 8.75743 42.619 9.39548 43.0299 10.2338C43.4379 11.0721 43.4351 12.0707 43.1669 12.9634C42.8987 13.8561 42.3908 14.6601 41.8201 15.3954C41.977 15.8446 41.9428 16.3282 41.7859 16.7774C41.6289 17.2266 41.3151 17.6157 40.9127 17.8675L40.8928 19.2352C40.8814 19.8103 40.6816 20.3625 40.3221 20.806Z" fill="#8E5A61"/>
<path d="M39.3891 20.3196C39.1865 20.2595 38.9668 20.3911 38.8612 20.5742C38.7556 20.7573 38.7385 20.9748 38.7357 21.1865C38.7357 21.2924 38.7385 21.3982 38.7756 21.4955C38.8156 21.5928 38.8954 21.6786 39.001 21.6929C39.0952 21.7044 39.1865 21.6586 39.2521 21.5899C39.3177 21.5213 39.3548 21.4354 39.3919 21.3467C39.6259 20.7688 39.7115 20.1279 39.6316 19.5098C39.6088 19.341 39.5717 19.1665 39.4576 19.0435C39.3149 18.8861 39.0752 18.846 38.8726 18.909C38.67 18.9719 38.5074 19.1236 38.3904 19.301C38.2734 19.4755 38.1964 19.6758 38.1222 19.8732C38.1964 19.7301 38.339 19.5671 38.4418 19.444C38.5445 19.321 38.6757 19.2151 38.8327 19.1779C38.9867 19.1407 39.1665 19.1779 39.2749 19.2952C39.3691 19.3982 39.3976 19.547 39.409 19.6872C39.4205 19.8818 39.4233 20.125 39.3891 20.3196Z" fill="#EBA58E"/>
<path d="M130.299 58.4851L126.761 76.8741C126.07 80.462 125.754 84.1129 125.822 87.7667C125.928 93.3317 125.828 102.885 124.495 113.326H135.909C137.812 99.4003 135.244 84.0471 135.244 84.0471L140.759 68.4049L143.422 85.3804C143.327 98.9225 140.948 113.326 140.948 113.326H153.217C153.882 98.067 151.505 84.8082 151.505 84.8082C153.694 70.0244 154.595 68.342 154.595 60.179C146.346 53.1547 130.299 58.4851 130.299 58.4851Z" fill="#F0BF6C"/>
<path d="M154.595 61.0717C154.598 60.7827 154.598 60.4851 154.598 60.179C146.346 53.1547 130.296 58.4851 130.296 58.4851L129.828 60.9114C137.658 64.1188 146.723 64.1589 154.595 61.0717Z" fill="#E8916A"/>
<path d="M140.203 64.8484L140.759 68.4021L135.592 83.0543V76.7081C135.592 75.9184 135.877 75.1574 136.394 74.5622C136.993 73.8727 137.278 72.9657 137.176 72.0558L137.073 71.1402C136.927 69.8298 137.584 68.5623 138.734 67.9242L139.544 67.475L137.538 66.485C135.8 65.6267 134.251 64.4336 132.981 62.9686L140.203 64.8484Z" fill="#E8916A"/>
<path d="M140.203 64.8484L149.462 63.8728L148.492 64.5623C146.238 66.1646 143.29 66.3906 140.819 65.1575L140.203 64.8484Z" fill="#E8916A"/>
<path d="M131.62 83.3089C130.362 84.8368 128.844 86.1472 127.149 87.1687C127.862 87.3976 128.664 87.326 129.298 86.9312C129.897 86.5564 130.319 85.9555 130.659 85.3346C131.001 84.7109 131.224 83.8954 131.62 83.3089Z" fill="#E8916A"/>
<path d="M150.521 83.0514C149.907 84.9598 148.478 86.585 146.669 87.4376C147.288 87.6007 147.996 87.8697 148.572 87.5921C149.028 87.3718 149.325 86.9226 149.565 86.4734C150.104 85.4491 150.369 84.1987 150.521 83.0514Z" fill="#E8916A"/>
<path d="M144.683 82.4219C145.122 83.5807 145.776 84.6565 146.6 85.575C145.958 85.4376 145.396 85.0199 145.025 84.4763C144.66 83.9384 144.577 83.0714 144.683 82.4219Z" fill="#E8916A"/>
<path d="M133.672 25.2952C132.416 24.4826 131.555 23.0806 131.392 21.5899C131.229 20.0992 131.771 18.5456 132.824 17.4812C131.566 16.7173 130.759 15.281 130.739 13.8074C130.719 12.3339 131.498 10.8747 132.733 10.0736C132.214 8.8261 132.014 7.35544 132.562 6.1194C133.11 4.88622 134.488 3.98208 135.806 4.25676C135.86 2.82329 136.722 1.32402 138.049 0.783258C139.376 0.242491 141.002 0.554361 142.038 1.5472C143.901 0.0593732 146.777 0.00787178 148.783 1.29255C150.789 2.57723 151.839 5.19809 151.277 7.51853C152.401 7.92768 153.314 8.83468 153.622 9.99347C153.933 11.1523 153.645 12.4541 152.878 13.3754C154.447 13.9848 155.554 15.8132 155.391 17.4927C155.229 19.1722 153.856 20.66 152.198 20.9547C152.723 22.2823 152.17 24.0334 151.02 24.8717C149.87 25.71 148.321 25.8617 146.934 25.547C145.176 27.1578 142.974 28.0877 140.594 28.0248C138.22 27.959 135.672 26.5913 133.672 25.2952Z" fill="#422C4F"/>
<path d="M124.707 47.5353C123.023 47.6097 121.459 46.6683 120.735 45.1433L113.718 30.3566C111.393 30.102 109.15 29.215 107.159 27.9761C106.885 27.8044 106.733 27.4897 106.768 27.1664C106.853 26.3366 107.07 25.504 107.41 24.7372C107.638 24.2222 108.28 24.0649 108.722 24.4082C109.35 24.8975 110.038 25.2809 110.794 25.6042C110.001 25.0405 109.327 24.2709 108.719 23.4897C108.54 23.258 108.574 22.9261 108.796 22.7373L108.805 22.7315C109.028 22.5398 109.361 22.557 109.561 22.7744C110.588 23.8903 111.815 24.8259 113.205 25.4239C112.974 24.6113 112.82 23.793 112.734 22.9633C112.668 22.3052 113.176 21.733 113.835 21.733C114.514 24.5598 116.617 25.9904 116.463 28.8745L123.976 39.4839L126.384 34.0648L132.148 36.8086L128.33 45.1033C127.665 46.5253 126.27 47.4638 124.707 47.5353Z" fill="#BD6C67"/>
<path d="M126.381 34.059L132.145 36.8029L128.89 43.8758C126.59 40.1734 127.78 36.5969 127.994 36.1677L126.179 34.5168L126.381 34.059Z" fill="#422C4F"/>
<path d="M123.973 39.481L125.931 42.2478C126.207 39.006 124.13 39.1234 124.13 39.1234L123.973 39.481Z" fill="#8C404C"/>
<path d="M133.697 24.268C132.074 24.4997 130.641 25.4497 129.788 26.8517L125.631 33.7014L129.098 35.3523L133.697 24.268Z" fill="#6D9B7C"/>
<path d="M128.208 34.9288C129.56 31.5641 130.453 30.0619 131.7 29.0777L129.095 35.3523L128.208 34.9288Z" fill="#547374"/>
<path d="M138.528 26.3368C139.447 26.9777 140.645 27.1494 141.741 26.9119C142.834 26.6744 143.824 26.0564 144.617 25.2667C145.017 24.869 145.37 24.4255 145.69 23.9591L143.51 23.4498V18.9806L139.196 19.9105V23.487L137.136 23.7817C137.141 24.7803 137.701 25.7588 138.528 26.3368Z" fill="#BD6C67"/>
<path d="M139.19 21.7301C140.528 22.6228 142.34 21.5127 143.504 20.4597V18.9748L139.19 19.9047V21.7301Z" fill="#8C404C"/>
<path d="M150.175 46.943C150.175 41.5068 153.314 29.6328 150.389 25.0548L145.684 23.9561C145.368 24.4254 145.014 24.866 144.611 25.2637C143.818 26.0534 142.828 26.6714 141.735 26.9089C140.642 27.1464 139.441 26.9747 138.522 26.3338C137.695 25.7558 137.139 24.7773 137.127 23.7759L133.695 24.268L128.701 36.2936C127.991 38.0075 128.544 39.9875 130.042 41.0776C131.201 41.9216 131.823 43.3208 131.669 44.7485C131.229 48.8372 130.262 57.1976 129.412 60.1761C142.537 64.5394 154.592 60.1761 154.592 60.1761C154.598 56.0274 150.175 52.3793 150.175 46.943Z" fill="#80AF12"/>
<path d="M144.577 42.1162H132.413C132.473 41.7299 132.938 41.5869 133.327 41.604C133.717 41.6212 134.103 41.7614 134.488 41.7042C135.09 41.6155 135.512 41.0861 135.943 40.6541C136.374 40.2221 137.01 39.8329 137.561 40.0962C138.1 40.3537 138.226 41.0861 138.694 41.4581C139.079 41.7614 139.624 41.7642 140.097 41.6441C140.571 41.521 141.013 41.2922 141.487 41.1748C142.529 40.9087 143.81 41.3637 144.577 42.1162Z" fill="#547374"/>
<path d="M151.545 29.0806H145.419L146.754 45.3322L136.411 48.3765C136.411 48.3765 133.532 45.5182 131.58 45.6297C131.458 46.7456 131.306 48.0703 131.138 49.4752C133.392 53.3865 136.103 52.385 136.103 52.385L148.227 55.2462C149.83 55.6239 151.397 55.3435 152.686 54.6111C151.491 52.3393 150.178 49.9101 150.178 46.9488C150.175 42.7256 152.064 34.6341 151.545 29.0806Z" fill="#547374"/>
<path d="M149.773 24.9118C151.973 25.4268 153.679 27.1664 154.159 29.381L155.788 36.9317L146.991 37.647L145.419 29.0805C145.074 27.1979 146.255 25.3724 148.11 24.9204C148.655 24.7859 149.225 24.783 149.773 24.9118Z" fill="#6D9B7C"/>
<path d="M147.61 37.5955L148.986 46.6598L136.194 49.2835L133.503 46.1505C133.064 45.6383 132.456 45.2921 131.786 45.212C129.811 44.9803 128.633 46.6626 128.633 46.6626C128.967 47.0518 129.514 47.1948 129.985 46.9917C130.664 46.6998 131.272 46.6998 131.272 46.6998C129.994 47.1319 129.218 47.6498 128.758 48.0675C128.353 48.4366 128.151 48.9774 128.222 49.521L128.35 50.5138C128.444 51.2463 129.34 51.5467 129.857 51.0203C130.545 50.3164 131.052 50.1619 131.052 50.1619C132.63 53.1032 135.803 51.7098 135.803 51.7098L149.117 53.5438C152.512 54.0131 155.448 51.1662 155.095 47.747L153.996 37.0833L147.61 37.5955Z" fill="#BD6C67"/>
<path d="M148.988 46.6569L152.353 48.3736C151.354 45.6212 150.15 46.0217 148.897 46.0532L148.988 46.6569Z" fill="#8C404C"/>
<path d="M147.61 37.5955L153.996 37.0748L154.05 37.5955L147.898 39.481L147.61 37.5955Z" fill="#422C4F"/>
<path d="M146.118 16.105C145.262 15.1207 144.897 13.61 145.313 12.374C144.492 11.7932 143.664 11.2066 142.962 10.4827C142.263 9.75885 141.73 8.8776 141.521 7.89049C140.32 9.31537 138.58 10.2596 136.739 10.5171C136.722 10.5342 136.705 10.5485 136.688 10.5657L136.283 12.497C135.917 14.2424 135.934 16.0478 136.334 17.7874L136.368 17.9419C136.545 18.7144 136.93 19.4383 137.512 19.9733C138.505 20.8861 139.869 21.1865 141.11 20.8346L142.717 20.3796C143.647 20.1164 144.483 19.63 145.171 18.9834C145.148 17.9419 145.47 16.8489 146.118 16.105Z" fill="#BD6C67"/>
<path d="M144.095 14.1737L141.202 13.0979C141.624 12.7431 142.323 12.7288 142.828 12.952C143.333 13.178 143.81 13.7016 144.095 14.1737Z" fill="#422C4F"/>
<path d="M142.183 14.8947C142.078 15.1808 141.798 15.3382 141.558 15.2495C141.319 15.1608 141.21 14.8575 141.316 14.5714C141.421 14.2853 141.701 14.1279 141.941 14.2166C142.18 14.3053 142.289 14.6086 142.183 14.8947Z" fill="#422C4F"/>
<path d="M136.699 11.4269L138.348 12.0392C138.368 11.5357 138.109 11.1666 137.803 11.0865C137.498 11.0092 137.05 11.1895 136.699 11.4269Z" fill="#422C4F"/>
<path d="M137.059 12.9892C136.953 13.2753 136.979 13.5471 137.116 13.5986C137.253 13.6501 137.447 13.4584 137.552 13.1751C137.658 12.889 137.632 12.6172 137.495 12.5657C137.361 12.5142 137.164 12.7059 137.059 12.9892Z" fill="#422C4F"/>
<path d="M139.187 16.1164L137.561 15.5127C137.587 15.8532 137.821 16.1851 138.134 16.3196C138.451 16.4512 138.925 16.3368 139.187 16.1164Z" fill="#8C404C"/>
<path d="M141.507 17.7273C140.217 17.6443 138.928 17.5614 137.638 17.4784C137.803 17.9505 138.214 18.3224 138.679 18.5056C139.144 18.6887 139.67 18.6887 140.152 18.5513C140.634 18.4169 141.128 18.0535 141.507 17.7273Z" fill="white"/>
<path d="M146.629 116.728C148.563 116.911 150.635 116.476 152.407 115.598C152.07 114.147 151.554 113.326 151.554 113.326H142.976C142.802 113.635 142.603 113.927 142.38 114.201C144.081 114.33 145.727 115.269 146.629 116.728Z" fill="#BD6C67"/>
<path d="M146.629 116.728C145.727 115.269 144.081 114.333 142.383 114.201C141.781 114.948 141.019 115.563 140.152 115.972C139.15 116.447 138.032 116.653 137.062 117.188C136.091 117.723 135.364 118.905 135.552 120.001H152.552C152.82 118.216 152.666 116.719 152.407 115.598C150.635 116.476 148.563 116.911 146.629 116.728Z" fill="white"/>
<path d="M142.976 113.323H151.554C147.322 115.612 142.976 113.323 142.976 113.323Z" fill="#422C4F"/>
<path d="M129.032 116.728C130.967 116.911 133.038 116.476 134.81 115.598C134.474 114.147 133.957 113.326 133.957 113.326H125.38C125.206 113.635 125.006 113.927 124.784 114.201C126.487 114.33 128.131 115.269 129.032 116.728Z" fill="#BD6C67"/>
<path d="M129.032 116.728C128.131 115.269 126.484 114.333 124.786 114.201C124.184 114.948 123.423 115.563 122.555 115.972C121.554 116.447 120.435 116.653 119.465 117.188C118.495 117.723 117.767 118.905 117.956 120.001H134.956C135.224 118.216 135.07 116.719 134.81 115.598C133.041 116.476 130.97 116.911 129.032 116.728Z" fill="white"/>
<path d="M125.383 113.323H133.96C129.728 115.612 125.383 113.323 125.383 113.323Z" fill="#422C4F"/>
</svg>
