<svg width="12" height="18" viewBox="0 0 12 18" fill="none" xmlns="http://www.w3.org/2000/svg">
<path d="M11.1654 0.145544C11.0585 0.05307 10.9131 0.000726662 10.7611 3.7635e-06C10.6088 -0.00120551 10.4624 0.0513801 10.3568 0.145544L0.822302 8.31824C0.714134 8.40975 0.65321 8.5345 0.65321 8.6648C0.65321 8.7951 0.714134 8.91986 0.822302 9.01136L10.3568 17.1856C10.4627 17.2827 10.61 17.3388 10.765 17.3409C10.9202 17.3431 11.0695 17.2914 11.1793 17.1973C11.2888 17.1034 11.3493 16.9753 11.3467 16.8424C11.3441 16.7096 11.2787 16.5832 11.1654 16.4925L2.03534 8.6648L11.1654 0.838997C11.2732 0.74725 11.3337 0.622499 11.3337 0.492315C11.3337 0.362247 11.2732 0.237497 11.1654 0.145758L11.1654 0.145544Z" fill="white"/>
</svg>
