<svg width="215" height="145" viewBox="0 0 215 145" fill="none" xmlns="http://www.w3.org/2000/svg">
<g clip-path="url(#clip0_2_554)">
<path d="M214.333 0.781982H0.333374V144.01H214.333V0.781982Z" fill="white"/>
<path d="M140.084 101.544C143.802 98.6937 141.268 92.8557 144.684 89.5042C147.24 86.9948 150.636 88.4758 153.886 87.1896C156.596 86.1154 157.521 80.836 160.337 79.0829C163.21 77.2925 165.579 78.636 168.443 77.9514C171.188 77.2954 172.461 74.1788 175.1 73.1332C176.895 72.4228 178.949 72.967 180.87 72.7894C182.49 72.6405 185.284 71.6178 185.946 71.4603C182.077 74.3134 183.837 79.4438 180.57 82.6493C179.101 84.0902 176.861 84.2105 175.317 85.173C174.344 85.7774 173.602 86.6969 172.775 87.5076C170.181 90.0542 170.389 94.4542 167.285 96.7659C164.771 98.6393 161.618 98.2984 159.998 99.8911C159.253 100.622 158.716 102.163 158.094 102.993C155.184 106.892 153.54 105.721 150.299 105.434C148.139 105.242 142.184 101.848 140.372 102.28C140.118 102.34 140.147 101.799 140.084 101.544Z" fill="#2EC27E"/>
<path d="M183.218 73.0014C179.917 75.4191 176.553 77.7709 173.157 80.0855C173.531 78.5386 174.495 76.522 175.634 75.1871L175.22 74.8319C173.868 76.4189 172.763 78.7878 172.487 80.5381C168.6 83.1792 164.68 85.7831 160.757 88.3841C161.145 86.0868 162.56 83.0561 163.442 80.561L162.928 80.3777C162.003 82.993 160.403 86.273 160.132 88.7966C155.315 91.9878 150.51 95.1875 145.788 98.4703C146.244 96.213 147.791 93.1136 149.369 91.1341L148.944 90.7932C147.178 93.0104 145.474 96.4422 145.149 98.9143C144.475 99.3841 143.796 99.8481 143.129 100.321C140.689 102.048 137.159 102.372 134.603 103.967L134.888 104.431C137.276 102.942 140.829 102.615 143.44 100.768C144.047 100.338 144.664 99.9169 145.277 99.4901C149.34 101.372 154.065 100.421 157.932 100.765L157.98 100.221C154.097 99.8768 149.606 100.716 145.819 99.1148C150.619 95.7719 155.512 92.5149 160.417 89.2636C161.55 89.5729 163.142 90.2604 164.734 90.7188C166.372 91.1914 168.038 91.4464 169.257 90.6873L168.968 90.2232C167.993 90.8305 166.472 90.6529 164.882 90.1946C163.507 89.7992 162.132 89.2349 160.996 88.8797C164.854 86.3245 168.706 83.7636 172.532 81.1654C172.566 81.1941 172.606 81.2141 172.649 81.2227C173.91 81.5035 175.209 81.3201 176.467 81.1053C177.725 80.8904 178.941 80.6441 180.025 80.7386L180.074 80.1944C178.875 80.0884 177.62 80.3519 176.376 80.5667C175.271 80.7558 174.181 80.8904 173.157 80.7443C176.658 78.3582 180.131 75.9376 183.538 73.4426L183.218 73.0014Z" fill="#26A269"/>
<path d="M138.153 90.394C139.793 86.9491 135.404 83.9775 136.6 80.3115C137.497 77.5674 140.712 77.2112 142.651 75.0229C144.267 73.1983 142.755 69.216 144.165 66.8829C145.605 64.5019 147.978 64.4667 149.876 62.844C151.696 61.2907 151.358 58.6466 152.934 56.8692C154.003 55.6608 155.803 55.2057 157.195 54.3114C158.37 53.5565 160.074 51.733 160.512 51.3571C158.758 54.8653 162.261 57.6634 161.115 61.1708C160.6 62.7472 158.941 63.731 158.167 65.0112C157.679 65.8159 157.498 66.7448 157.207 67.6316C156.297 70.4176 158.307 73.3407 156.912 76.1716C155.781 78.4667 153.23 79.5032 152.661 81.2429C152.399 82.043 152.638 83.3124 152.514 84.131C151.932 87.9682 150.184 87.8289 147.588 88.9389C145.858 89.6796 139.884 89.7561 138.685 90.7809C138.514 90.927 138.306 90.5445 138.153 90.394Z" fill="#2EC27E"/>
<path d="M159.081 53.5099C157.578 56.4925 155.999 59.4543 154.381 62.4046C154.015 61.1957 153.905 59.4302 154.212 58.0578L153.748 57.9819C153.383 59.612 153.535 61.6757 154.063 62.9828C152.208 66.3546 150.309 69.7137 148.409 73.0686C147.738 71.3423 147.545 68.702 147.168 66.64L146.701 66.7224C147.096 68.8831 147.253 71.7681 148.106 73.604C145.771 77.7241 143.448 81.849 141.224 85.993C140.623 84.267 140.501 81.5233 140.872 79.5349L140.403 79.473C139.987 81.6995 140.131 84.732 140.921 86.5529C140.604 87.1454 140.283 87.7345 139.972 88.3294C138.836 90.494 136.278 92.1346 134.997 94.2538L135.412 94.4568C136.609 92.4777 139.184 90.823 140.4 88.5077C140.682 87.968 140.977 87.4331 141.264 86.8937C145.158 86.5441 148.365 83.9928 151.46 82.6681L151.267 82.2775C148.158 83.6074 145.084 85.9879 141.518 86.4213C143.776 82.2031 146.14 78.0056 148.519 73.8078C149.512 73.5641 151.017 73.391 152.425 73.0627C153.874 72.7267 155.254 72.23 155.863 71.2193L155.449 71.0185C154.96 71.8262 153.724 72.3173 152.32 72.6438C151.103 72.9258 149.816 73.0948 148.799 73.3106C150.668 70.0118 152.533 66.7096 154.361 63.392C154.399 63.3974 154.438 63.3947 154.474 63.3836C155.553 63.0679 156.469 62.4192 157.339 61.7657C158.209 61.1122 159.034 60.4539 159.902 60.0837L159.709 59.6931C158.751 60.1025 157.904 60.7889 157.042 61.4368C156.278 62.0104 155.503 62.5416 154.66 62.8533C156.329 59.8126 157.96 56.7595 159.512 53.6822L159.081 53.5099Z" fill="#26A269"/>
<path d="M69.7042 89.9949C65.9896 90.8142 64.103 85.8524 60.275 86.1896C57.4082 86.4426 56.3334 89.5037 53.7702 90.9005C51.6331 92.0661 48.1127 89.6837 45.5305 90.5329C42.8943 91.4002 42.3205 93.7105 40.3168 95.196C38.3959 96.6204 35.9097 95.69 33.8273 96.8274C32.4122 97.6 31.563 99.2518 30.3782 100.408C29.3778 101.383 27.2231 102.634 26.7618 102.977C30.5632 102.058 32.4823 106.114 36.1449 105.793C37.7918 105.649 39.1212 104.249 40.5399 103.784C41.4319 103.491 42.3732 103.523 43.3007 103.442C46.2091 103.185 48.5899 105.81 51.6528 105.09C54.1347 104.504 55.7196 102.248 57.5375 102.088C58.3739 102.015 59.5508 102.536 60.3723 102.601C64.2259 102.902 64.4897 101.164 66.1537 98.88C67.2646 97.3567 68.6945 91.5385 69.9602 90.5994C70.1376 90.468 69.8132 90.1792 69.7042 89.9949Z" fill="#2EC27E"/>
<path d="M29.1761 102.072C32.4104 101.279 35.6417 100.408 38.8705 99.4969C37.7812 98.8664 36.0933 98.3561 34.6916 98.3454L34.7238 97.8742C36.3888 97.8876 38.3556 98.5052 39.5051 99.3139C43.1953 98.2659 46.8843 97.1742 50.5714 96.0783C49.0511 95.0329 46.53 94.2437 44.6175 93.4091L44.8024 92.9705C46.8067 93.8462 49.571 94.6531 51.1594 95.9057C55.6873 94.5581 60.2141 93.2257 64.7388 91.9946C63.2011 91.0172 60.5669 90.276 58.5536 90.1867L58.5992 89.7153C60.8542 89.8131 63.7632 90.641 65.3487 91.8285C65.995 91.6533 66.6408 91.471 67.2877 91.303C69.6457 90.6842 71.817 88.5583 74.1642 87.7865L74.2654 88.2364C72.0728 88.9566 69.8838 91.0966 67.3626 91.7604C66.7748 91.9158 66.1884 92.0803 65.6015 92.2377C64.3797 95.9603 61.1757 98.5141 59.1896 101.237L58.8543 100.96C60.8481 98.2241 63.8564 95.7621 65.0841 92.376C60.4787 93.6255 55.8719 94.9836 51.2597 96.3535C50.7975 97.2708 50.2891 98.6992 49.6517 99.9999C48.996 101.337 48.2017 102.572 47.0819 102.94L46.9807 102.49C47.875 102.196 48.6331 101.1 49.2691 99.8021C49.8182 98.6798 50.2741 97.4605 50.7149 96.5145C47.0896 97.5917 43.4623 98.6649 39.8301 99.6981C39.8284 99.7355 39.8156 99.7723 39.7963 99.8067C39.2454 100.79 38.4085 101.538 37.5763 102.238C36.7442 102.938 35.9197 103.596 35.362 104.358L35.0267 104.081C35.6418 103.238 36.4999 102.565 37.3215 101.872C38.0513 101.255 38.7425 100.618 39.2346 99.8661C35.9064 100.808 32.5757 101.709 29.239 102.527L29.1761 102.072Z" fill="#26A269"/>
<path d="M34.9013 49.7892C33.2552 52.6585 35.4247 55.1137 35.734 55.4423C35.7692 55.5482 35.7973 55.6416 35.8339 55.7512C36.0594 56.3958 36.3197 57.0245 36.5993 57.6303C35.9066 56.8065 34.8328 56.0502 33.2146 56.0484C33.8212 59.072 35.8726 59.8498 37.6699 59.6896C37.9898 60.2382 38.2832 60.6971 38.4981 61.0064C38.4981 61.0064 38.4996 61.0101 38.5022 61.0113C37.4012 60.318 35.8411 59.7861 34.0459 60.5026C35.9005 63.1822 38.0815 63.38 39.7494 62.6983C40.2384 63.3239 40.8036 64.0109 41.457 64.7457C41.5592 64.8622 41.6585 64.9711 41.7629 65.0823C40.5368 64.3686 38.1135 63.4283 35.6418 65.1474C38.2514 67.6576 40.7462 67.1157 42.4176 65.7927C43.5923 67.0425 44.6838 68.0748 45.5032 68.8073C46.4854 69.689 46.7891 69.9153 46.7906 69.9191L47.0136 70.0945L47.0122 69.9972L47.0081 69.6396L47.004 69.2821L47.2266 69.3576C47.2292 69.3587 46.9292 69.1527 45.9472 68.2992C45.1019 67.5616 43.9607 66.5076 42.7393 65.2218C44.3314 63.8517 45.3156 61.5481 43.4509 58.5178C41.2291 60.602 41.6727 63.2111 42.1148 64.5495C42.0495 64.4773 41.9831 64.4077 41.9179 64.3355C41.2215 63.5631 40.6279 62.8482 40.1195 62.1954C41.5661 61.0394 42.4938 58.9671 40.9085 55.9964C38.9209 57.7336 39.1977 60.145 39.5512 61.4509C39.3443 61.1733 39.1577 60.9139 38.9871 60.6677C38.7752 60.366 38.4578 59.9122 38.113 59.3995C39.2194 58.0294 39.6917 55.9734 37.6643 53.78C36.6615 55.1767 36.7032 56.5773 37.0145 57.6495C36.6533 57.0236 36.3098 56.3711 36.0043 55.6884C35.959 55.5843 35.9219 55.4901 35.8793 55.3872C36.8697 53.904 37.1635 51.7856 34.9013 49.7892Z" fill="#1C774D"/>
<path d="M60.596 76.1471C62.1909 60.3742 53.5321 52.4945 41.0869 49.1354C37.3414 65.7149 49.9421 78.3426 60.596 76.1471Z" fill="#A3CB69"/>
<path d="M41.8607 50.8259C41.9985 50.7403 42.1808 50.7824 42.2664 50.9209C42.2664 50.9209 44.4336 54.3974 47.498 58.9232C47.5374 56.8232 48.5327 55.0817 48.5327 55.0817C48.6149 54.9406 48.7926 54.893 48.935 54.9734C49.0757 55.0562 49.1237 55.2346 49.0439 55.3773C49.0439 55.3773 47.8127 57.5769 48.1191 59.8346C48.8329 60.879 49.5709 61.954 50.3537 63.0596C50.7708 63.6509 51.2037 64.2495 51.6349 64.8505L53.7982 59.0819C53.856 58.931 54.0261 58.8539 54.1766 58.9122C54.3271 58.9705 54.4044 59.1414 54.3467 59.2923L52.045 65.4266C53.2384 67.0671 54.4706 68.7065 55.6926 70.2592C56.0153 69.4346 56.0765 68.1915 56.0088 67.1022C55.9317 65.8541 55.7264 64.8298 55.7264 64.8298C55.7098 64.7525 55.7257 64.6734 55.769 64.6096C55.8124 64.5459 55.8794 64.4983 55.9547 64.4842C56.1149 64.4522 56.268 64.5574 56.302 64.7158C56.302 64.7158 56.5164 65.7775 56.5954 67.0685C56.6718 68.3127 56.6495 69.7731 56.119 70.791C58.9609 74.3534 61.7299 77.398 63.8253 78.8057C63.9596 78.8979 63.9957 79.0786 63.9065 79.2148C63.8172 79.3509 63.6349 79.385 63.499 79.2952C61.2582 77.7911 58.4322 74.6728 55.5569 71.0529C51.2027 70.9972 48.8117 70.2421 48.8117 70.2421C48.6564 70.1909 48.5703 70.0279 48.621 69.8721C48.67 69.7188 48.834 69.6304 48.9893 69.6816C48.9893 69.6816 51.1146 70.3443 55.0735 70.4473C53.8789 68.9203 52.6811 67.3218 51.5167 65.715L44.9504 65.5052C44.7874 65.5007 44.6591 65.3641 44.6655 65.2023C44.6696 65.0388 44.8055 64.9103 44.9668 64.9172L51.0847 65.1101C50.676 64.542 50.2627 63.9706 49.8651 63.4066C49.1626 62.4115 48.4963 61.4446 47.8463 60.4995C47.8384 60.501 47.832 60.5001 47.8241 60.5016C45.1294 60.0403 43.5166 59.5391 42.5681 59.1442C42.0939 58.9467 41.7848 58.776 41.589 58.652C41.3949 58.5257 41.2939 58.4251 41.2939 58.4251C41.1812 58.3061 41.1871 58.1197 41.3054 58.0069C41.4237 57.8941 41.6096 57.9005 41.7222 58.0194C41.7222 58.0194 41.7488 58.0515 41.9076 58.1536C42.0687 58.2573 42.3463 58.4134 42.7938 58.5994C43.6131 58.9402 45.0895 59.3825 47.3748 59.8051C44.1115 55.0077 41.7583 51.2405 41.7583 51.2405C41.6775 51.095 41.7214 50.9138 41.8607 50.8259C41.8591 50.8282 41.8591 50.8282 41.8607 50.8259Z" fill="#D3EAAC"/>
<path d="M57.1863 72.7193C56.062 88.5443 46.1793 94.773 33.3362 95.8809C32.4781 78.8835 47.0569 68.6701 57.1863 72.7193Z" fill="#A3CB69"/>
<path d="M34.3851 94.3484C34.5061 94.4575 34.691 94.4478 34.7995 94.3267C34.7995 94.3267 37.5304 91.284 41.3275 87.3682C41.0087 89.4452 41.6916 91.3388 41.6916 91.3388C41.7472 91.4912 41.9153 91.5708 42.0696 91.5166C42.2214 91.4611 42.3004 91.2928 42.2459 91.1378C42.2459 91.1378 41.4083 88.752 42.0943 86.5826C42.9774 85.6793 43.8872 84.7502 44.8496 83.8004C45.3628 83.2911 45.891 82.7759 46.4207 82.2644L47.5695 88.3324C47.6 88.4924 47.7541 88.5972 47.9136 88.567C48.0731 88.5369 48.1772 88.3826 48.1467 88.2225L46.9271 81.7708C48.3864 80.3639 49.8783 78.9681 51.3503 77.6541C51.5283 78.5248 51.3771 79.7605 51.1231 80.8232C50.8339 82.0392 50.4561 83.0134 50.4561 83.0134C50.428 83.0855 50.43 83.1675 50.4608 83.2403C50.4916 83.313 50.5522 83.3676 50.6241 83.3959C50.7757 83.4559 50.9455 83.3803 51.005 83.2284C51.005 83.2284 51.3976 82.22 51.6959 80.9612C51.984 79.7479 52.2121 78.3055 51.8644 77.2076C55.275 74.1998 58.5261 71.6905 60.8329 70.6727C60.9828 70.6071 61.0488 70.433 60.983 70.2825C60.9172 70.132 60.7435 70.0655 60.5936 70.1311C58.1267 71.2163 54.8075 73.7895 51.3524 76.8496C47.0491 76.1365 44.5621 76.4543 44.5621 76.4543C44.4007 76.4744 44.2888 76.6252 44.3091 76.7871C44.3295 76.9489 44.4802 77.0616 44.6415 77.0416C44.6415 77.0416 46.852 76.7652 50.7717 77.3638C49.3305 78.6569 47.8766 80.0225 46.4565 81.3966L39.9463 80.4401C39.7851 80.4165 39.6365 80.5295 39.6134 80.691C39.5902 80.8526 39.7033 81.0019 39.8645 81.0255L45.9285 81.9182C45.427 82.4076 44.923 82.896 44.4353 83.3821C43.5727 84.2382 42.7499 85.0742 41.9489 85.8885C41.9411 85.8851 41.9347 85.8854 41.9268 85.882C39.191 85.8601 37.5153 86.0674 36.5131 86.288C36.0112 86.3965 35.6785 86.5102 35.4647 86.6009C35.251 86.6917 35.1351 86.7722 35.1351 86.7722C35.0061 86.8688 34.9791 87.0536 35.0746 87.1859C35.1712 87.3155 35.3556 87.343 35.4873 87.2476C35.4873 87.2476 35.5177 87.2203 35.6928 87.147C35.8679 87.0737 36.169 86.9681 36.6431 86.8662C37.5102 86.677 39.0381 86.5019 41.3678 86.4899C37.329 90.6403 34.3638 93.9365 34.3638 93.9365C34.2538 94.0538 34.264 94.2393 34.3851 94.3484Z" fill="#D3EAAC"/>
<path d="M55.5115 74.1402C47.3039 60.5517 35.677 59.5026 23.7524 64.369C30.7329 79.9084 48.3474 82.3638 55.5115 74.1402Z" fill="#62AA4B"/>
<path d="M25.3817 65.2453C25.44 65.0931 25.6105 65.0161 25.7618 65.0749C25.7618 65.0749 29.5771 66.5426 34.7376 68.3053C33.5067 66.5997 33.2524 64.6005 33.2524 64.6005C33.2331 64.4376 33.3459 64.2914 33.5076 64.2694C33.6693 64.2473 33.8149 64.3639 33.8371 64.5266C33.8371 64.5266 34.179 67.036 35.78 68.6579C36.9761 69.0607 38.2099 69.4732 39.4978 69.8831C40.1853 70.1032 40.8898 70.3196 41.5944 70.539L39.8496 64.6053C39.8049 64.4494 39.8939 64.2842 40.0488 64.2395C40.2037 64.1948 40.368 64.2846 40.4128 64.4406L42.2673 70.7511C44.2036 71.3399 46.1701 71.9043 48.0765 72.4054C47.8378 71.549 47.1393 70.5163 46.4307 69.6852C45.619 68.7325 44.8398 68.0369 44.8398 68.0369C44.7802 67.9852 44.7452 67.9121 44.7415 67.8347C44.7377 67.7573 44.7625 67.6785 44.814 67.6215C44.9222 67.4985 45.1074 67.4897 45.2296 67.596C45.2296 67.596 46.0386 68.316 46.8776 69.3018C47.6862 70.2518 48.5462 71.4348 48.7357 72.5723C53.1399 73.6987 57.1748 74.4548 59.6894 74.3092C59.8516 74.2986 59.9891 74.4242 59.9999 74.5874C60.0107 74.7507 59.886 74.8888 59.7238 74.8994C57.0355 75.0562 52.9109 74.2756 48.4455 73.1234C44.945 75.7238 42.5873 76.5716 42.5873 76.5716C42.4329 76.6249 42.2663 76.5467 42.213 76.3912C42.1598 76.2357 42.2373 76.0682 42.3918 76.0149C42.3918 76.0149 44.4824 75.2545 47.6966 72.9321C45.8275 72.4349 43.913 71.8825 42.02 71.3031L36.6654 75.1238C36.533 75.2192 36.3486 75.1878 36.2565 75.0542C36.1615 74.9208 36.1924 74.7355 36.325 74.6429L41.3124 71.0811C40.6455 70.8743 39.9729 70.6679 39.3173 70.4577C38.1598 70.0876 37.0481 69.7181 35.9624 69.3561C35.957 69.3621 35.9514 69.3652 35.946 69.3712C33.523 70.6388 31.9376 71.2171 30.945 71.477C30.4487 71.607 30.0999 71.658 29.8695 71.6776C29.639 71.6943 29.4982 71.6752 29.4982 71.6752C29.337 71.6484 29.2296 71.4955 29.2559 71.3333C29.2823 71.1711 29.4342 71.0633 29.5954 71.0901C29.5954 71.0901 29.6358 71.0997 29.8236 71.085C30.0142 71.0702 30.3291 71.0265 30.7972 70.9036C31.6544 70.6789 33.096 70.1362 35.1697 69.0864C29.6875 67.2269 25.5494 65.6396 25.5494 65.6396C25.3975 65.5692 25.3236 65.4003 25.3817 65.2453Z" fill="#86C96D"/>
<path d="M61.0738 38.3695C57.8833 39.2268 57.6879 42.501 57.6766 42.9519C57.6282 43.0494 57.5805 43.1379 57.5298 43.2407C57.2358 43.8553 56.9759 44.4849 56.7464 45.109C56.8364 44.0368 56.606 42.7403 55.4626 41.5882C53.7604 44.1541 54.6662 46.1578 56.0533 47.3228C55.8936 47.9368 55.7781 48.4702 55.7112 48.8406C55.7112 48.8406 55.7127 48.8444 55.709 48.8459C55.4173 47.5757 54.6856 46.0914 52.9083 45.3242C52.3321 48.5351 53.7399 50.2212 55.4023 50.9225C55.3071 51.7114 55.2261 52.5971 55.1683 53.5804C55.1586 53.7323 55.1528 53.8827 55.1457 54.0357C54.7781 52.6605 53.7224 50.276 50.759 49.7369C50.8359 53.3611 52.9897 54.7486 55.1075 55.0026C55.0589 56.7205 55.1047 58.2204 55.1671 59.3218C55.2414 60.6406 55.2964 61.0175 55.2979 61.0213L55.3323 61.3017L55.4002 61.2314L55.651 60.9757L55.9018 60.72L56.0067 60.9313C56.0082 60.9351 55.94 60.5743 55.8476 59.2757C55.7688 58.1546 55.7034 56.5993 55.745 54.8253C57.8399 54.988 60.1645 54.0584 60.9776 50.5951C57.9318 50.4914 56.408 52.6451 55.7744 53.9077C55.7794 53.8099 55.7805 53.7136 55.7854 53.6158C55.8363 52.5765 55.9217 51.6521 56.0201 50.8271C57.8605 51.0379 59.9794 50.2308 60.9528 47.0092C58.3157 46.825 56.8139 48.726 56.1421 49.8969C56.1901 49.5556 56.2432 49.2385 56.2962 48.9432C56.3596 48.5806 56.4527 48.0343 56.5693 47.4264C58.318 47.2444 60.1067 46.1275 60.2154 43.1401C58.5192 43.4169 57.5615 44.4347 57.0264 45.4124C57.2135 44.7136 57.431 44.0093 57.6961 43.3102C57.7363 43.2028 57.7787 43.1121 57.8192 43.0111C59.5633 42.6741 61.2673 41.3859 61.0738 38.3695Z" fill="#1C774D"/>
<path d="M43.6607 101.012C46.9657 101.014 48 97.9033 48.1275 97.4719C48.201 97.3885 48.2688 97.3182 48.3434 97.2321C48.7859 96.7136 49.1992 96.176 49.5814 95.6311C49.2182 96.6433 49.1053 97.9553 49.9135 99.3637C52.2213 97.3278 51.8642 95.1579 50.8231 93.6758C51.1371 93.123 51.387 92.6389 51.5437 92.2984L51.5433 92.292C51.4965 93.5954 51.82 95.2167 53.3408 96.4181C54.7255 93.4699 53.7999 91.4763 52.3735 90.366C52.6684 89.6269 52.9788 88.7946 53.2861 87.861C53.3344 87.7135 53.3792 87.5738 53.4237 87.4278C53.4244 88.8519 53.8279 91.4261 56.5532 92.7167C57.4119 89.1984 55.6908 87.3005 53.7074 86.5058C54.1985 84.8595 54.5411 83.3981 54.7639 82.3214C55.0312 81.0269 55.0759 80.65 55.0771 80.6473L55.1143 80.367L55.0301 80.4176L54.7214 80.5981L54.4127 80.7786L54.3668 80.5462C54.3653 80.5425 54.3379 80.9083 54.094 82.1849C53.8816 83.2879 53.5432 84.8042 53.0462 86.5073C51.0628 85.8062 48.5771 86.1003 46.898 89.232C49.8152 90.1225 51.8455 88.4399 52.7808 87.3873C52.7526 87.4812 52.7256 87.5724 52.6948 87.6651C52.3752 88.6558 52.0569 89.5283 51.7495 90.2963C50.0255 89.6149 47.7703 89.8442 45.9982 92.7012C48.4981 93.5624 50.4405 92.1192 51.3937 91.1619C51.2562 91.4796 51.1263 91.7726 51.0003 92.0422C50.8432 92.3764 50.6134 92.8786 50.3444 93.4355C48.6052 93.1564 46.5911 93.772 45.7142 96.6267C47.4246 96.7995 48.6113 96.0659 49.3823 95.2631C49.0212 95.889 48.6304 96.5114 48.1939 97.1169C48.126 97.209 48.0638 97.2879 47.9982 97.3748C46.2253 97.2528 44.2493 98.0536 43.657 101.014L43.6607 101.012Z" fill="#1C774D"/>
<path d="M166.318 129.49C166.318 120.408 166.176 117.624 165.947 113.084C165.716 108.545 165.433 108.545 165.202 113.084C164.971 117.624 164.831 120.41 164.831 129.49H165.576H166.318Z" fill="#A9CE72"/>
<path d="M165.573 112.038C166.396 112.038 167.063 111.368 167.063 110.542C167.063 109.716 166.396 109.046 165.573 109.046C164.751 109.046 164.084 109.716 164.084 110.542C164.084 111.368 164.751 112.038 165.573 112.038Z" fill="#60B141"/>
<path d="M166.366 106.378C166.366 109.933 166.007 110.502 165.564 110.502C165.121 110.502 164.762 109.933 164.762 106.378C164.762 102.822 165.121 97.6253 165.564 97.6253C166.007 97.6229 166.366 102.82 166.366 106.378ZM161.62 111.863C164.688 110.086 165.357 110.112 165.578 110.499C165.8 110.884 165.488 111.481 162.42 113.259C159.352 115.037 154.69 117.323 154.468 116.938C154.249 116.551 158.552 113.641 161.62 111.863ZM168.725 113.247C165.657 111.469 165.345 110.872 165.566 110.487C165.788 110.103 166.459 110.074 169.524 111.852C172.592 113.629 176.895 116.539 176.674 116.924C176.455 117.311 171.792 115.025 168.725 113.247Z" fill="#A9CE72"/>
<path d="M165.573 111.104C165.882 111.104 166.133 110.852 166.133 110.542C166.133 110.232 165.882 109.981 165.573 109.981C165.265 109.981 165.014 110.232 165.014 110.542C165.014 110.852 165.265 111.104 165.573 111.104Z" fill="#60B141"/>
<path d="M181.826 131.074C181.826 114.947 181.572 110.004 181.167 101.943C180.757 93.8824 180.254 93.8824 179.844 101.943C179.434 110.004 179.185 114.951 179.185 131.074H180.507H181.826Z" fill="#A9CE72"/>
<path d="M184.391 98.0302C184.73 95.8848 183.272 93.8697 181.135 93.5293C178.998 93.189 176.991 94.6522 176.652 96.7976C176.313 98.943 177.771 100.958 179.908 101.298C182.045 101.639 184.052 100.176 184.391 98.0302Z" fill="#60B141"/>
<path d="M181.91 90.0343C181.91 96.3474 181.272 97.3571 180.486 97.3571C179.7 97.3571 179.062 96.3474 179.062 90.0343C179.062 83.7212 179.7 74.4934 180.486 74.4934C181.272 74.4934 181.91 83.7212 181.91 90.0343ZM173.484 99.7754C178.931 96.6189 180.119 96.6656 180.512 97.3529C180.905 98.0359 180.351 99.0966 174.904 102.253C169.456 105.41 161.178 109.47 160.785 108.787C160.391 108.104 168.036 102.932 173.484 99.7754ZM186.103 102.232C180.655 99.0754 180.102 98.0147 180.495 97.3317C180.888 96.6486 182.079 96.5977 187.523 99.7542C192.97 102.911 200.611 108.078 200.218 108.761C199.824 109.449 191.546 105.388 186.103 102.232Z" fill="#A9CE72"/>
<path d="M180.503 96.4365C181.052 96.4365 181.496 96.8819 181.496 97.4335C181.496 97.985 181.052 98.4305 180.503 98.4305C179.954 98.4305 179.51 97.985 179.51 97.4335C179.514 96.8819 179.958 96.4365 180.503 96.4365Z" fill="#60B141"/>
<path d="M185.846 134.242H22.2955C22.2955 134.242 32.3792 125.923 40.8222 127.167C49.2623 128.41 53.5652 126.399 58.841 123.913C64.1168 121.426 77.1651 120.985 89.8253 123.056C102.488 125.127 114.621 129.685 120.952 128.029C127.284 126.37 134.143 122.644 144.167 123.887C154.191 125.13 157.358 129.687 163.159 128.444C168.963 127.198 183.734 128.857 185.846 134.242Z" fill="#26A269"/>
<path d="M123.51 12.8341C120.586 14.3843 121.114 17.6219 121.201 18.0632C121.176 18.1709 121.147 18.265 121.121 18.3791C120.969 19.0444 120.855 19.7153 120.768 20.3771C120.62 19.3107 120.115 18.0975 118.745 17.2307C117.647 20.1144 118.967 21.8659 120.575 22.6898C120.552 23.3247 120.557 23.8718 120.575 24.2486C120.575 24.2486 120.576 24.2513 120.574 24.2549C120.012 23.0815 118.975 21.7971 117.071 21.4507C117.213 24.7108 118.956 26.0386 120.731 26.3494C120.812 27.1394 120.924 28.0219 121.086 28.9933C121.111 29.1446 121.138 29.2923 121.163 29.4409C120.504 28.182 118.954 26.0939 115.943 26.2318C116.812 29.7483 119.218 30.6187 121.338 30.3897C121.668 32.0743 122.042 33.5299 122.344 34.5876C122.706 35.8575 122.842 36.2102 122.844 36.2156L122.94 36.4822L122.991 36.399L123.181 36.0951L123.37 35.7913L123.517 35.9747C123.518 35.9774 123.375 35.6419 123 34.3973C122.676 33.3232 122.274 31.8222 121.926 30.0805C124.005 29.769 126.067 28.3442 126.104 24.7839C123.112 25.3648 122.096 27.8085 121.757 29.178C121.74 29.081 121.721 28.9877 121.705 28.8907C121.528 27.8641 121.407 26.9453 121.323 26.12C123.165 25.9111 125.053 24.6525 125.297 21.292C122.685 21.7018 121.638 23.8936 121.237 25.1869C121.212 24.8426 121.19 24.521 121.177 24.2239C121.159 23.8561 121.132 23.3045 121.112 22.684C122.778 22.1141 124.276 20.6263 123.728 17.6876C122.133 18.3365 121.425 19.5447 121.118 20.6171C121.146 19.8963 121.203 19.1601 121.309 18.4194C121.326 18.3054 121.345 18.2085 121.364 18.0999C122.983 17.3677 124.359 15.7302 123.51 12.8341Z" fill="#1C774D"/>
<path d="M94.1955 18.029C93.7817 21.3187 96.7286 22.7327 97.1404 22.9158C97.2123 22.9975 97.2733 23.0737 97.3524 23.1591C97.8097 23.6647 98.2906 24.1413 98.7807 24.5909C97.824 24.103 96.5423 23.8253 95.0497 24.4552C96.7754 27.0062 98.9635 26.9205 100.561 26.0689C101.067 26.4496 101.515 26.7596 101.833 26.9588C101.833 26.9615 101.836 26.9606 101.836 26.9606C100.556 26.7517 98.9113 26.8714 97.5328 28.2352C100.276 29.982 102.362 29.3092 103.635 28.0284C104.327 28.4142 105.114 28.8256 105.999 29.2499C106.138 29.3154 106.273 29.3792 106.411 29.442C105.006 29.2654 102.407 29.3455 100.792 31.8968C104.163 33.1915 106.256 31.7146 107.287 29.8419C108.853 30.5351 110.257 31.0585 111.294 31.4144C112.54 31.8424 112.908 31.9348 112.91 31.9339L113.183 32.0062L113.145 31.9164L113.004 31.5864L112.863 31.2564L113.098 31.2389C113.101 31.2408 112.743 31.1665 111.511 30.7639C110.446 30.4143 108.989 29.8871 107.368 29.1792C108.308 27.2945 108.328 24.7834 105.441 22.7193C104.196 25.5097 105.607 27.7402 106.533 28.8048C106.445 28.7647 106.357 28.7274 106.268 28.6846C105.327 28.2457 104.508 27.8179 103.783 27.4157C104.671 25.7835 104.727 23.5135 102.123 21.3922C100.958 23.7734 102.143 25.8883 102.973 26.9518C102.675 26.7762 102.404 26.6098 102.15 26.4498C101.839 26.2542 101.37 25.9605 100.854 25.6223C101.345 23.9284 100.991 21.8456 98.2757 20.6169C97.8908 22.2966 98.4674 23.5704 99.166 24.4361C98.5928 23.9991 98.0252 23.533 97.4821 23.0227C97.3994 22.9446 97.3302 22.8711 97.2511 22.7948C97.5957 21.0561 97.0506 18.9882 94.1955 18.029Z" fill="#1C774D"/>
<path d="M125.304 35.5116C136.292 37.6267 142.371 31.9921 145.515 23.3927C134.098 19.7049 124.43 27.832 125.304 35.5116Z" fill="#A3CB69"/>
<path d="M144.001 23.5549C144.053 23.6573 144.012 23.7825 143.911 23.8365C143.911 23.8365 141.333 25.153 137.957 27.0379C139.431 27.1987 140.593 28.0101 140.593 28.0101C140.686 28.0757 140.71 28.2064 140.644 28.2995C140.579 28.3926 140.448 28.4174 140.356 28.3518C140.356 28.3518 138.889 27.3425 137.282 27.418C136.503 27.8573 135.702 28.3118 134.875 28.7986C134.433 29.0562 133.983 29.3244 133.536 29.5952L137.454 31.4877C137.557 31.5374 137.602 31.6632 137.552 31.767C137.502 31.8708 137.377 31.9158 137.273 31.8662L133.104 29.8536C131.875 30.5945 130.645 31.3649 129.478 32.1334C130.038 32.4127 130.906 32.5336 131.677 32.556C132.559 32.5801 133.294 32.498 133.294 32.498C133.349 32.4925 133.404 32.5075 133.446 32.5424C133.489 32.5773 133.517 32.6271 133.522 32.6832C133.534 32.7979 133.451 32.9008 133.337 32.9133C133.337 32.9133 132.579 32.9992 131.665 32.9729C130.787 32.9499 129.762 32.8423 129.078 32.4029C126.396 34.1925 124.082 35.9602 122.962 37.3551C122.891 37.4447 122.759 37.4606 122.668 37.3872C122.579 37.3163 122.564 37.1839 122.637 37.0929C123.834 35.6017 126.205 33.7951 128.93 31.988C129.244 28.9098 129.925 27.2651 129.925 27.2651C129.97 27.1577 130.092 27.1077 130.197 27.1534C130.304 27.1978 130.353 27.3207 130.307 27.4256C130.307 27.4256 129.708 28.8893 129.385 31.6836C130.533 30.9328 131.733 30.1857 132.934 29.4641L133.494 24.8307C133.509 24.7172 133.613 24.6348 133.725 24.6469C133.838 24.6614 133.92 24.766 133.908 24.8781L133.388 29.193C133.815 28.9374 134.242 28.6819 134.661 28.437C135.404 28.0022 136.127 27.5914 136.832 27.1905C136.832 27.1841 136.833 27.1802 136.833 27.1738C137.326 25.2942 137.781 24.1853 138.116 23.5387C138.285 23.216 138.423 23.0064 138.524 22.8768C138.624 22.7473 138.702 22.6804 138.702 22.6804C138.793 22.609 138.922 22.624 138.993 22.715C139.064 22.8061 139.049 22.9363 138.958 23.0077C138.958 23.0077 138.934 23.0243 138.85 23.1312C138.766 23.2381 138.641 23.424 138.483 23.7308C138.191 24.2906 137.789 25.3071 137.347 26.8983C140.925 24.8887 143.718 23.4597 143.718 23.4597C143.824 23.4093 143.95 23.4526 144.001 23.5549Z" fill="#D3EAAC"/>
<path d="M123.055 41.8936C132.436 48.0045 140.179 45.0793 146.316 38.2981C137.125 30.568 125.126 34.4465 123.055 41.8936Z" fill="#A3CB69"/>
<path d="M145.004 38.2408C145.013 38.3549 144.928 38.4553 144.815 38.4672C144.815 38.4672 141.934 38.7137 138.1 39.1853C139.405 39.891 140.176 41.0814 140.176 41.0814C140.237 41.1771 140.211 41.3074 140.115 41.3689C140.02 41.4303 139.89 41.4041 139.828 41.3083C139.828 41.3083 138.849 39.8195 137.333 39.2826C136.446 39.3954 135.535 39.5144 134.585 39.6528C134.079 39.7246 133.563 39.8035 133.047 39.8853L135.965 43.1181C136.042 43.2032 136.036 43.3365 135.951 43.4139C135.866 43.4913 135.733 43.4856 135.656 43.4006L132.55 39.9617C131.134 40.184 129.707 40.4337 128.337 40.7048C128.751 41.1752 129.51 41.615 130.214 41.9265C131.023 42.2821 131.733 42.4832 131.733 42.4832C131.787 42.4992 131.832 42.5338 131.858 42.5822C131.885 42.6306 131.892 42.6873 131.876 42.7413C131.844 42.8521 131.728 42.9162 131.618 42.8845C131.618 42.8845 130.883 42.6778 130.047 42.3085C129.242 41.9554 128.334 41.4688 127.866 40.8037C124.711 41.449 121.905 42.213 120.344 43.0824C120.245 43.1386 120.117 43.1035 120.06 43.0013C120.004 42.902 120.04 42.7735 120.142 42.7169C121.81 41.7874 124.683 41.0088 127.884 40.3633C129.33 37.6299 130.578 36.3633 130.578 36.3633C130.659 36.2806 130.792 36.2806 130.871 36.3624C130.954 36.4439 130.954 36.5765 130.872 36.6563C130.872 36.6563 129.767 37.7861 128.42 40.253C129.765 39.991 131.156 39.7517 132.539 39.5366L134.796 35.4553C134.852 35.3529 134.98 35.3189 135.079 35.3723C135.178 35.4285 135.215 35.5563 135.161 35.6555L133.061 39.457C133.552 39.3813 134.043 39.3057 134.524 39.2372C135.374 39.1146 136.198 39.0071 137.002 38.9022C137.004 38.8961 137.006 38.8929 137.008 38.8869C138.17 37.3317 139.008 36.4761 139.56 36.0034C139.838 35.7683 140.044 35.6261 140.186 35.5441C140.328 35.4622 140.425 35.4294 140.425 35.4294C140.536 35.3976 140.65 35.4605 140.682 35.5716C140.713 35.6828 140.65 35.7976 140.539 35.8294C140.539 35.8294 140.511 35.836 140.393 35.9033C140.275 35.9705 140.09 36.0956 139.828 36.32C139.348 36.7285 138.594 37.5185 137.588 38.8257C141.655 38.3149 144.778 38.0455 144.778 38.0455C144.895 38.0389 144.995 38.1238 145.004 38.2408Z" fill="#D3EAAC"/>
<path opacity="0.1" d="M130.408 34.8352C128.677 35.4161 127.141 36.3034 125.9 37.4234C125.571 38.1818 125.368 39.0017 125.251 39.7987C125.196 40.178 125.637 40.7262 125.745 41.0497C126.383 42.9973 127.408 42.9269 129.307 42.7855C130.408 42.7023 131.241 42.0626 132.208 41.743C133.943 41.1702 134.967 39.8622 135.743 38.3242C136.4 37.0238 136.112 35.3565 135.414 34.0687C133.649 34.0454 131.954 34.3188 130.408 34.8352Z" fill="black"/>
<path d="M113.125 37.7921C103.558 31.9582 102.85 23.6928 106.313 15.2086C117.258 20.1698 118.946 32.6953 113.125 37.7921Z" fill="#A3CB69"/>
<path d="M106.931 16.3687C106.824 16.4101 106.77 16.5305 106.809 16.6384C106.809 16.6384 107.832 19.3502 109.065 23.0208C107.863 22.1467 106.455 21.965 106.455 21.965C106.342 21.9511 106.236 22.0315 106.222 22.1447C106.208 22.2579 106.288 22.3641 106.401 22.3779C106.401 22.3779 108.168 22.6184 109.309 23.757C109.59 24.6073 109.877 25.483 110.163 26.4014C110.317 26.89 110.469 27.3913 110.619 27.8935L106.438 26.6555C106.328 26.6227 106.21 26.6858 106.177 26.7963C106.144 26.9067 106.207 27.0246 106.317 27.0575L110.765 28.3757C111.176 29.7527 111.568 31.1513 111.916 32.5073C111.312 32.3365 110.587 31.8412 110.001 31.3389C109.33 30.7621 108.841 30.2066 108.841 30.2066C108.804 30.1649 108.753 30.1394 108.698 30.1365C108.643 30.1337 108.589 30.1517 108.547 30.1896C108.461 30.2664 108.453 30.3987 108.529 30.4849C108.529 30.4849 109.033 31.0595 109.728 31.6553C110.395 32.2303 111.228 32.8409 112.03 32.9759C112.813 36.1084 113.337 38.9767 113.227 40.7646C113.219 40.8787 113.306 40.9795 113.423 40.9861C113.537 40.9936 113.637 40.906 113.644 40.7891C113.762 38.878 113.222 35.9426 112.42 32.7684C114.262 30.277 114.866 28.5998 114.866 28.5998C114.906 28.4903 114.848 28.3706 114.74 28.3341C114.631 28.2949 114.511 28.3526 114.475 28.4612C114.475 28.4612 113.932 29.9492 112.288 32.2364C111.943 30.9067 111.557 29.5452 111.153 28.2018L113.861 24.3924C113.927 24.2984 113.905 24.167 113.814 24.1006C113.72 24.0352 113.589 24.0575 113.523 24.1489L110.999 27.695C110.855 27.2182 110.711 26.7414 110.565 26.2773C110.308 25.455 110.048 24.6636 109.795 23.8912C109.8 23.8867 109.802 23.8831 109.806 23.8786C110.708 22.1541 111.118 21.0263 111.306 20.3219C111.398 19.9689 111.437 19.7207 111.45 19.5568C111.462 19.3929 111.45 19.2914 111.45 19.2914C111.431 19.1772 111.324 19.1009 111.21 19.1205C111.096 19.1402 111.02 19.2469 111.039 19.3611C111.039 19.3611 111.046 19.3892 111.036 19.5251C111.026 19.6609 110.993 19.8828 110.904 20.2168C110.743 20.8279 110.356 21.8516 109.611 23.3283C108.313 19.4292 107.205 16.4889 107.205 16.4889C107.161 16.3801 107.041 16.3264 106.931 16.3687Z" fill="#D3EAAC"/>
<path d="M114.481 34.6058C112.668 30.925 108.997 23.2292 113.945 21.7853C119.946 20.0342 118.142 28.3696 120.652 29.0624C121.277 29.2349 121.75 29.0811 122.153 28.5651C122.873 27.6423 123.065 25.8491 123.372 24.6629C124.017 22.141 126.665 20.3235 128.632 21.4189C133.423 24.0887 127.693 29.7028 127.684 31.7336C127.664 35.624 135.519 30.9236 135.401 36.5095C135.257 43.3367 119.007 43.7992 114.481 34.6058Z" fill="#62AA4B"/>
<path d="M114.209 24.3132C114.098 24.3411 114.031 24.4568 114.058 24.5682C114.675 27.0031 115.736 29.1973 116.863 31.3545C116.944 31.5113 117.039 31.6609 117.137 31.806C117.12 31.7996 117.107 31.795 117.089 31.7887C116.741 31.6602 116.306 31.4157 115.884 31.1278C115.461 30.8399 115.047 30.5103 114.724 30.2135C114.401 29.9168 114.169 29.6293 114.13 29.5368C114.083 29.4317 113.961 29.3816 113.856 29.4285C113.752 29.4753 113.701 29.5974 113.748 29.7025C113.856 29.9499 114.103 30.2085 114.443 30.5207C114.782 30.8329 115.21 31.1734 115.651 31.4731C116.092 31.7729 116.544 32.0328 116.95 32.1813C117.149 32.2541 117.335 32.3007 117.514 32.3048C117.946 32.8516 118.41 33.3515 118.704 33.908C119.299 35.0456 120.226 36.2626 120.999 37.0429C121.009 37.0547 121.021 37.0629 121.032 37.071C120.811 37.4607 120.59 37.8505 120.362 38.2392C119.941 38.9544 119.339 40.0395 118.712 41.0457C118.084 42.0492 117.416 42.9757 116.945 43.3277C116.853 43.3972 116.833 43.5275 116.902 43.6191C116.971 43.7107 117.101 43.7309 117.193 43.6614C117.782 43.2218 118.429 42.2845 119.064 41.2665C119.699 40.2485 120.304 39.1562 120.72 38.4519C120.96 38.0441 121.192 37.6327 121.425 37.224C121.493 37.2378 121.556 37.256 121.626 37.2688C121.866 37.3101 122.123 37.3424 122.272 37.3771C123.328 37.6149 124.443 37.8057 125.581 37.9286C125.622 38.0084 125.677 38.0836 125.739 38.1535C126.007 38.4592 126.44 38.7164 126.93 38.9547C127.42 39.1902 127.969 39.3997 128.46 39.5656C129.024 39.7551 129.757 39.6056 130.199 39.6038C130.314 39.605 130.406 39.5111 130.408 39.3961C130.409 39.2811 130.315 39.1858 130.201 39.1874C129.683 39.1871 128.973 39.296 128.595 39.1684C128.115 39.008 127.579 38.8031 127.114 38.5775C126.721 38.3884 126.379 38.1794 126.165 37.9851C128.6 38.1934 131.103 38.0659 133.274 37.3465C133.382 37.3105 133.442 37.1912 133.407 37.0824C133.371 36.9737 133.252 36.9137 133.144 36.9497C130.965 37.6718 128.402 37.7801 125.914 37.541C125.925 37.4921 125.953 37.4378 126.023 37.3665C126.219 37.1659 126.748 36.9091 127.716 36.6877C127.828 36.6626 127.9 36.5514 127.875 36.4363C127.85 36.324 127.739 36.2522 127.627 36.2773C127.129 36.3912 126.732 36.5107 126.422 36.6377C126.112 36.7674 125.885 36.909 125.73 37.0689C125.608 37.1935 125.53 37.34 125.507 37.4921C124.431 37.3729 123.372 37.1904 122.372 36.9645C122.183 36.9215 121.93 36.8911 121.707 36.8535C121.684 36.8489 121.671 36.8443 121.649 36.8425C123.098 34.2592 124.389 31.6321 125.459 28.9275C125.975 28.4733 126.704 27.9363 127.355 27.3348C128.062 26.6818 128.687 25.9535 128.808 25.1209C128.825 25.0068 128.745 24.9007 128.631 24.8842C128.518 24.8676 128.411 24.9452 128.395 25.062C128.298 25.7209 127.751 26.4023 127.071 27.0281C126.642 27.4237 126.186 27.7884 125.764 28.1333C126.337 26.6118 126.842 25.0676 127.263 23.4878C127.292 23.3756 127.228 23.2614 127.116 23.2322C127.004 23.2029 126.89 23.2679 126.861 23.3801C126.396 25.1127 125.835 26.8081 125.187 28.4752C124.72 27.6901 124.673 26.5457 124.786 25.7881C124.803 25.6741 124.723 25.568 124.609 25.5515C124.555 25.5423 124.5 25.5575 124.453 25.5909C124.41 25.6234 124.378 25.6732 124.372 25.7293C124.239 26.6352 124.248 28.0421 124.991 28.9772C123.939 31.6093 122.673 34.1713 121.255 36.6931C120.526 35.9464 119.637 34.7738 119.08 33.7079C118.782 33.1378 118.359 32.6543 117.968 32.1754C117.99 32.1592 118.009 32.1438 118.027 32.1257C118.267 31.8864 118.364 31.538 118.396 31.1597C118.432 30.7804 118.401 30.3566 118.347 29.9346C118.24 29.0933 118.033 28.2401 118.009 27.9078C118.001 27.7928 117.9 27.7056 117.786 27.7135C117.671 27.7214 117.584 27.8226 117.591 27.9376C117.623 28.3759 117.826 29.1793 117.932 29.988C117.983 30.3928 118.008 30.7912 117.981 31.1225C117.951 31.452 117.864 31.7008 117.734 31.8281C117.728 31.8363 117.718 31.8426 117.705 31.8498C117.532 31.624 117.369 31.3946 117.244 31.1498C116.119 28.9981 115.075 26.8374 114.472 24.4551C114.432 24.3509 114.319 24.2827 114.209 24.3132Z" fill="#86C96D"/>
<path opacity="0.1" d="M106.719 31.7986C106.719 31.7986 110.331 29.5418 120.515 33.7118C130.699 37.8818 133.328 41.9623 133.817 43.0963C134.306 44.2303 133.233 47.0597 133.233 47.0597L106.719 31.7986Z" fill="black"/>
<path d="M102.429 131.146C130.41 131.146 153.093 108.373 153.093 80.2823C153.093 52.1913 130.41 29.4191 102.429 29.4191C74.4483 29.4191 51.7653 52.1913 51.7653 80.2823C51.7653 108.373 74.4483 131.146 102.429 131.146Z" fill="#A9CE72"/>
<path d="M102.429 29.4191C93.8349 29.4563 85.3919 31.6907 77.8933 35.9073C78.0303 36.761 78.2728 37.6318 78.6979 38.5456C80.0247 41.4044 82.0221 43.3924 85.0095 44.2489C93.0616 46.5578 90.8503 38.2964 97.9494 37.2766C102.024 36.6922 107.111 40.2414 110.889 38.8607C114.456 37.5602 115.089 34.2659 116.319 31.3698C111.805 30.0779 107.129 29.4219 102.429 29.4191ZM132.928 39.6943C129.587 43.1776 121.992 40.0523 118.784 44.8849C116.219 48.7463 122.166 52.1351 120.993 55.6585C120.348 57.6007 108.587 58.6348 111.209 63.897C113.588 68.678 122.571 61.4764 122.571 70.5514C122.571 72.0381 122.796 73.8113 121.623 74.9886C118.727 77.8961 113.406 76.2691 110.575 79.1078C108.224 81.4682 110.918 84.9 109.945 87.3463C109.063 89.5606 106.372 90.8783 104.894 92.7317C104.415 93.3333 99.5244 115.224 99.5273 115.23C100.532 117.247 107.659 107.501 109.942 106.992C112.096 106.51 114.402 107.507 116.57 107.31C120.234 106.974 128.591 104.866 130.144 100.97C131.179 98.3721 129.339 94.4992 130.774 92.0987C131.953 90.1278 134.578 89.744 134.877 87.0284C135.12 84.8427 135.191 82.5854 135.191 80.374C135.191 78.6323 134.706 76.9566 136.455 76.2547C142.461 73.8428 141.888 86.1117 146.239 88.2974C147.771 89.0679 150.342 87.6156 151.606 87.0312C151.963 86.8651 152.268 86.6961 152.599 86.5299C152.89 84.4617 153.053 82.3763 153.087 80.2852C153.084 64.3267 145.617 49.2992 132.928 39.6943ZM61.6864 50.0984C55.2521 58.8382 51.7767 69.4141 51.7653 80.2823C51.7796 85.8081 52.6898 91.2937 54.4617 96.5244C56.3449 96.9398 58.2681 97.2148 60.0771 96.851C63.8977 96.0833 65.4328 92.4768 69.8612 93.3648C75.1969 94.4361 76.5294 100.326 82.801 98.753C87.8372 97.4898 81.4314 85.0146 80.5925 82.9091C78.4212 77.4579 86.3192 75.129 84.6956 70.2334C82.7325 64.3238 77.6879 66.3662 74.281 62.946C72.2351 60.8921 73.6789 57.2712 71.4391 55.0254C68.4859 52.0577 60.9388 56.747 61.6864 50.0984Z" fill="#60B141"/>
<path d="M91.4438 48.7749C92.5052 48.3882 93.4154 47.6721 94.4398 47.1994C95.4641 46.7239 96.7424 46.5234 97.6754 47.1622C98.8396 47.9585 98.9338 49.6716 98.5314 51.0265C98.1833 52.1952 97.5499 53.2924 96.6425 54.1002C94.5739 55.9392 91.5294 56.0194 88.9642 57.0564C88.0911 57.4087 87.2408 57.8843 86.3049 57.953C85.3034 58.0275 84.3218 57.6293 83.4601 57.1108C82.8039 56.7155 82.1733 56.2285 81.8138 55.5525C81.0862 54.189 81.6939 52.4187 82.8096 51.3531C83.8311 50.3762 85.5773 49.471 86.9612 49.1645C88.4449 48.8294 89.9401 49.3221 91.4438 48.7749Z" fill="#60B141"/>
<path d="M69.67 108.922C70.3177 109.441 71.071 109.859 71.8899 109.985C73.4621 110.226 75.1284 109.234 75.7048 107.745C76.2812 106.255 75.7447 104.419 74.4807 103.451C73.8387 102.958 73.0169 102.649 72.5947 101.956C72.2037 101.317 72.2437 100.478 71.8271 99.8559C71.4761 99.3345 70.8399 99.0567 70.215 99.028C68.0664 98.9335 65.7352 101.056 66.1547 103.262C66.5228 105.213 68.1492 107.711 69.67 108.922Z" fill="#60B141"/>
<path d="M80.9235 110.435C81.6797 110.996 82.7297 111.223 83.5771 110.816C84.416 110.412 84.8897 109.487 85.078 108.57C85.1778 108.089 85.2092 107.567 84.9952 107.126C84.6842 106.485 83.9538 106.181 83.2804 105.955C82.3702 105.645 81.3829 105.37 80.4613 105.642C77.7963 106.424 79.5111 109.383 80.9235 110.435Z" fill="#60B141"/>
<path d="M89.0612 97.8994C89.4036 98.1543 89.8773 98.2574 90.2625 98.0713C90.642 97.8879 90.856 97.4697 90.9416 97.0572C90.9872 96.8395 91.0015 96.6046 90.9045 96.4041C90.7647 96.1148 90.4337 95.9773 90.1284 95.8741C89.7175 95.7338 89.2695 95.6106 88.853 95.7338C87.646 96.0861 88.4221 97.4239 89.0612 97.8994Z" fill="#60B141"/>
<path d="M89.3266 87.3406C90.5935 87.6041 92.0572 86.9825 92.5452 85.7823C92.9104 84.8828 92.6935 83.82 92.1742 83.0008C91.6549 82.1815 90.8674 81.5656 90.0513 81.0414C84.9096 77.7357 84.7356 86.3896 89.3266 87.3406Z" fill="#60B141"/>
<path d="M112.073 43.6731C111.976 44.3148 112.324 45.0338 112.935 45.2458C113.392 45.4062 113.914 45.2687 114.308 44.9851C114.701 44.7015 114.987 44.2919 115.223 43.8679C116.73 41.201 112.421 41.3471 112.073 43.6731Z" fill="#60B141"/>
<path d="M89.4293 62.8056C89.9686 62.4704 90.2825 61.7543 90.0542 61.1613C89.883 60.7173 89.4493 60.4137 88.9899 60.2962C88.5305 60.1788 88.0426 60.2275 87.5775 60.3163C84.6357 60.8777 87.4776 64.0173 89.4293 62.8056Z" fill="#60B141"/>
<path d="M107.899 68.9902C106.917 69.3454 105.913 69.8496 105.394 70.7576C104.96 71.5139 104.934 72.4277 104.92 73.2985C104.914 73.6938 104.912 74.1092 105.097 74.4558C105.308 74.8511 105.722 75.086 106.127 75.2722C108.906 76.5412 112.347 76.2146 114.841 74.4501C115.118 74.2553 115.389 74.0376 115.572 73.7511C115.791 73.4073 115.865 72.9891 115.891 72.5795C116.231 67.3631 111.329 67.7441 107.899 68.9902Z" fill="#60B141"/>
<path d="M136.312 102.44C136.626 103.167 137.42 103.6 138.204 103.671C138.989 103.743 139.774 103.508 140.501 103.207C141.545 102.778 142.53 102.208 143.426 101.517C143.857 101.185 144.276 100.813 144.507 100.32C144.744 99.8215 144.764 99.2486 144.781 98.6957C144.798 98.0913 144.807 97.4468 144.487 96.934C144.179 96.4327 143.617 96.1549 143.075 95.9286C138.792 94.164 134.212 97.59 136.312 102.44Z" fill="#60B141"/>
<path d="M125.381 125.637C118.491 129.158 110.69 131.146 102.429 131.146C101.907 131.143 101.388 131.134 100.868 131.117C100.674 131.014 100.486 130.899 100.303 130.77C99.1078 129.917 98.3973 128.129 99.2733 126.946C99.5729 126.539 100.015 126.264 100.446 126.001C102.849 124.52 105.28 123.025 107.956 122.139C108.963 121.804 110.073 121.561 111.072 121.913C111.608 122.102 112.073 122.452 112.604 122.661C114.872 123.557 117.332 121.693 119.766 121.847C121.826 121.979 123.977 123.741 125.381 125.637Z" fill="#60B141"/>
<path opacity="0.1" d="M96.6254 32.8451C81.226 34.7586 66.6397 48.0559 66.6397 61.0467C66.6397 74.0376 79.2657 87.3463 96.9393 83.8602C114.616 80.374 129.764 80.0589 130.711 61.0467C131.661 42.0318 114.393 30.6365 96.6254 32.8451Z" fill="white"/>
<path opacity="0.2" d="M153.093 80.2823C153.093 100.079 141.828 117.235 125.381 125.637C118.491 129.158 110.69 131.146 102.429 131.146C101.907 131.143 101.388 131.134 100.868 131.117C74.7261 130.246 53.4231 109.449 51.9822 83.0609C60.0828 95.4874 79.6024 118.12 109.568 107.31C138.812 96.7564 148.673 82.9005 152.388 71.8376C152.856 74.6277 153.093 77.4521 153.093 80.2823Z" fill="#A9CE72"/>
<path d="M69.287 68.5204C69.287 68.5204 71.2958 70.8722 73.082 70.5371C74.8682 70.2019 75.65 70.2019 76.9882 70.4253C78.3264 70.6488 80.4464 68.6321 80.4464 68.6321C80.4464 68.6321 78.6602 68.7438 77.0995 67.8472C75.5358 66.9506 74.5315 66.9506 73.1932 67.6238C71.8522 68.2941 69.287 68.5204 69.287 68.5204Z" fill="#986A44"/>
<path d="M74.6427 67.7355C75.3076 63.7538 71.7951 63.6306 69.6209 61.0124C69.1586 60.4566 68.1628 59.0444 68.1714 57.2025C69.0959 58.1306 71.8978 59.1762 72.9707 60.2275C73.8352 61.0754 74.1405 62.8056 74.1976 62.8056C74.2119 62.8056 74.1776 62.2871 74.1976 62.2441C74.4031 61.8316 74.4401 61.3074 74.6427 60.9006C76.0608 58.0533 73.6212 55.8791 76.874 52.6106C76.9939 52.4903 77.4961 51.8257 77.6558 51.8257C77.673 51.8257 77.4333 53.2981 77.4333 53.3955C77.4333 56.1569 78.6602 56.9819 77.322 59.6689C76.9853 60.3449 75.941 61.0553 75.5358 61.4621C75.319 61.6798 75.0964 62.5764 75.3133 62.3587C77.7272 59.9353 80.6205 62.2355 83.3483 61.6855C83.5166 61.6512 84.8263 60.5941 84.9119 60.6772C85.1316 60.8978 83.3939 63.0978 83.1257 63.367C81.2996 65.2004 76.9511 64.5243 76.6543 64.8222C75.8953 65.5842 75.65 66.117 75.65 67.6238C75.65 67.767 75.9125 68.0334 75.8725 68.0707C75.6129 68.3285 74.7797 67.8042 74.6427 67.7355Z" fill="#3F7C25"/>
<path d="M114.104 92.9179C114.104 92.9179 116.113 95.2697 117.899 94.9346C119.685 94.5994 120.467 94.5994 121.805 94.8228C123.144 95.0463 125.264 93.0296 125.264 93.0296C125.264 93.0296 123.478 93.1413 121.917 92.2447C120.353 91.3481 119.349 91.3481 118.011 92.0213C116.672 92.6945 114.104 92.9179 114.104 92.9179Z" fill="#986A44"/>
<path d="M120.596 92.0213C119.931 88.0396 123.443 87.9164 125.618 85.2982C126.08 84.7424 127.076 83.3302 127.067 81.4883C126.143 82.4164 123.341 83.462 122.268 84.5133C121.403 85.3612 121.098 87.0914 121.041 87.0914C121.027 87.0914 121.061 86.5729 121.041 86.5299C120.835 86.1174 120.798 85.5932 120.596 85.1864C119.178 82.3391 121.617 80.1649 118.364 76.8964C118.245 76.7761 117.742 76.1115 117.583 76.1115C117.565 76.1115 117.805 77.5839 117.805 77.6813C117.805 80.4427 116.578 81.2677 117.916 83.9547C118.253 84.6307 119.297 85.3411 119.703 85.7479C119.919 85.9656 120.142 86.8622 119.925 86.6445C117.511 84.2211 114.618 86.5213 111.89 85.9713C111.722 85.937 110.412 84.8799 110.327 84.963C110.107 85.1836 111.845 87.3836 112.113 87.6528C113.939 89.4862 118.287 88.8101 118.584 89.108C119.343 89.87 119.588 90.4028 119.588 91.9096C119.588 92.0528 119.326 92.3192 119.366 92.3565C119.626 92.6143 120.459 92.0901 120.596 92.0213Z" fill="#3F7C25"/>
<path d="M15.4874 134.242H202.361C202.361 134.242 192.112 129.129 182.467 129.937C172.823 130.744 167.396 131.822 161.37 130.206C155.341 128.59 139.667 125.631 125.201 126.978C110.735 128.324 96.8673 131.283 89.6341 130.206C82.4009 129.129 74.5628 126.708 63.1096 127.516C51.6563 128.324 48.0383 131.283 41.4071 130.475C34.7788 129.667 17.8985 130.744 15.4874 134.242Z" fill="#2EC27E"/>
<path d="M172.365 80.3666L185.858 134.241H185.41L185.036 132.745H176.525L176.898 134.241H176.451L162.963 80.3838L163.405 80.3637H171.917L172.365 80.3666ZM172.042 80.8736H163.531L165.568 89.0119H174.079L172.042 80.8736ZM174.208 89.5189H165.696L167.734 97.6571H176.245L174.208 89.5189ZM176.373 98.1642H167.862L169.899 106.302H178.411L176.373 98.1642ZM178.539 106.809H170.028L172.065 114.948H180.576L178.539 106.809ZM180.705 115.455H172.193L174.231 123.593H182.742L180.705 115.455ZM182.871 124.1H174.359L176.396 132.238H184.908L182.871 124.1Z" fill="#124C03"/>
<path d="M142.051 80.3666L128.557 134.241H129.005L129.379 132.745H137.891L137.517 134.241H137.965L151.452 80.3838L151.01 80.3637H142.499L142.051 80.3666ZM142.373 80.8736H150.885L148.847 89.0119H140.336L142.373 80.8736ZM140.207 89.5189H148.719L146.682 97.6571H138.17L140.207 89.5189ZM138.042 98.1642H146.553L144.516 106.302H136.005L138.042 98.1642ZM135.879 106.809H144.39L142.353 114.948H133.842L135.879 106.809ZM133.713 115.455H142.225L140.187 123.593H131.676L133.713 115.455ZM131.548 124.1H140.059L138.022 132.238H129.51L131.548 124.1Z" fill="#124C03"/>
<path d="M172.036 78.5619H142.524C141.349 78.5619 140.393 79.1291 140.393 79.8281C140.393 80.527 141.346 81.0942 142.524 81.0942H172.036C173.212 81.0942 174.168 80.527 174.168 79.8281C174.165 79.1291 173.212 78.5619 172.036 78.5619Z" fill="#124C03"/>
<path d="M191.264 132.658C191.264 125.744 191.155 123.625 190.981 120.168C190.806 116.712 190.59 116.712 190.414 120.168C190.238 123.625 190.132 125.746 190.132 132.658H190.699H191.264Z" fill="#A9CE72"/>
<path d="M190.697 117.094C191.324 117.094 191.831 117.603 191.831 118.233C191.831 118.862 191.324 119.372 190.697 119.372C190.07 119.372 189.563 118.862 189.563 118.233C189.563 117.603 190.07 117.094 190.697 117.094Z" fill="#60B141"/>
<path d="M191.3 115.062C191.3 117.769 191.027 118.202 190.69 118.202C190.353 118.202 190.079 117.769 190.079 115.062C190.079 112.355 190.353 108.399 190.69 108.399C191.027 108.397 191.3 112.353 191.3 115.062ZM187.687 119.239C190.023 117.885 190.532 117.905 190.701 118.2C190.869 118.495 190.632 118.948 188.296 120.301C185.96 121.655 182.411 123.395 182.242 123.103C182.074 122.81 185.352 120.592 187.687 119.239ZM193.096 120.29C190.76 118.937 190.523 118.482 190.691 118.189C190.86 117.896 191.371 117.874 193.705 119.228C196.04 120.581 199.316 122.797 199.148 123.09C198.981 123.385 195.432 121.646 193.096 120.29Z" fill="#A9CE72"/>
<path d="M190.697 117.805C190.932 117.805 191.123 117.996 191.123 118.233C191.123 118.469 190.932 118.66 190.697 118.66C190.461 118.66 190.271 118.469 190.271 118.233C190.271 117.998 190.461 117.805 190.697 117.805Z" fill="#60B141"/>
<path d="M161.819 47.9981C161.819 47.9981 162.243 51.0403 162.023 53.5663C161.804 56.0884 161.713 61.4792 161.517 63.3668C161.321 65.2584 161.58 75.6658 161.58 75.6658C161.58 75.6658 160.638 76.4736 159.637 75.7722C158.196 67.741 157.474 63.0161 157.368 61.0261C157.266 59.036 157.352 49.0463 157.352 49.0463L161.819 47.9981Z" fill="#006600"/>
<path d="M161.972 71.1576L158.243 70.9094L159.115 76.7574L156.603 78.2548C156.603 78.2548 161.976 78.7711 162.785 78.507C162.227 73.9516 161.972 71.1576 161.972 71.1576Z" fill="#FF5F3A"/>
<path d="M155.798 25.7489C155.798 25.7489 156.151 27.2897 156.422 28.33C156.693 29.3704 156.921 30.0127 157.482 30.0166C157.98 30.0206 158.601 29.7841 159.425 29.3388C160.485 28.7674 160.846 28.1842 160.83 27.4867C160.807 26.5015 160.367 24.8858 159.617 24.145C158.867 23.4041 157.686 23.5736 156.658 24.1135C155.633 24.6533 155.735 25.3745 155.798 25.7489Z" fill="#F4B58E"/>
<path d="M164.795 47.9744C164.795 47.9744 165.458 50.9851 165.313 53.519C165.164 56.0529 165.313 61.4398 165.164 63.3432C165.014 65.2426 165.827 75.6224 165.827 75.6224C165.827 75.6224 164.72 76.4933 163.468 75.8589C161.329 67.9381 160.222 63.2644 160.002 61.2822C159.782 59.3 159.413 49.3222 159.413 49.3222L164.795 47.9744Z" fill="#006600"/>
<path d="M160.634 27.6562L161.945 31.0452L159.295 32.1367C159.295 32.1367 159.492 30.0639 158.903 29.1103C159.711 28.5507 160.634 27.6562 160.634 27.6562Z" fill="#F4B58E"/>
<path d="M160.493 30.2689C162.239 30.1979 162.667 31.1397 163.586 34.7494C164.343 37.7207 167.322 54.0353 167.099 65.1402C165.454 66.2633 159.087 67.7371 156.917 67.0238C155.445 59.832 156.76 53.3575 157.191 48.2227C157.58 43.5727 157.089 39.9788 156.018 38.7296C154.263 36.6883 155.986 34.9504 157.443 33.3111C158.483 32.1446 159.28 30.3201 160.493 30.2689Z" fill="#FFC407"/>
<path d="M165.78 71.1064H162.043L163.146 76.8874L160.697 78.5504C160.697 78.5504 166.086 78.708 166.879 78.3928C166.149 73.8767 165.78 71.1064 165.78 71.1064Z" fill="#FF5F3A"/>
<path d="M148.838 42.1895C148.838 42.1895 144.737 42.0319 141.42 44.0889C141.734 47.0208 142.998 51.7733 143.551 52.8018C147.103 52.723 150.891 51.1388 150.891 51.1388C150.891 51.1388 150.887 45.2002 148.838 42.1895Z" fill="#E5A50A"/>
<path d="M148.285 42.5087C148.285 42.5087 145.761 44.8849 142.052 44.0929C144.262 42.7451 148.285 42.5087 148.285 42.5087Z" fill="#63452C"/>
<path d="M145.6 43.222C145.6 43.222 144.733 40.4477 144.654 38.7059C144.576 36.9641 144.022 35.1396 144.022 35.1396L143.547 35.2972C143.547 35.2972 144.101 36.6449 144.179 37.5946C144.258 38.5443 144.415 40.0497 144.493 40.6841C144.572 41.3186 145.204 43.5372 145.204 43.5372L145.6 43.222Z" fill="#4B8720"/>
<path d="M144.536 39.1039C144.576 38.9069 145.208 36.6095 147.496 36.5701C146.943 38.7847 144.536 39.1039 144.536 39.1039Z" fill="#4B8720"/>
<path d="M144.222 37.24C144.222 37.24 142.919 35.179 141.066 35.4588C141.498 37.2006 144.222 37.24 144.222 37.24Z" fill="#4B8720"/>
<path d="M144.615 34.509C145.074 34.2411 145.212 33.5515 145.129 33.0431C144.96 32.0264 143.999 33.051 143.826 32.9643C143.63 32.8658 143.382 32.4954 143.076 32.7279C142.868 32.8855 142.817 33.315 142.64 33.4017C142.295 33.5751 141.922 32.9722 141.577 33.3229C141.49 33.4096 141.459 33.6263 141.459 33.7603C141.459 34.6785 142.244 34.9859 142.958 35.2263C143.551 35.4194 144.25 34.7534 144.615 34.509Z" fill="#FFC407"/>
<path d="M144.101 35.4982C144.246 35.0923 144.623 34.9662 144.811 34.5879C145.121 33.9652 144.25 34.4421 144.218 34.4302C144.105 34.3751 144.042 34.2293 143.904 34.1938C143.641 34.1268 143.641 34.3396 143.508 34.4696C143.382 34.5957 143.088 34.316 142.915 34.4302C142.727 34.5563 142.797 34.6627 142.797 34.7849C142.797 34.8204 142.582 34.9228 142.64 35.1002C142.856 35.7425 143.689 35.6006 144.101 35.4982Z" fill="#4B8720"/>
<path d="M148.709 44.7785C148.709 44.7785 148.411 45.015 147.708 45.0307C147.005 45.0465 146.562 44.9756 145.969 45.1411C145.372 45.3066 145.129 45.2948 144.89 45.2356C144.65 45.1765 144.595 45.3893 144.756 45.5509C144.917 45.7164 145.212 45.8701 145.494 45.7322C145.777 45.5982 146.134 45.5233 146.016 45.7401C145.898 45.9529 145.259 46.2051 144.909 46.4533C144.56 46.7055 144.101 47.0838 143.897 47.4897C143.692 47.8956 143.959 48.2542 144.262 48.5025C144.564 48.7508 145.353 48.6562 145.946 48.5301C146.538 48.404 147.838 47.3439 148.195 47.076C148.552 46.808 149.357 45.9962 149.357 45.9962L148.709 44.7785Z" fill="#F4B58E"/>
<path d="M160.728 30.6393C163.04 31.4747 161.964 34.8243 161.019 36.6449C160.073 38.4655 157.388 41.3186 156.599 42.0318C155.81 42.7451 150.601 45.7558 149.023 46.3903C148.548 46.1538 147.998 45.1214 147.998 45.1214C147.998 45.1214 152.1 40.9245 154.075 39.6556C156.049 38.3867 157.678 30.9703 160.728 30.6393Z" fill="#FFC407"/>
<path d="M161.941 31.8136C162.459 33.2007 161.705 35.3208 161.022 36.641C160.076 38.4616 157.392 41.3146 156.603 42.0279C156.159 42.4299 154.322 43.549 152.516 44.5736C153.686 43.6633 155.916 41.89 157.549 40.3649C159.837 38.2251 160.783 36.0853 161.415 34.5839C161.764 33.7564 161.894 32.653 161.941 31.8136Z" fill="#E5A50A"/>
<path d="M160.728 30.6393C160.838 30.6787 160.936 30.726 161.03 30.7732C160.563 30.8205 159.978 31.0333 159.366 31.652C157.945 33.0786 155.735 37.8311 155.735 37.8311C155.735 37.8311 155.343 39.494 154.471 40.6014C154.64 40.0576 154.707 39.4901 154.726 39.0093C156.43 36.8143 158.02 30.9348 160.728 30.6393Z" fill="#F6D32D"/>
<path d="M158.569 26.34C158.569 26.34 159.127 25.7804 159.405 26.3951C159.684 27.0099 159.181 27.404 159.515 27.7389C159.849 28.0739 160.575 28.6926 160.744 28.0739C160.913 27.4591 160.854 25.8316 160.465 24.7676C160.076 23.7036 159.35 23.1992 158.679 23.1992C158.008 23.1992 157.286 23.4239 156.559 23.7036C155.833 23.9834 155.276 24.543 155.445 25.272C155.613 26.0011 156.171 26.1666 156.618 26.336C157.062 26.5094 158.012 26.6749 158.569 26.34Z" fill="#63452C"/>
<path d="M159.331 23.613C159.331 23.613 159.291 20.6417 162.012 20.9215C164.732 21.2013 164.853 24.5666 164.693 27.0611C164.536 29.5556 165.756 30.3477 165.756 30.3477C165.756 30.3477 165.046 31.0215 163.864 30.1112C162.679 29.2009 162.326 27.4197 161.972 25.674C161.619 23.9322 160.948 23.1007 160.394 23.3765C159.841 23.6524 159.684 24.0504 159.684 24.0504L159.331 23.613Z" fill="#63452C"/>
<path d="M23.1754 102.669L22.6246 106.298L34.9616 121.154L36.3011 108.832L48.8164 109.21L48.9115 111.212C49.4981 110.897 50.2947 110.547 51.2458 110.328C51.757 110.213 52.3119 110.137 52.9024 110.129C54.6699 110.101 56.7386 110.658 58.7439 112.477C61.5181 114.991 61.5775 119.185 59.6554 122.642C57.8879 125.821 54.4202 128.463 49.7636 128.853L49.9419 132.561L33.7766 132.072L34.165 128.483C31.2204 124.369 21.7884 109.218 20.9957 107.945L17.0208 107.726L23.1754 102.669ZM53.3026 111.271C52.6606 111.251 52.0543 111.327 51.5034 111.454C50.3541 111.717 49.4664 112.194 48.975 112.501L49.7081 127.687C53.9684 127.317 57.0675 124.922 58.6488 122.073C60.3807 118.962 60.2816 115.421 57.9711 113.328C56.3185 111.828 54.7174 111.315 53.3026 111.271Z" fill="#006600"/>
<mask id="mask0_2_554" style="mask-type:luminance" maskUnits="userSpaceOnUse" x="17" y="102" width="44" height="31">
<path d="M23.1754 102.669L22.6246 106.298L34.9616 121.154L36.3011 108.832L48.8164 109.21L48.9115 111.212C49.4981 110.897 50.2947 110.547 51.2458 110.328C51.757 110.213 52.3119 110.137 52.9024 110.129C54.6699 110.101 56.7386 110.658 58.7439 112.477C61.5181 114.991 61.5775 119.185 59.6554 122.642C57.8879 125.821 54.4202 128.463 49.7636 128.853L49.9419 132.561L33.7766 132.072L34.165 128.483C31.2204 124.369 21.7884 109.218 20.9957 107.945L17.0208 107.726L23.1754 102.669ZM53.3026 111.271C52.6606 111.251 52.0543 111.327 51.5034 111.454C50.3541 111.717 49.4664 112.194 48.975 112.501L49.7081 127.687C53.9684 127.317 57.0675 124.922 58.6488 122.073C60.3807 118.962 60.2816 115.421 57.9711 113.328C56.3185 111.828 54.7174 111.315 53.3026 111.271Z" fill="white"/>
</mask>
<g mask="url(#mask0_2_554)">
<path d="M15.6377 104.523L21.2375 107.018C21.2375 107.018 31.2363 123.557 32.9682 123.987C34.7 124.417 34.9616 121.15 34.9616 121.15L34.165 128.479L13.9018 108.693L15.6377 104.523Z" fill="#054205"/>
</g>
<mask id="mask1_2_554" style="mask-type:luminance" maskUnits="userSpaceOnUse" x="17" y="102" width="44" height="31">
<path d="M23.1754 102.669L22.6246 106.298L34.9616 121.154L36.3011 108.832L48.8164 109.21L48.9115 111.212C49.4981 110.897 50.2947 110.547 51.2458 110.328C51.757 110.213 52.3119 110.137 52.9024 110.129C54.6699 110.101 56.7386 110.658 58.7439 112.477C61.5181 114.991 61.5775 119.185 59.6554 122.642C57.8879 125.821 54.4202 128.463 49.7636 128.853L49.9419 132.561L33.7766 132.072L34.165 128.483C31.2204 124.369 21.7884 109.218 20.9957 107.945L17.0208 107.726L23.1754 102.669ZM53.3026 111.271C52.6606 111.251 52.0543 111.327 51.5034 111.454C50.3541 111.717 49.4664 112.194 48.975 112.501L49.7081 127.687C53.9684 127.317 57.0675 124.922 58.6488 122.073C60.3807 118.962 60.2816 115.421 57.9711 113.328C56.3185 111.828 54.7174 111.315 53.3026 111.271Z" fill="white"/>
</mask>
<g mask="url(#mask1_2_554)">
<path d="M48.9115 111.208L49.7636 128.849L57.2181 128.773L51.3409 107.304L48.9115 111.208Z" fill="#054205"/>
</g>
<path d="M40.9587 117.939C41.46 117.939 41.8759 118.476 42.2639 119.021C42.4207 119.241 42.6123 119.544 42.7792 119.825L42.2336 120.056L44.0549 120.193L45.1474 118.822L44.4661 119.111C43.9416 118.316 43.3611 117.939 42.9933 117.939H40.9587V117.939ZM39.451 124.512C39.2004 124.076 39.4549 123.446 39.7311 122.836C39.8429 122.589 40.0081 122.272 40.168 121.986L40.6398 122.344L39.8475 120.693L38.1186 120.428L38.7084 120.876C38.2839 121.73 38.2498 122.424 38.4337 122.743L39.451 124.512ZM45.8738 122.537C45.6231 122.973 44.9527 123.065 44.2884 123.13C44.0192 123.157 43.663 123.171 43.3363 123.176L43.41 122.586L42.3811 124.101L43.0174 125.736L43.1089 124.999C44.058 124.941 44.6725 124.624 44.8564 124.304L45.8738 122.537Z" fill="#A9CE72"/>
<path d="M39.0475 119.829L40.7469 120.56C40.7469 120.56 41.3126 119.549 41.6874 119.022C42.0753 118.476 42.4905 117.94 42.9926 117.94H40.9587C40.4908 117.939 39.7358 118.581 39.0475 119.829ZM42.0358 125.229L41.817 123.386C41.817 123.386 40.6615 123.4 40.019 123.337C39.3548 123.273 38.6843 123.179 38.4337 122.744L39.451 124.512C39.6846 124.918 40.6157 125.255 42.0358 125.229ZM45.2002 119.931L43.7197 121.042C43.7197 121.042 44.3094 122.04 44.5763 122.629C44.8526 123.239 45.1079 123.869 44.8565 124.305L45.8738 122.537C46.1081 122.13 45.932 121.152 45.2002 119.931Z" fill="#A9CE72"/>
<path d="M75.9005 69.62C76.136 68.9071 80.7153 58.4503 80.7153 58.4503C80.7153 58.4503 81.266 60.1125 80.9508 61.3018C80.6356 62.4912 78.9003 66.0556 78.9003 66.0556C78.9003 66.0556 78.3496 65.8956 78.0308 66.5321C77.7156 67.1649 76.2954 69.62 76.2954 69.62" fill="#DEDDDA"/>
<path d="M78.6032 69.62C78.3677 68.9071 73.7884 58.4503 73.7884 58.4503C73.7884 58.4503 73.2377 60.1125 73.5529 61.3018C73.8681 62.4912 75.6034 66.0556 75.6034 66.0556C75.6034 66.0556 76.1541 65.8956 76.4729 66.5321C76.7881 67.1649 78.2083 69.62 78.2083 69.62" fill="white"/>
<path d="M88.7364 82.5101L85.3744 81.6953C85.3744 81.6953 82.7405 75.574 81.9544 72.5879C81.1573 71.2385 79.6248 69.6455 78.9619 69.8819C77.3316 70.4675 78.0561 72.366 78.7409 72.737C79.4256 73.1044 80.9001 72.5916 81.0378 73.8136C81.1754 75.0394 81.871 82.2664 82.2623 83.4375C82.65 84.6087 87.8923 86.0454 87.8923 86.0454L88.7364 82.5101Z" fill="#F4B58E"/>
<path d="M96.9785 128.771C96.9785 128.771 97.0908 129.946 97.8697 130.506C98.6523 131.066 101.442 131.906 101.775 132.579C102.108 133.252 100.659 133.139 99.6558 133.194C98.6523 133.248 97.4784 133.139 97.0328 133.194C96.5872 133.248 95.359 133.528 95.1344 132.914C94.9098 132.299 95.4677 131.459 95.638 130.728C95.8083 129.997 95.5837 128.993 95.5837 128.993L96.9785 128.771Z" fill="#F4B58E"/>
<path d="M98.5798 130.891C99.7065 131.412 101.511 132.052 101.775 132.583C102.108 133.256 100.659 133.143 99.6558 133.197C98.6523 133.252 97.4784 133.143 97.0328 133.197C96.5872 133.252 95.359 133.532 95.1344 132.917C94.9678 132.455 95.2395 131.87 95.4532 131.299C95.801 131.375 96.2285 131.455 96.6959 131.517C97.5219 131.63 98.2103 131.193 98.5798 130.891Z" fill="#1B404E"/>
<path d="M75.9005 68.6707L73.455 74.3738L74.4006 74.8502L76.9258 68.9871L75.9005 68.6707Z" fill="#FF5F3A"/>
<path d="M80.8059 82.8665L77.4439 82.0518C77.4439 82.0518 76.3823 76.6761 76.9294 73.6318C76.7736 72.0714 75.5817 69.8455 74.8788 69.831C72.8392 69.7909 73.0131 71.7041 73.4804 72.326C73.9478 72.9516 75.4984 73.1044 75.1107 74.2756C74.7231 75.4467 73.9441 82.6192 74.3354 83.7903C74.7231 84.9615 79.9654 86.3982 79.9654 86.3982L80.8059 82.8665Z" fill="#F4B58E"/>
<path d="M93.8519 85.307C93.8519 85.307 94.0113 84.2377 92.0369 83.3648C90.0624 82.4919 86.4359 81.859 86.4359 81.859C86.4359 81.859 84.9758 82.2154 85.2113 84.2341C88.7255 85.9799 93.8519 85.307 93.8519 85.307Z" fill="#E5A50A"/>
<path d="M90.8594 83.8704C90.8594 83.8704 90.1203 84.1431 89.8486 83.794C89.5769 83.4448 89.5371 81.9208 89.5371 81.9208L87.1677 81.9608C87.1677 81.9608 87.0518 83.714 86.78 83.8704C86.5083 84.0267 85.5374 84.0267 85.5374 84.0267C85.5374 84.0267 85.9649 85.9363 86.896 86.0927C87.8271 86.249 89.3052 86.209 90.0044 85.7799C90.7036 85.3507 90.8594 83.8704 90.8594 83.8704Z" fill="#F4B58E"/>
<path d="M81.8565 128.771C81.8565 128.771 81.7442 129.946 80.9653 130.506C80.1828 131.066 77.3931 131.906 77.0598 132.579C76.7265 133.252 78.1757 133.139 79.1792 133.194C80.1828 133.248 81.3566 133.139 81.8022 133.194C82.2478 133.248 83.476 133.528 83.7006 132.914C83.9252 132.299 83.3673 131.459 83.197 130.728C83.0267 129.997 83.2513 128.993 83.2513 128.993L81.8565 128.771Z" fill="#F4B58E"/>
<path d="M95.2105 100.092C95.2105 100.092 95.9858 106.875 96.1416 110.385C96.2974 113.895 97.3082 129.12 97.3082 129.12C97.3082 129.12 96.2213 129.822 95.1344 129.12C94.312 126.378 92.8774 118.303 92.468 116.434C91.8122 113.444 91.1311 110.862 90.8196 110.003C90.1058 108.032 89.2545 108.425 88.635 110.171C88.0662 111.771 86.5011 117.092 86.0373 119.143C85.4396 121.773 84.6208 126.018 83.4035 129.604C82.8202 129.604 81.987 129.586 81.5812 129.007C81.9 124.425 82.371 117.929 82.5304 116.805C82.9253 114.026 83.639 104.544 83.9506 103.216C84.2621 101.892 84.494 100.408 84.494 100.408L95.2105 100.092Z" fill="#FF5F3A"/>
<path d="M84.2332 100.841L83.1427 89.6389C82.9615 87.7694 82.3782 87.3002 81.4073 86.9874C80.4364 86.6746 78.3387 86.0527 78.3387 86.0527C77.1649 86.089 77.5888 81.8808 78.4655 82.1536C78.4655 82.1536 81.6609 82.8592 82.6137 83.0156C83.5665 83.172 85.2512 83.5976 86.1243 83.754C86.3851 84.5723 86.8453 84.3468 88.577 84.3723C90.3305 84.4014 90.4899 84.4559 90.7978 83.8704C93.736 83.6667 94.4062 83.9358 94.8482 91.8248C94.8301 92.916 95.4714 98.8154 95.5112 100.376C95.5547 101.932 84.2332 100.841 84.2332 100.841Z" fill="#344804"/>
<path d="M90.5478 78.8402C90.5478 78.8402 90.6638 80.4005 90.2761 81.4517C89.8885 82.5028 88.9574 82.7756 88.3741 82.8556C87.7908 82.932 86.8996 82.6592 86.6279 82.1136C86.3562 81.568 86.0844 79.7349 86.1605 78.5274C86.2366 77.3199 87.1713 76.6543 88.414 76.5779C89.6566 76.5015 90.5116 77.4362 90.5478 78.8402Z" fill="#F4B58E"/>
<path d="M91.9318 79.3894C91.6673 80.3532 91.2181 81.157 90.4174 82.2009C89.566 83.3102 87.8234 82.4082 87.117 81.5353C86.8235 81.1716 86.8742 80.837 86.7293 80.4042C86.5301 79.804 86.7547 79.0802 86.5554 78.3819C86.3453 77.6472 86.175 77.7709 86.1062 77.1998C86.0808 76.9961 85.9975 75.945 86.3091 75.3412C86.5953 74.7811 86.9829 74.3592 87.856 74.0901C88.4212 73.9118 93.4715 73.8064 91.9318 79.3894Z" fill="#63452C"/>
<path d="M80.2552 130.891C79.1285 131.412 77.3243 132.052 77.0598 132.583C76.7265 133.256 78.1757 133.143 79.1792 133.197C80.1828 133.252 81.3566 133.143 81.8022 133.197C82.2478 133.252 83.476 133.532 83.7006 132.917C83.8672 132.455 83.5955 131.87 83.3818 131.299C83.034 131.375 82.6065 131.455 82.1391 131.517C81.3131 131.63 80.6248 131.193 80.2552 130.891Z" fill="#1B404E"/>
<path d="M78.6032 68.6707L81.0486 74.3738L80.1031 74.8502L77.5779 68.9871L78.6032 68.6707Z" fill="#FF5F3A"/>
<path d="M121.009 60.0957C121.009 60.0957 121.64 58.3541 123.298 57.7181C124.956 57.085 125.666 58.4314 126.297 58.5889C126.927 58.7465 127.795 58.1936 128.822 59.1447C129.846 60.0957 125.9 62.1553 121.009 60.0957Z" fill="#986A44"/>
<path d="M127.241 43.1432C125.703 46.4518 126.371 47.8182 125.521 49.64C124.67 51.4619 124.451 53.2036 124.451 53.2036C124.451 53.2036 123.706 51.0809 123.135 50.1127C122.319 48.7262 121.055 48.3911 119.189 47.8153C119.052 51.8544 123.435 52.8856 124.165 54.5499C124.898 56.2142 124.02 58.8267 124.02 58.8267C124.973 59.4798 125.68 58.8554 125.675 58.9069C125.675 58.9069 125.272 56.8473 125.158 55.5812C125.155 55.5468 125.152 55.5153 125.15 55.4809C125.772 55.4322 127.204 55.2804 128.342 54.8278C129.84 54.2348 131.184 55.6184 131.184 55.6184C131.184 55.6184 131.027 53.321 128.342 53.0431C126.462 52.8484 125.515 53.7621 125.115 54.3265C125.144 53.5301 125.312 52.7452 125.757 51.8543C126.434 50.508 126.981 50.6426 127.96 49.2591C128.425 48.6088 129.515 45.9132 127.241 43.1432Z" fill="#3F7C25"/>
<path d="M80.5264 26.8886C80.2296 26.2728 80.4608 25.5709 80.3666 24.8634C79.8929 21.2283 75.864 19.3205 73.433 22.5746C70.0889 15.6538 63.4777 19.0598 63.8686 25.7715C57.7768 22.7665 50.8574 31.8701 60.3134 31.9818C61.5917 36.7026 64.9729 33.9183 67.2641 32.8011C70.0661 37.8112 76.4518 36.4477 78.8172 31.8357C81.876 35.1586 90.1535 28.7649 84.3727 26.754C83.2114 26.3444 81.6763 26.903 80.5264 26.8886Z" fill="#E8F4D3"/>
<path d="M85.825 27.5905C84.0246 31.1654 81.0828 31.1626 78.7773 29.1058C78.6489 31.1683 75.436 33.8782 71.8408 33.8782C68.2428 33.8782 67.344 29.7503 67.344 29.7503C67.344 29.7503 65.2896 31.9417 63.3607 32.3284C61.4347 32.7152 60.9211 31.4261 63.8743 29.4897C60.2991 30.816 57.4829 29.6873 55.8108 28.5873C55.2401 30.2602 56.2987 31.9274 60.3134 31.9761C61.5917 36.6969 64.9729 33.9126 67.2641 32.7954C70.0661 37.8055 76.4518 36.442 78.8172 31.83C81.5279 34.7777 88.3245 30.097 85.825 27.5905Z" fill="#D7E8B1"/>
<path d="M66.2112 42.3C64.5449 44.626 63.3465 48.731 65.9373 48.5705C68.8648 48.3929 66.2112 42.3 66.2112 42.3Z" fill="#E8F4D3"/>
<path d="M79.9158 38.6448C78.2494 40.9708 77.051 45.0758 79.6418 44.9154C82.5694 44.7349 79.9158 38.6448 79.9158 38.6448Z" fill="#E8F4D3"/>
<path d="M71.5498 37.3185C69.8834 39.6446 68.6851 43.7495 71.2759 43.5891C74.2034 43.4115 71.5498 37.3185 71.5498 37.3185Z" fill="#E8F4D3"/>
<path d="M73.4301 46.8146C72.4942 48.1208 71.8209 50.4268 73.2761 50.338C74.9224 50.2377 73.4301 46.8146 73.4301 46.8146Z" fill="#E8F4D3"/>
<path d="M84.8891 33.4743C83.9532 34.7805 83.2798 37.0865 84.735 36.9977C86.3814 36.8974 84.8891 33.4743 84.8891 33.4743Z" fill="#E8F4D3"/>
<path d="M60.8783 36.8802C59.9424 38.1865 59.269 40.4925 60.7242 40.4037C62.3706 40.3034 60.8783 36.8802 60.8783 36.8802Z" fill="#E8F4D3"/>
</g>
<defs>
<clipPath id="clip0_2_554">
<rect width="214" height="143.228" fill="white" transform="translate(0.333374 0.781982)"/>
</clipPath>
</defs>
</svg>
