<svg width="93" height="12" viewBox="0 0 93 12" fill="none" xmlns="http://www.w3.org/2000/svg">
<path d="M12.112 4.22563L8.51471 3.67815L6.90661 0.264221C6.86269 0.17075 6.79043 0.0950826 6.70117 0.0490888C6.47731 -0.0666377 6.20528 0.029801 6.09335 0.264221L4.48524 3.67815L0.887906 4.22563C0.788728 4.24046 0.698051 4.28943 0.628626 4.36361C0.544696 4.45394 0.498446 4.57548 0.50004 4.7015C0.501634 4.82753 0.550941 4.94774 0.637127 5.03571L3.23985 7.69297L2.62494 11.4452C2.61052 11.5325 2.61975 11.6222 2.65157 11.7043C2.68339 11.7864 2.73653 11.8575 2.80498 11.9095C2.87342 11.9616 2.95442 11.9925 3.0388 11.9988C3.12317 12.0051 3.20755 11.9865 3.28235 11.9452L6.49998 10.1737L9.7176 11.9452C9.80545 11.9941 9.90746 12.0105 10.0052 11.9927C10.2517 11.9481 10.4175 11.7033 10.375 11.4452L9.76011 7.69297L12.3628 5.03571C12.4337 4.96301 12.4804 4.86806 12.4946 4.7642C12.5328 4.50456 12.36 4.2642 12.112 4.22563Z" fill="#FF730D"/>
<path d="M32.1119 4.22551L28.5146 3.67803L26.9065 0.264099C26.8626 0.170628 26.7903 0.0949605 26.7011 0.0489667C26.4772 -0.0667598 26.2052 0.029679 26.0932 0.264099L24.4851 3.67803L20.8878 4.22551C20.7886 4.24034 20.6979 4.2893 20.6285 4.36349C20.5446 4.45382 20.4983 4.57536 20.4999 4.70138C20.5015 4.82741 20.5508 4.94761 20.637 5.03559L23.2397 7.69285L22.6248 11.4451C22.6104 11.5323 22.6196 11.6221 22.6515 11.7042C22.6833 11.7863 22.7364 11.8574 22.8049 11.9094C22.8733 11.9615 22.9543 11.9924 23.0387 11.9987C23.1231 12.005 23.2074 11.9864 23.2822 11.9451L26.4999 10.1735L29.7175 11.9451C29.8053 11.994 29.9074 12.0103 30.0051 11.9925C30.2516 11.948 30.4174 11.7032 30.3749 11.4451L29.76 7.69285L32.3627 5.03559C32.4336 4.96289 32.4803 4.86794 32.4945 4.76408C32.5327 4.50444 32.3599 4.26408 32.1119 4.22551Z" fill="#FF730D"/>
<path d="M52.1119 4.22551L48.5145 3.67803L46.9064 0.264099C46.8625 0.170628 46.7902 0.0949605 46.701 0.0489667C46.4771 -0.0667598 46.2051 0.029679 46.0932 0.264099L44.4851 3.67803L40.8877 4.22551C40.7885 4.24034 40.6979 4.2893 40.6284 4.36349C40.5445 4.45382 40.4983 4.57536 40.4999 4.70138C40.5015 4.82741 40.5508 4.94761 40.6369 5.03559L43.2397 7.69285L42.6248 11.4451C42.6103 11.5323 42.6196 11.6221 42.6514 11.7042C42.6832 11.7863 42.7364 11.8574 42.8048 11.9094C42.8732 11.9615 42.9542 11.9924 43.0386 11.9987C43.123 12.005 43.2074 11.9864 43.2822 11.9451L46.4998 10.1735L49.7174 11.9451C49.8053 11.994 49.9073 12.0103 50.005 11.9925C50.2516 11.948 50.4173 11.7032 50.3748 11.4451L49.7599 7.69285L52.3626 5.03559C52.4335 4.96289 52.4802 4.86794 52.4944 4.76408C52.5327 4.50444 52.3598 4.26408 52.1119 4.22551Z" fill="#FF730D"/>
<path d="M72.1118 4.22551L68.5144 3.67803L66.9063 0.264099C66.8624 0.170628 66.7902 0.0949605 66.7009 0.0489667C66.477 -0.0667598 66.205 0.029679 66.0931 0.264099L64.485 3.67803L60.8876 4.22551C60.7885 4.24034 60.6978 4.2893 60.6284 4.36349C60.5444 4.45382 60.4982 4.57536 60.4998 4.70138C60.5014 4.82741 60.5507 4.94761 60.6369 5.03559L63.2396 7.69285L62.6247 11.4451C62.6102 11.5323 62.6195 11.6221 62.6513 11.7042C62.6831 11.7863 62.7363 11.8574 62.8047 11.9094C62.8731 11.9615 62.9541 11.9924 63.0385 11.9987C63.1229 12.005 63.2073 11.9864 63.2821 11.9451L66.4997 10.1735L69.7173 11.9451C69.8052 11.994 69.9072 12.0103 70.0049 11.9925C70.2515 11.948 70.4172 11.7032 70.3747 11.4451L69.7598 7.69285L72.3626 5.03559C72.4334 4.96289 72.4801 4.86794 72.4943 4.76408C72.5326 4.50444 72.3597 4.26408 72.1118 4.22551Z" fill="#FF730D"/>
<path d="M92.1117 4.22551L88.5143 3.67803L86.9062 0.264099C86.8623 0.170628 86.7901 0.0949605 86.7008 0.0489667C86.4769 -0.0667598 86.2049 0.029679 86.093 0.264099L84.4849 3.67803L80.8875 4.22551C80.7884 4.24034 80.6977 4.2893 80.6283 4.36349C80.5443 4.45382 80.4981 4.57536 80.4997 4.70138C80.5013 4.82741 80.5506 4.94761 80.6368 5.03559L83.2395 7.69285L82.6246 11.4451C82.6102 11.5323 82.6194 11.6221 82.6512 11.7042C82.683 11.7863 82.7362 11.8574 82.8046 11.9094C82.8731 11.9615 82.9541 11.9924 83.0384 11.9987C83.1228 12.005 83.2072 11.9864 83.282 11.9451L86.4996 10.1735L89.7172 11.9451C89.8051 11.994 89.9071 12.0103 90.0049 11.9925C90.2514 11.948 90.4172 11.7032 90.3746 11.4451L89.7597 7.69285L92.3625 5.03559C92.4333 4.96289 92.4801 4.86794 92.4942 4.76408C92.5325 4.50444 92.3596 4.26408 92.1117 4.22551Z" fill="#FF730D"/>
</svg>
