<svg width="12" height="18" viewBox="0 0 12 18" fill="none" xmlns="http://www.w3.org/2000/svg">
<path d="M0.834607 17.8545C0.941505 17.9469 1.08691 17.9993 1.23893 18C1.39124 18.0012 1.53762 17.9486 1.64324 17.8545L11.1777 9.68176C11.2859 9.59025 11.3468 9.4655 11.3468 9.3352C11.3468 9.2049 11.2859 9.08014 11.1777 8.98864L1.64324 0.814393C1.53733 0.717327 1.38996 0.661238 1.23495 0.659063C1.07982 0.656887 0.930475 0.708625 0.820744 0.802668C0.711164 0.896594 0.650666 1.02473 0.653345 1.15758C0.655883 1.29043 0.721319 1.41675 0.834564 1.50754L9.96466 9.3352L0.834564 17.161C0.726818 17.2528 0.666316 17.3775 0.666316 17.5077C0.666316 17.6378 0.726818 17.7625 0.834564 17.8542L0.834607 17.8545Z" fill="white"/>
</svg>
