<svg width="139" height="38" viewBox="0 0 139 38" fill="none" xmlns="http://www.w3.org/2000/svg">
<path d="M74.4201 21.1257H77.3579V33.9071C77.3579 35.0313 77.0397 35.911 76.4033 36.5464C75.7669 37.1818 74.8855 37.4995 73.7592 37.4995H68.1291V34.6402H73.1716C74.0041 34.6402 74.4201 34.2247 74.4201 33.3938V21.1257Z" fill="#00B533"/>
<path d="M80.6324 31.9123V25.2927H83.4379V31.8878C83.4379 32.8031 83.7063 33.5713 84.2425 34.1923C84.7792 34.7971 85.5028 35.0995 86.4133 35.0995C87.3401 35.0995 88.0723 34.7971 88.609 34.1923C89.1616 33.5713 89.4379 32.8031 89.4379 31.8878V25.2927H92.2429V31.9123C92.2429 33.6939 91.7146 35.124 90.6575 36.2028C89.6004 37.2652 88.1861 37.7964 86.4133 37.7964C84.6575 37.7964 83.2505 37.2652 82.194 36.2028C81.1527 35.124 80.6324 33.6939 80.6324 31.9123Z" fill="#00B533"/>
<path d="M102.089 24.9978C103.637 24.9978 104.864 25.4954 105.77 26.4904C106.676 27.4692 107.129 28.8068 107.129 30.5033V37.5014H104.288V30.9437C104.288 29.9813 104.016 29.2146 103.473 28.6437C102.946 28.0564 102.245 27.7628 101.373 27.7628C100.417 27.7628 99.6268 28.0972 99.0005 28.766C98.3748 29.4185 98.0617 30.2668 98.0617 31.3108V37.5014H95.2205V25.3404H98.0123V26.9064H98.111C99.0664 25.634 100.392 24.9978 102.089 24.9978Z" fill="#00B533"/>
<path d="M109.808 19.9348H112.785V23.6429H109.808V19.9348ZM109.808 25.375H112.785V37.4994H109.808V25.375Z" fill="#00B533"/>
<path d="M121.617 37.7991C119.627 37.7991 118.004 37.1895 116.75 35.9704C115.495 34.735 114.868 33.2069 114.868 31.3863C114.868 29.5656 115.487 28.0458 116.725 26.8266C117.979 25.6074 119.61 24.9978 121.617 24.9978C123.59 24.9978 125.187 25.6074 126.408 26.8266C127.646 28.0458 128.265 29.5656 128.265 31.3863C128.265 33.2069 127.646 34.735 126.408 35.9704C125.17 37.1895 123.574 37.7991 121.617 37.7991ZM121.617 35.1169C122.72 35.1169 123.624 34.7593 124.326 34.0441C125.028 33.3288 125.379 32.451 125.379 31.4107C125.379 30.3541 125.028 29.4762 124.326 28.7772C123.624 28.062 122.72 27.7044 121.617 27.7044C120.48 27.7044 119.551 28.062 118.832 28.7772C118.129 29.4762 117.778 30.3541 117.778 31.4107C117.778 32.451 118.129 33.3288 118.832 34.0441C119.551 34.7593 120.48 35.1169 121.617 35.1169Z" fill="#00B533"/>
<path d="M136.492 25.2927H138.983V28.1416H136.442C135.472 28.1416 134.683 28.4445 134.074 29.0503C133.482 29.6561 133.186 30.4829 133.186 31.5308V37.4987H130.349V25.2927H133.088V27.3066H133.186C133.762 25.964 134.864 25.2927 136.492 25.2927Z" fill="#00B533"/>
<path d="M76.568 0C78.2256 0 79.6151 0.549435 80.7367 1.6483C81.8589 2.73053 82.4196 4.09579 82.4196 5.7441C82.4196 7.4257 81.8502 8.80758 80.7119 9.88983C79.5898 10.9554 78.2089 11.4882 76.568 11.4882H71.6956V16.7328H68.1292V0H76.568ZM71.6956 8.11667H76.2914C77.0112 8.11667 77.606 7.90022 78.0746 7.46733C78.5604 7.03443 78.8031 6.46003 78.8031 5.7441C78.8031 5.07811 78.5604 4.52868 78.0746 4.09579C77.5893 3.6629 76.9945 3.44646 76.2914 3.44646H71.6956V8.11667Z" fill="white"/>
<path d="M84.5616 16.7328V0H91.6437C94.1387 0 96.198 0.782529 97.8222 2.34758C99.4463 3.91265 100.258 5.90227 100.258 8.31643V8.39137C100.258 10.8056 99.4463 12.8035 97.8222 14.3852C96.198 15.9503 94.1387 16.7328 91.6437 16.7328H84.5616ZM91.5936 3.44646H88.1281V13.2614H91.5936C93.084 13.2614 94.2898 12.8119 95.2102 11.9127C96.1479 11.0137 96.617 9.83989 96.617 8.39137V8.31643C96.617 6.86792 96.1479 5.69415 95.2102 4.79507C94.2898 3.89599 93.084 3.44646 91.5936 3.44646Z" fill="white"/>
<path d="M111.027 0C112.685 0 114.075 0.549435 115.196 1.6483C116.319 2.73053 116.879 4.09579 116.879 5.7441C116.879 7.4257 116.31 8.80758 115.172 9.88983C114.049 10.9554 112.668 11.4882 111.027 11.4882H106.155V16.7328H102.589V0H111.027ZM106.155 8.11667H110.751C111.471 8.11667 112.066 7.90022 112.534 7.46733C113.02 7.03443 113.263 6.46003 113.263 5.7441C113.263 5.07811 113.02 4.52868 112.534 4.09579C112.048 3.6629 111.454 3.44646 110.751 3.44646H106.155V8.11667Z" fill="white"/>
<path fill-rule="evenodd" clip-rule="evenodd" d="M41.4247 38H33.5338L42.8592 0H50.7501L41.4229 38H41.4247Z" fill="white"/>
<path fill-rule="evenodd" clip-rule="evenodd" d="M52.9071 38H45.0162L54.3434 0H62.2361L52.9089 38H52.9071Z" fill="white"/>
<path fill-rule="evenodd" clip-rule="evenodd" d="M16.7682 2.2356C7.52305 2.2356 0 9.75864 0 19.0038C0 28.2489 7.52305 35.7696 16.7682 35.7696C26.0133 35.7696 33.534 28.2466 33.534 19.0038C33.534 9.76092 26.0133 2.2356 16.7682 2.2356Z" fill="#00B533"/>
</svg>
