<svg width="450" height="28" viewBox="0 0 450 28" fill="none" xmlns="http://www.w3.org/2000/svg">
<rect x="0.499969" y="1" width="449" height="26" rx="13" fill="#FAFAFA"/>
<rect x="0.499969" y="1" width="449" height="26" rx="13" stroke="#E7E7E7"/>
<path d="M21.1328 19.7656C21.9713 19.7656 22.7031 19.6276 23.3281 19.3516C23.9531 19.0703 24.4375 18.6745 24.7812 18.1641C25.125 17.6536 25.2968 17.0469 25.2968 16.3438V16.3359C25.2968 15.5234 25.0442 14.8698 24.539 14.375C24.0338 13.8802 23.1927 13.5026 22.0156 13.2422L20.7656 12.9609C20 12.7943 19.4505 12.5573 19.1172 12.25C18.7838 11.9427 18.6172 11.5651 18.6172 11.1172V11.1094C18.6172 10.7135 18.7265 10.3802 18.9453 10.1094C19.1692 9.83333 19.4687 9.6224 19.8437 9.47656C20.2187 9.33073 20.6406 9.25781 21.1093 9.25781C21.5989 9.2526 22.026 9.32552 22.3906 9.47656C22.7552 9.6276 23.0468 9.83333 23.2656 10.0938C23.4843 10.349 23.6198 10.6432 23.6718 10.9766L23.6875 11.0781H25.0937L25.0859 10.9688C25.0494 10.4062 24.8593 9.89844 24.5156 9.44531C24.1771 8.99219 23.7187 8.63281 23.1406 8.36719C22.5625 8.09635 21.8984 7.96094 21.1484 7.96094C20.3724 7.96094 19.6849 8.09635 19.0859 8.36719C18.4922 8.63802 18.026 9.01302 17.6875 9.49219C17.3541 9.97135 17.1849 10.5234 17.1797 11.1484V11.1562C17.1797 11.974 17.4349 12.6458 17.9453 13.1719C18.4609 13.6927 19.2838 14.0781 20.414 14.3281L21.664 14.6016C22.4401 14.7734 23 15.0208 23.3437 15.3438C23.6875 15.6615 23.8593 16.0547 23.8593 16.5234V16.5312C23.8593 16.9115 23.7448 17.2474 23.5156 17.5391C23.2864 17.8307 22.9713 18.0599 22.5703 18.2266C22.1744 18.388 21.7213 18.4688 21.2109 18.4688C20.6692 18.4688 20.1849 18.3932 19.7578 18.2422C19.3359 18.0911 18.9974 17.8802 18.7422 17.6094C18.4922 17.3333 18.3489 17.0078 18.3125 16.6328L18.3047 16.5469H16.8984L16.9062 16.6328C16.9635 17.2422 17.1692 17.7839 17.5234 18.2578C17.8828 18.7266 18.3672 19.0964 18.9765 19.3672C19.5911 19.6328 20.3099 19.7656 21.1328 19.7656ZM30.9062 19.6484C31.401 19.6484 31.8463 19.5859 32.2422 19.4609C32.6432 19.3307 32.9896 19.1589 33.2812 18.9453C33.5729 18.7266 33.8099 18.4844 33.9922 18.2188C34.1797 17.9479 34.3099 17.6693 34.3828 17.3828L34.3984 17.3203H33.039L33.0078 17.3906C32.9349 17.5573 32.8073 17.7214 32.625 17.8828C32.4427 18.0443 32.2109 18.1771 31.9297 18.2812C31.6484 18.3854 31.3177 18.4375 30.9375 18.4375C30.4271 18.4375 29.9843 18.3255 29.6093 18.1016C29.2343 17.8724 28.9453 17.5469 28.7422 17.125C28.539 16.6979 28.4375 16.1849 28.4375 15.5859V15.0469C28.4375 14.4167 28.5416 13.8854 28.75 13.4531C28.9583 13.0208 29.2396 12.6953 29.5937 12.4766C29.9531 12.2526 30.3593 12.1406 30.8125 12.1406C31.2656 12.1406 31.6666 12.2474 32.0156 12.4609C32.3646 12.6693 32.638 12.987 32.8359 13.4141C33.0338 13.8411 33.1328 14.3854 33.1328 15.0469V15.5859L33.8047 14.5938H27.75V15.6797H34.5V15.1484C34.5 14.3099 34.3515 13.5755 34.0547 12.9453C33.763 12.3099 33.3411 11.8151 32.789 11.4609C32.2422 11.1068 31.5859 10.9297 30.8203 10.9297C30.0599 10.9297 29.3958 11.1146 28.8281 11.4844C28.2604 11.8542 27.8203 12.3672 27.5078 13.0234C27.2005 13.6797 27.0468 14.4427 27.0468 15.3125V15.3203C27.0468 16.2005 27.2005 16.9661 27.5078 17.6172C27.8203 18.263 28.263 18.763 28.8359 19.1172C29.414 19.4714 30.1041 19.6484 30.9062 19.6484ZM38.9218 19.6484C39.3021 19.6484 39.651 19.5964 39.9687 19.4922C40.2864 19.3828 40.5703 19.224 40.8203 19.0156C41.0755 18.8073 41.2916 18.5547 41.4687 18.2578H41.5937V19.5H42.9531V13.7344C42.9531 13.151 42.8281 12.651 42.5781 12.2344C42.3333 11.8125 41.9713 11.4896 41.4922 11.2656C41.0182 11.0417 40.4375 10.9297 39.75 10.9297C39.151 10.9297 38.6172 11.0234 38.1484 11.2109C37.6797 11.3932 37.2968 11.651 37 11.9844C36.7083 12.3125 36.526 12.6979 36.4531 13.1406L36.4453 13.1875H37.8047L37.8125 13.1641C37.9218 12.8359 38.138 12.5833 38.4609 12.4062C38.7838 12.224 39.1979 12.1328 39.7031 12.1328C40.3333 12.1328 40.8047 12.2708 41.1172 12.5469C41.4349 12.8177 41.5937 13.2135 41.5937 13.7344V16.3594C41.5937 16.7604 41.4896 17.1198 41.2812 17.4375C41.0781 17.7552 40.7968 18.0078 40.4375 18.1953C40.0781 18.3776 39.6666 18.4688 39.2031 18.4688C38.7135 18.4688 38.3073 18.3516 37.9843 18.1172C37.6614 17.8776 37.5 17.5443 37.5 17.1172V17.1016C37.5 16.6849 37.6458 16.362 37.9375 16.1328C38.2343 15.9036 38.7031 15.7708 39.3437 15.7344L42.2734 15.5469V14.4609L39.1797 14.6484C38.2005 14.7057 37.4427 14.9479 36.9062 15.375C36.375 15.7969 36.1093 16.3828 36.1093 17.1328V17.1484C36.1093 17.6589 36.2317 18.1016 36.4765 18.4766C36.7265 18.8516 37.0625 19.1406 37.4843 19.3438C37.9114 19.5469 38.3906 19.6484 38.9218 19.6484ZM45.4375 19.5H46.7968V14.2812C46.7968 13.8698 46.8906 13.5104 47.0781 13.2031C47.2708 12.8958 47.5338 12.6562 47.8672 12.4844C48.2005 12.3125 48.5833 12.2266 49.0156 12.2266C49.1666 12.2266 49.3073 12.2344 49.4375 12.25C49.5729 12.2604 49.7109 12.2786 49.8515 12.3047V10.9844C49.7838 10.974 49.6849 10.9635 49.5547 10.9531C49.4297 10.9375 49.3021 10.9297 49.1718 10.9297C48.6041 10.9297 48.1276 11.0521 47.7422 11.2969C47.3567 11.5417 47.0833 11.8854 46.9218 12.3281H46.7968V11.0781H45.4375V19.5ZM54.7422 19.6484C55.4192 19.6484 55.9974 19.5365 56.4765 19.3125C56.9557 19.0885 57.3411 18.7812 57.6328 18.3906C57.9244 17.9948 58.1276 17.5443 58.2422 17.0391L58.2578 16.9531L56.914 16.9609L56.8984 17.0078C56.7422 17.4766 56.4843 17.8333 56.125 18.0781C55.7656 18.3229 55.3021 18.4453 54.7343 18.4453C54.2343 18.4453 53.7994 18.3151 53.4297 18.0547C53.0599 17.7943 52.7734 17.4271 52.5703 16.9531C52.3672 16.474 52.2656 15.9115 52.2656 15.2656V15.25C52.2656 14.6146 52.3646 14.0651 52.5625 13.6016C52.7656 13.1328 53.0521 12.7708 53.4218 12.5156C53.7916 12.2604 54.2291 12.1328 54.7343 12.1328C55.3385 12.1328 55.8255 12.2786 56.1953 12.5703C56.5651 12.862 56.8021 13.2161 56.9062 13.6328L56.914 13.6562H58.2656L58.2578 13.6094C58.1744 13.1094 57.9843 12.6589 57.6875 12.2578C57.3906 11.8516 56.9948 11.5286 56.5 11.2891C56.0052 11.0495 55.4166 10.9297 54.7343 10.9297C53.9479 10.9297 53.2656 11.1094 52.6875 11.4688C52.1093 11.8229 51.6614 12.3229 51.3437 12.9688C51.0312 13.6146 50.875 14.375 50.875 15.25V15.2656C50.875 16.1562 51.0338 16.9297 51.3515 17.5859C51.6692 18.2422 52.1172 18.75 52.6953 19.1094C53.2734 19.4688 53.9557 19.6484 54.7422 19.6484ZM60.3281 19.5H61.6875V14.5156C61.6875 14.0208 61.776 13.5964 61.9531 13.2422C62.1354 12.888 62.3906 12.6146 62.7187 12.4219C63.0468 12.2292 63.4349 12.1328 63.8828 12.1328C64.5547 12.1328 65.0494 12.3177 65.3672 12.6875C65.6901 13.0521 65.8515 13.6146 65.8515 14.375V19.5H67.2109V14.0469C67.2109 13.3802 67.0963 12.8151 66.8672 12.3516C66.638 11.888 66.3047 11.5365 65.8672 11.2969C65.4297 11.0521 64.8958 10.9297 64.2656 10.9297C63.6458 10.9297 63.1354 11.0547 62.7343 11.3047C62.3333 11.5495 62.026 11.8958 61.8125 12.3438H61.6875V7.73438H60.3281V19.5Z" fill="black"/>
</svg>
