<svg width="122" height="36" viewBox="0 0 122 36" fill="none" xmlns="http://www.w3.org/2000/svg">
<rect x="0.5" y="0.5" width="35" height="35" rx="7.5" fill="#F1F1F1"/>
<rect x="0.5" y="0.5" width="35" height="35" rx="7.5" stroke="#E7E7E7"/>
<g clip-path="url(#clip0_1_34)">
<path d="M16.6042 11.5975C16.9592 10.1342 19.0408 10.1342 19.3958 11.5975C19.4491 11.8173 19.5535 12.0215 19.7006 12.1933C19.8477 12.3652 20.0332 12.4999 20.2422 12.5865C20.4512 12.673 20.6776 12.709 20.9032 12.6916C21.1287 12.6741 21.3469 12.6036 21.54 12.4858C22.8258 11.7025 24.2983 13.1742 23.515 14.4608C23.3974 14.6539 23.327 14.8719 23.3096 15.0973C23.2922 15.3227 23.3281 15.549 23.4146 15.7578C23.5011 15.9667 23.6356 16.1521 23.8073 16.2992C23.9789 16.4463 24.1829 16.5508 24.4025 16.6042C25.8658 16.9592 25.8658 19.0408 24.4025 19.3958C24.1827 19.4491 23.9785 19.5535 23.8067 19.7006C23.6348 19.8477 23.5001 20.0332 23.4135 20.2422C23.327 20.4512 23.291 20.6776 23.3084 20.9032C23.3259 21.1287 23.3964 21.3469 23.5142 21.54C24.2975 22.8258 22.8258 24.2983 21.5392 23.515C21.3461 23.3974 21.1281 23.327 20.9027 23.3096C20.6773 23.2922 20.451 23.3281 20.2422 23.4146C20.0333 23.5011 19.8479 23.6356 19.7008 23.8073C19.5537 23.9789 19.4492 24.1829 19.3958 24.4025C19.0408 25.8658 16.9592 25.8658 16.6042 24.4025C16.5509 24.1827 16.4465 23.9785 16.2994 23.8067C16.1523 23.6348 15.9668 23.5001 15.7578 23.4135C15.5488 23.327 15.3224 23.291 15.0968 23.3084C14.8713 23.3259 14.6531 23.3964 14.46 23.5142C13.1742 24.2975 11.7017 22.8258 12.485 21.5392C12.6026 21.3461 12.673 21.1281 12.6904 20.9027C12.7078 20.6773 12.6719 20.451 12.5854 20.2422C12.4989 20.0333 12.3644 19.8479 12.1927 19.7008C12.0211 19.5537 11.8171 19.4492 11.5975 19.3958C10.1342 19.0408 10.1342 16.9592 11.5975 16.6042C11.8173 16.5509 12.0215 16.4465 12.1933 16.2994C12.3652 16.1523 12.4999 15.9668 12.5865 15.7578C12.673 15.5488 12.709 15.3224 12.6916 15.0968C12.6741 14.8713 12.6036 14.6531 12.4858 14.46C11.7025 13.1742 13.1742 11.7017 14.4608 12.485C15.2942 12.9917 16.3742 12.5433 16.6042 11.5975Z" stroke="black" stroke-width="1.66667" stroke-linecap="round" stroke-linejoin="round"/>
<path d="M18 20.5C19.3807 20.5 20.5 19.3807 20.5 18C20.5 16.6193 19.3807 15.5 18 15.5C16.6193 15.5 15.5 16.6193 15.5 18C15.5 19.3807 16.6193 20.5 18 20.5Z" stroke="black" stroke-width="1.66667" stroke-linecap="round" stroke-linejoin="round"/>
</g>
<rect x="48.5" y="0.5" width="73" height="34" rx="7.5" fill="white"/>
<rect x="48.5" y="0.5" width="73" height="34" rx="7.5" stroke="#0B69FF"/>
<path d="M65.3047 23.2812C66.2057 23.2812 66.9844 23.1354 67.6406 22.8438C68.3021 22.5521 68.8099 22.1406 69.1641 21.6094C69.5234 21.0781 69.7031 20.4479 69.7031 19.7188V19.7109C69.7031 18.8568 69.4375 18.1797 68.9062 17.6797C68.3802 17.1745 67.5234 16.7969 66.3359 16.5469L65.125 16.2891C64.4219 16.1432 63.9141 15.9401 63.6016 15.6797C63.2943 15.4193 63.1406 15.0911 63.1406 14.6953V14.6875C63.1406 14.3646 63.2318 14.0885 63.4141 13.8594C63.6016 13.6302 63.8568 13.4531 64.1797 13.3281C64.5026 13.1979 64.8698 13.1328 65.2812 13.1328C65.7135 13.1328 66.0911 13.1979 66.4141 13.3281C66.737 13.4583 66.9948 13.6354 67.1875 13.8594C67.3854 14.0781 67.5078 14.3359 67.5547 14.6328L67.5703 14.7266H69.4922L69.4844 14.625C69.4427 14.0208 69.2474 13.4792 68.8984 13C68.5495 12.5208 68.0703 12.1432 67.4609 11.8672C66.8516 11.5859 66.1302 11.4453 65.2969 11.4453C64.4844 11.4453 63.763 11.5885 63.1328 11.875C62.5078 12.1562 62.0156 12.5495 61.6562 13.0547C61.3021 13.5599 61.125 14.1484 61.125 14.8203V14.8281C61.125 15.6667 61.3854 16.3568 61.9062 16.8984C62.4323 17.4349 63.2734 17.8255 64.4297 18.0703L65.6406 18.3203C66.3698 18.4766 66.8932 18.6849 67.2109 18.9453C67.5286 19.2005 67.6875 19.5312 67.6875 19.9375V19.9453C67.6875 20.2682 67.5885 20.5547 67.3906 20.8047C67.1927 21.0495 66.9193 21.2422 66.5703 21.3828C66.2214 21.5234 65.8203 21.5938 65.3672 21.5938C64.8932 21.5938 64.4714 21.5286 64.1016 21.3984C63.7318 21.263 63.4349 21.0781 63.2109 20.8438C62.9922 20.6094 62.8672 20.3333 62.8359 20.0156L62.8281 19.9375H60.875L60.8828 20.0469C60.9297 20.6927 61.138 21.2578 61.5078 21.7422C61.8776 22.2266 62.3828 22.6042 63.0234 22.875C63.6693 23.1458 64.4297 23.2812 65.3047 23.2812ZM71.7891 23H73.7266V14.4609H71.7891V23ZM72.7656 13.0312C73.0833 13.0312 73.3542 12.9193 73.5781 12.6953C73.8073 12.4714 73.9219 12.2031 73.9219 11.8906C73.9219 11.5677 73.8073 11.2969 73.5781 11.0781C73.3542 10.8542 73.0833 10.7422 72.7656 10.7422C72.4479 10.7422 72.1745 10.8542 71.9453 11.0781C71.7161 11.2969 71.6016 11.5677 71.6016 11.8906C71.6016 12.2031 71.7161 12.4714 71.9453 12.6953C72.1745 12.9193 72.4479 13.0312 72.7656 13.0312ZM79.7969 26C80.6302 26 81.3516 25.8698 81.9609 25.6094C82.5703 25.349 83.0391 24.9766 83.3672 24.4922C83.7005 24.013 83.8672 23.4453 83.8672 22.7891V14.4609H81.9219V15.8672H81.8203C81.6589 15.5443 81.4505 15.2682 81.1953 15.0391C80.9453 14.8099 80.6536 14.6328 80.3203 14.5078C79.9922 14.3828 79.6302 14.3203 79.2344 14.3203C78.5 14.3203 77.8672 14.4974 77.3359 14.8516C76.8099 15.2057 76.4036 15.6953 76.1172 16.3203C75.8307 16.9453 75.6875 17.6693 75.6875 18.4922V18.5078C75.6875 19.3151 75.8281 20.026 76.1094 20.6406C76.3958 21.2552 76.8021 21.737 77.3281 22.0859C77.8542 22.4297 78.4766 22.6016 79.1953 22.6016C79.5911 22.6016 79.9531 22.5495 80.2812 22.4453C80.6146 22.3359 80.9089 22.1745 81.1641 21.9609C81.4245 21.7474 81.6354 21.487 81.7969 21.1797H81.9297V22.8203C81.9297 23.3672 81.7448 23.7891 81.375 24.0859C81.0104 24.3828 80.4948 24.5312 79.8281 24.5312C79.2865 24.5312 78.8542 24.4427 78.5312 24.2656C78.2135 24.0938 78.0234 23.8724 77.9609 23.6016L77.9453 23.5781H76.0078L76 23.6016C76.0677 24.0807 76.2578 24.5 76.5703 24.8594C76.8828 25.224 77.3099 25.5052 77.8516 25.7031C78.3984 25.901 79.0469 26 79.7969 26ZM79.7969 21.0547C79.3438 21.0547 78.9583 20.9479 78.6406 20.7344C78.3281 20.5156 78.0885 20.2161 77.9219 19.8359C77.7604 19.4505 77.6797 19.0078 77.6797 18.5078V18.4922C77.6797 17.987 77.7604 17.5443 77.9219 17.1641C78.0885 16.7786 78.3281 16.4792 78.6406 16.2656C78.9583 16.0469 79.3438 15.9375 79.7969 15.9375C80.2448 15.9375 80.6302 16.0469 80.9531 16.2656C81.276 16.4792 81.5234 16.7786 81.6953 17.1641C81.8724 17.5443 81.9609 17.987 81.9609 18.4922V18.5078C81.9609 19.013 81.8724 19.4557 81.6953 19.8359C81.5234 20.2161 81.276 20.5156 80.9531 20.7344C80.6302 20.9479 80.2448 21.0547 79.7969 21.0547ZM86.25 23H88.1953V18.0234C88.1953 17.5964 88.2708 17.2266 88.4219 16.9141C88.5729 16.6016 88.7891 16.3594 89.0703 16.1875C89.3516 16.0156 89.6849 15.9297 90.0703 15.9297C90.6589 15.9297 91.0911 16.0964 91.3672 16.4297C91.6484 16.763 91.7891 17.263 91.7891 17.9297V23H93.7344V17.4766C93.7344 16.4609 93.4818 15.6771 92.9766 15.125C92.4714 14.5729 91.7422 14.2969 90.7891 14.2969C90.1745 14.2969 89.6615 14.4271 89.25 14.6875C88.8385 14.9479 88.5312 15.3099 88.3281 15.7734H88.1953V14.4609H86.25V23ZM100.32 23H102.258V14.4609H100.32V23ZM101.297 13.0312C101.615 13.0312 101.885 12.9193 102.109 12.6953C102.339 12.4714 102.453 12.2031 102.453 11.8906C102.453 11.5677 102.339 11.2969 102.109 11.0781C101.885 10.8542 101.615 10.7422 101.297 10.7422C100.979 10.7422 100.706 10.8542 100.477 11.0781C100.247 11.2969 100.133 11.5677 100.133 11.8906C100.133 12.2031 100.247 12.4714 100.477 12.6953C100.706 12.9193 100.979 13.0312 101.297 13.0312ZM104.656 23H106.602V18.0234C106.602 17.5964 106.677 17.2266 106.828 16.9141C106.979 16.6016 107.195 16.3594 107.477 16.1875C107.758 16.0156 108.091 15.9297 108.477 15.9297C109.065 15.9297 109.497 16.0964 109.773 16.4297C110.055 16.763 110.195 17.263 110.195 17.9297V23H112.141V17.4766C112.141 16.4609 111.888 15.6771 111.383 15.125C110.878 14.5729 110.148 14.2969 109.195 14.2969C108.581 14.2969 108.068 14.4271 107.656 14.6875C107.245 14.9479 106.938 15.3099 106.734 15.7734H106.602V14.4609H104.656V23Z" fill="#0B69FF"/>
<defs>
<clipPath id="clip0_1_34">
<rect width="20" height="20" fill="white" transform="translate(8 8)"/>
</clipPath>
</defs>
</svg>
