<svg width="90" height="20" viewBox="0 0 90 20" fill="none" xmlns="http://www.w3.org/2000/svg">
<path d="M28.0866 3.19079C27.7559 1.9782 26.7874 1.02211 25.5591 0.695639C23.315 0.0893402 14.3386 0.0893402 14.3386 0.0893402C14.3386 0.0893402 5.3622 0.0893402 3.11811 0.67232C1.91339 0.998789 0.92126 1.9782 0.590551 3.19079C0 5.40612 0 10 0 10C0 10 0 14.6172 0.590551 16.8092C0.92126 18.0218 1.88976 18.9779 3.11811 19.3044C5.38583 19.9107 14.3386 19.9107 14.3386 19.9107C14.3386 19.9107 23.315 19.9107 25.5591 19.3277C26.7874 19.0012 27.7559 18.0451 28.0866 16.8325C28.6772 14.6172 28.6772 10.0233 28.6772 10.0233C28.6772 10.0233 28.7008 5.40612 28.0866 3.19079Z" fill="#FF0000"/>
<path d="M11.4803 5.75591V14.2441L18.9449 10L11.4803 5.75591Z" fill="white"/>
<path d="M41.6457 18.1384C41.0787 17.7653 40.6772 17.1823 40.4409 16.3661C40.2047 15.5733 40.0866 14.5006 40.0866 13.1947V11.3992C40.0866 10.07 40.2283 8.99727 40.4882 8.1811C40.7716 7.36493 41.1968 6.78195 41.7638 6.40884C42.3543 6.03574 43.1102 5.84918 44.0551 5.84918C44.9764 5.84918 45.7323 6.03574 46.2992 6.40884C46.8661 6.78195 47.2677 7.38825 47.5276 8.1811C47.7874 8.97396 47.9291 10.0466 47.9291 11.3992V13.1947C47.9291 14.5239 47.811 15.5733 47.5512 16.3895C47.2913 17.1823 46.8898 17.7886 46.3228 18.1617C45.7559 18.5348 44.9764 18.7214 44.0079 18.7214C43.0157 18.6981 42.2126 18.5115 41.6457 18.1384ZM44.8346 16.1796C45 15.7832 45.0709 15.1069 45.0709 14.1975V10.3265C45.0709 9.44034 45 8.7874 44.8346 8.36766C44.6693 7.94791 44.4094 7.76136 44.0079 7.76136C43.6299 7.76136 43.3465 7.97123 43.2047 8.36766C43.0394 8.7874 42.9685 9.44034 42.9685 10.3265V14.1975C42.9685 15.1069 43.0394 15.7832 43.2047 16.1796C43.3465 16.576 43.6299 16.7859 44.0315 16.7859C44.4094 16.7859 44.6693 16.5993 44.8346 16.1796Z" fill="#282828"/>
<path d="M85.2519 13.218V13.8477C85.2519 14.6405 85.2756 15.2468 85.3228 15.6432C85.3701 16.0397 85.4645 16.3428 85.6299 16.5061C85.7716 16.6926 86.0078 16.7859 86.3386 16.7859C86.7638 16.7859 87.0472 16.6227 87.2126 16.2962C87.3779 15.9697 87.4488 15.4334 87.4724 14.6638L89.9055 14.8038C89.9291 14.9204 89.9291 15.0603 89.9291 15.2468C89.9291 16.3895 89.622 17.2523 88.9842 17.8119C88.3464 18.3716 87.4488 18.6514 86.2913 18.6514C84.8976 18.6514 83.9291 18.2084 83.3622 17.3455C82.7952 16.4827 82.5118 15.1535 82.5118 13.3346V11.166C82.5118 9.30042 82.7952 7.94791 83.3858 7.0851C83.9763 6.22229 84.9685 5.80254 86.3622 5.80254C87.3307 5.80254 88.0866 5.9891 88.6063 6.33889C89.126 6.68867 89.4803 7.24833 89.6929 7.97123C89.9055 8.71744 90 9.74349 90 11.0494V13.1714H85.2519V13.218ZM85.6063 7.99455C85.4645 8.1811 85.3701 8.46093 85.3228 8.85736C85.2756 9.25378 85.2519 9.86008 85.2519 10.6763V11.5624H87.3307V10.6763C87.3307 9.8834 87.3071 9.2771 87.2598 8.85736C87.2126 8.43761 87.0945 8.15778 86.9527 7.99455C86.811 7.83131 86.5748 7.73804 86.2913 7.73804C85.9606 7.71472 85.748 7.808 85.6063 7.99455Z" fill="#282828"/>
<path d="M34.748 12.9849L31.5354 1.48849H34.3464L35.4803 6.68867C35.7637 7.97123 35.9763 9.06723 36.1181 9.97668H36.1889C36.2834 9.32374 36.496 8.25106 36.8267 6.71199L38.0078 1.48849H40.8189L37.559 12.9849V18.4882H34.7716V12.9849H34.748Z" fill="#282828"/>
<path d="M57.0708 6.08237V18.5115H54.8504L54.6141 16.9958H54.5433C53.9527 18.1384 53.0315 18.7214 51.8267 18.7214C51 18.7214 50.3858 18.4416 49.9842 17.9052C49.5827 17.3689 49.3937 16.5294 49.3937 15.3634V6.08237H52.2283V15.2002C52.2283 15.7598 52.2992 16.1563 52.4173 16.3895C52.5354 16.6227 52.748 16.7392 53.0315 16.7392C53.2677 16.7392 53.5039 16.6693 53.7401 16.5061C53.9764 16.3661 54.1417 16.1796 54.2362 15.9464V6.08237H57.0708Z" fill="#282828"/>
<path d="M71.5984 6.08237V18.5115H69.3779L69.1417 16.9958H69.0708C68.4803 18.1384 67.559 18.7214 66.3543 18.7214C65.5275 18.7214 64.9133 18.4416 64.5118 17.9052C64.1102 17.3689 63.9212 16.5294 63.9212 15.3634V6.08237H66.7558V15.2002C66.7558 15.7598 66.8267 16.1563 66.9448 16.3895C67.0629 16.6227 67.2755 16.7392 67.559 16.7392C67.7952 16.7392 68.0314 16.6693 68.2677 16.5061C68.5039 16.3661 68.6692 16.1796 68.7637 15.9464V6.08237H71.5984Z" fill="#282828"/>
<path d="M64.7716 3.75045H61.9606V18.4882H59.1968V3.75045H56.3858V1.48849H64.7716V3.75045Z" fill="#282828"/>
<path d="M80.9764 8.06451C80.811 7.27165 80.5275 6.71199 80.1496 6.3622C79.7716 6.01242 79.2283 5.82586 78.5669 5.82586C78.0472 5.82586 77.5512 5.96578 77.1023 6.26893C76.6535 6.54876 76.2992 6.94518 76.063 7.41157H76.0394V0.858871H73.2992V18.4882H75.6378L75.9212 17.3222H75.9921C76.2047 17.742 76.5354 18.0684 76.9842 18.325C77.4331 18.5581 77.9055 18.6981 78.4488 18.6981C79.4173 18.6981 80.1023 18.255 80.5512 17.3922C81 16.5294 81.2362 15.1535 81.2362 13.3113V11.3525C81.2126 9.93004 81.1417 8.83404 80.9764 8.06451ZM78.3779 13.1248C78.3779 14.0342 78.3307 14.7338 78.2598 15.2468C78.189 15.7598 78.0472 16.1329 77.8819 16.3428C77.6929 16.5527 77.4567 16.6693 77.1732 16.6693C76.937 16.6693 76.7244 16.6227 76.5354 16.5061C76.3464 16.3895 76.1811 16.2262 76.063 16.0164V8.97395C76.1575 8.64748 76.3228 8.36765 76.559 8.13446C76.7953 7.92459 77.0551 7.80799 77.3149 7.80799C77.5984 7.80799 77.8346 7.92459 77.9764 8.13446C78.1417 8.36765 78.2362 8.74076 78.3071 9.25378C78.3779 9.79013 78.4016 10.5363 78.4016 11.4924V13.1248H78.3779Z" fill="#282828"/>
</svg>
