<svg width="30" height="30" viewBox="0 0 30 30" fill="none" xmlns="http://www.w3.org/2000/svg">
<rect y="0.486694" width="29.0266" height="29.0266" rx="3.72136" fill="#85BA09"/>
<path d="M7.28081 6.514C7.28081 5.77181 7.52152 5.20012 8.00294 4.79894C8.50442 4.37769 9.20649 4.16707 10.1092 4.16707V23.4239C10.1092 24.1661 9.85841 24.7478 9.35693 25.169C8.87551 25.5702 8.18347 25.7708 7.28081 25.7708V6.514Z" fill="white"/>
<path d="M10.4745 14.968C10.4905 14.3446 10.7871 13.9298 11.3643 13.7237L24.3699 9.08676C24.4315 9.21831 24.4854 9.39516 24.5317 9.61729C24.578 9.83943 24.5989 10.0349 24.5946 10.2038C24.5682 11.2298 24.1355 11.8816 23.2966 12.1589L14.8226 14.9433L13.5877 14.4437L13.5043 14.656L23.1358 18.4128C23.9591 18.7459 24.3577 19.4189 24.3316 20.432C24.3273 20.6009 24.2963 20.795 24.2387 21.0145C24.181 21.234 24.1179 21.4143 24.0493 21.5555L11.2992 16.2564C11.0291 16.1455 10.8189 15.9776 10.6688 15.7528C10.5312 15.5413 10.4665 15.2797 10.4745 14.968Z" fill="white"/>
</svg>
