<svg width="33" height="32" viewBox="0 0 33 32" fill="none" xmlns="http://www.w3.org/2000/svg">
<ellipse cx="16.0577" cy="15.6754" rx="16.0577" ry="15.6754" fill="#00B533"/>
<path d="M22.4993 8.76426L7.18461 14.4632C6.15179 14.8233 6.13286 15.5034 6.96364 15.721L10.7378 17.0899L12.0946 21.7945C12.2669 22.2854 12.1686 22.4771 12.6331 22.49C13.0048 22.5004 13.196 22.3113 13.3872 22.1221C13.4828 22.0276 14.3434 21.1765 15.2995 20.2309L19.1179 23.3511C19.8504 23.7604 20.3203 23.579 20.5305 22.7098L23.4862 10.0557C23.7946 8.99477 23.1605 8.39377 22.4993 8.76426ZM20.4671 11.6244L13.0281 18.3204L12.6602 21.5185L11.3034 16.814L20.0079 11.4172C20.3877 11.1361 20.7539 11.3408 20.4671 11.6244Z" fill="white"/>
</svg>
